<ttFont>
<head>
    <!-- Most of this table will be recalculated by the compiler -->
    <tableVersion value="1.0"/>
    <fontRevision value="1.0"/>
    <checkSumAdjustment value="0xcdb03488"/>
    <magicNumber value="0x5f0f3cf5"/>
    <flags value="00000000 00001011"/>
    <unitsPerEm value="1000"/>
    <created value="Thu Apr  4 20:46:19 2019"/>
    <modified value="Thu Apr  4 20:46:20 2019"/>
    <xMin value="-172"/>
    <yMin value="-295"/>
    <xMax value="1152"/>
    <yMax value="1007"/>
    <macStyle value="00000000 00000000"/>
    <lowestRecPPEM value="6"/>
    <fontDirectionHint value="2"/>
    <indexToLocFormat value="0"/>
    <glyphDataFormat value="0"/>
  </head>
    <TTGlyph name=".notdef" xMin="60" yMin="-100" xMax="454" yMax="750">
      <contour>
        <pt x="60" y="-100" on="1"/>
        <pt x="60" y="750" on="1"/>
        <pt x="454" y="750" on="1"/>
        <pt x="454" y="-100" on="1"/>
      </contour>
    </TTGlyph>
    <TTGlyph name="A" xMin="-63" yMin="0" xMax="689" yMax="700">
      <contour>
        <pt x="-63" y="0" on="1"/>
        <pt x="364" y="700" on="1"/>
        <pt x="557" y="700" on="1"/>
        <pt x="689" y="0" on="1"/>
        <pt x="515" y="0" on="1"/>
        <pt x="487" y="169" on="1"/>
        <pt x="219" y="169" on="1"/>
        <pt x="121" y="0" on="1"/>
      </contour>
      <contour>
        <pt x="298" y="306" on="1"/>
        <pt x="465" y="306" on="1"/>
        <pt x="428" y="530" on="1"/>
      </contour>
    </TTGlyph>
    <TTGlyph name="AE" xMin="-63" yMin="0" xMax="1024" yMax="700">
      <contour>
        <pt x="-63" y="0" on="1"/>
        <pt x="366" y="700" on="1"/>
        <pt x="1024" y="700" on="1"/>
        <pt x="993" y="551" on="1"/>
        <pt x="594" y="551" on="1"/>
        <pt x="612" y="425" on="1"/>
        <pt x="845" y="425" on="1"/>
        <pt x="814" y="281" on="1"/>
        <pt x="631" y="281" on="1"/>
        <pt x="650" y="149" on="1"/>
        <pt x="907" y="149" on="1"/>
        <pt x="876" y="0" on="1"/>
        <pt x="504" y="0" on="1"/>
        <pt x="482" y="169" on="1"/>
        <pt x="213" y="169" on="1"/>
        <pt x="110" y="0" on="1"/>
      </contour>
      <contour>
        <pt x="297" y="306" on="1"/>
        <pt x="464" y="306" on="1"/>
        <pt x="435" y="530" on="1"/>
      </contour>
    </TTGlyph>
    <TTGlyph name="Aacute" xMin="-63" yMin="0" xMax="689" yMax="918">
      <component glyphName="A" x="0" y="0" flags="0x204"/>
      <component glyphName="acute" x="175" y="171" flags="0x4"/>
    </TTGlyph>
    <TTGlyph name="Abreve" xMin="-63" yMin="0" xMax="689" yMax="943">
      <component glyphName="A" x="0" y="0" flags="0x204"/>
      <component glyphName="breve" x="143" y="171" flags="0x4"/>
    </TTGlyph>
    <TTGlyph name="Acircumflex" xMin="-63" yMin="0" xMax="689" yMax="921">
      <component glyphName="A" x="0" y="0" flags="0x204"/>
      <component glyphName="circumflex" x="141" y="171" flags="0x4"/>
    </TTGlyph>
    <TTGlyph name="Adieresis" xMin="-63" yMin="0" xMax="689" yMax="937">
      <component glyphName="A" x="0" y="0" flags="0x204"/>
      <component glyphName="dieresis" x="98" y="171" flags="0x4"/>
    </TTGlyph>
    <TTGlyph name="Agrave" xMin="-63" yMin="0" xMax="689" yMax="918">
      <component glyphName="A" x="0" y="0" flags="0x204"/>
      <component glyphName="grave" x="113" y="171" flags="0x4"/>
    </TTGlyph>
    <TTGlyph name="Amacron" xMin="-63" yMin="0" xMax="689" yMax="899">
      <component glyphName="A" x="0" y="0" flags="0x204"/>
      <component glyphName="macron" x="143" y="171" flags="0x4"/>
    </TTGlyph>
    <TTGlyph name="Aogonek" xMin="-63" yMin="-221" xMax="689" yMax="700">
      <contour>
        <pt x="-63" y="0" on="1"/>
        <pt x="364" y="700" on="1"/>
        <pt x="557" y="700" on="1"/>
        <pt x="689" y="0" on="1"/>
        <pt x="637" y="-28" on="0"/>
        <pt x="585" y="-81" on="0"/>
        <pt x="585" y="-108" on="1"/>
        <pt x="585" y="-123" on="0"/>
        <pt x="605" y="-139" on="0"/>
        <pt x="623" y="-139" on="1"/>
        <pt x="633" y="-139" on="0"/>
        <pt x="653" y="-133" on="0"/>
        <pt x="661" y="-128" on="1"/>
        <pt x="667" y="-198" on="1"/>
        <pt x="648" y="-209" on="0"/>
        <pt x="600" y="-221" on="0"/>
        <pt x="577" y="-221" on="1"/>
        <pt x="537" y="-221" on="0"/>
        <pt x="489" y="-182" on="0"/>
        <pt x="489" y="-148" on="1"/>
        <pt x="489" y="-107" on="0"/>
        <pt x="547" y="-33" on="0"/>
        <pt x="604" y="0" on="1"/>
        <pt x="515" y="0" on="1"/>
        <pt x="487" y="169" on="1"/>
        <pt x="219" y="169" on="1"/>
        <pt x="121" y="0" on="1"/>
      </contour>
      <contour>
        <pt x="298" y="306" on="1"/>
        <pt x="465" y="306" on="1"/>
        <pt x="428" y="530" on="1"/>
      </contour>
    </TTGlyph>
    <TTGlyph name="Aring" xMin="-63" yMin="0" xMax="689" yMax="1007">
      <component glyphName="A" x="0" y="0" flags="0x204"/>
      <component glyphName="ring" x="143" y="171" flags="0x4"/>
    </TTGlyph>
    <TTGlyph name="Atilde" xMin="-63" yMin="0" xMax="695" yMax="927">
      <component glyphName="A" x="0" y="0" flags="0x204"/>
      <component glyphName="tilde" x="146" y="171" flags="0x4"/>
    </TTGlyph>
    <TTGlyph name="B" xMin="1" yMin="0" xMax="682" yMax="700">
      <contour>
        <pt x="150" y="700" on="1"/>
        <pt x="468" y="700" on="1"/>
        <pt x="564" y="700" on="0"/>
        <pt x="682" y="606" on="0"/>
        <pt x="682" y="528" on="1"/>
        <pt x="682" y="474" on="0"/>
        <pt x="624" y="382" on="0"/>
        <pt x="576" y="353" on="1"/>
        <pt x="610" y="331" on="0"/>
        <pt x="650" y="265" on="0"/>
        <pt x="650" y="225" on="1"/>
        <pt x="650" y="177" on="0"/>
        <pt x="608" y="95" on="0"/>
        <pt x="536" y="34" on="0"/>
        <pt x="437" y="0" on="0"/>
        <pt x="380" y="0" on="1"/>
        <pt x="1" y="0" on="1"/>
      </contour>
      <contour>
        <pt x="439" y="559" on="1"/>
        <pt x="288" y="559" on="1"/>
        <pt x="259" y="421" on="1"/>
        <pt x="419" y="421" on="1"/>
        <pt x="458" y="421" on="0"/>
        <pt x="510" y="466" on="0"/>
        <pt x="510" y="500" on="1"/>
        <pt x="510" y="528" on="0"/>
        <pt x="472" y="559" on="0"/>
      </contour>
      <contour>
        <pt x="384" y="141" on="1"/>
        <pt x="426" y="141" on="0"/>
        <pt x="481" y="189" on="0"/>
        <pt x="481" y="226" on="1"/>
        <pt x="481" y="255" on="0"/>
        <pt x="440" y="289" on="0"/>
        <pt x="404" y="289" on="1"/>
        <pt x="231" y="289" on="1"/>
        <pt x="199" y="141" on="1"/>
      </contour>
    </TTGlyph>
    <TTGlyph name="C" xMin="50" yMin="-12" xMax="733" yMax="707">
      <contour>
        <pt x="411" y="146" on="1"/>
        <pt x="459" y="146" on="0"/>
        <pt x="548" y="187" on="0"/>
        <pt x="587" y="227" on="1"/>
        <pt x="680" y="112" on="1"/>
        <pt x="625" y="55" on="0"/>
        <pt x="468" y="-12" on="0"/>
        <pt x="390" y="-12" on="1"/>
        <pt x="319" y="-12" on="0"/>
        <pt x="194" y="40" on="0"/>
        <pt x="103" y="129" on="0"/>
        <pt x="50" y="251" on="0"/>
        <pt x="50" y="321" on="1"/>
        <pt x="50" y="400" on="0"/>
        <pt x="112" y="542" on="0"/>
        <pt x="217" y="646" on="0"/>
        <pt x="360" y="707" on="0"/>
        <pt x="440" y="707" on="1"/>
        <pt x="538" y="707" on="0"/>
        <pt x="689" y="631" on="0"/>
        <pt x="733" y="560" on="1"/>
        <pt x="602" y="450" on="1"/>
        <pt x="574" y="499" on="0"/>
        <pt x="487" y="550" on="0"/>
        <pt x="431" y="550" on="1"/>
        <pt x="388" y="550" on="0"/>
        <pt x="312" y="515" on="0"/>
        <pt x="256" y="456" on="0"/>
        <pt x="223" y="375" on="0"/>
        <pt x="223" y="330" on="1"/>
        <pt x="223" y="252" on="0"/>
        <pt x="330" y="146" on="0"/>
      </contour>
    </TTGlyph>
    <TTGlyph name="Cacute" xMin="50" yMin="-12" xMax="733" yMax="918">
      <component glyphName="C" x="0" y="0" flags="0x204"/>
      <component glyphName="acute" x="174" y="171" flags="0x4"/>
    </TTGlyph>
    <TTGlyph name="Ccaron" xMin="50" yMin="-12" xMax="733" yMax="921">
      <component glyphName="C" x="0" y="0" flags="0x204"/>
      <component glyphName="caron" x="142" y="171" flags="0x4"/>
    </TTGlyph>
    <TTGlyph name="Ccedilla" xMin="50" yMin="-238" xMax="733" yMax="707">
      <contour>
        <pt x="411" y="146" on="1"/>
        <pt x="459" y="146" on="0"/>
        <pt x="548" y="187" on="0"/>
        <pt x="587" y="227" on="1"/>
        <pt x="680" y="112" on="1"/>
        <pt x="627" y="58" on="0"/>
        <pt x="479" y="-9" on="0"/>
        <pt x="404" y="-12" on="1"/>
        <pt x="387" y="-44" on="1"/>
        <pt x="423" y="-51" on="0"/>
        <pt x="463" y="-93" on="0"/>
        <pt x="463" y="-126" on="1"/>
        <pt x="463" y="-172" on="0"/>
        <pt x="378" y="-238" on="0"/>
        <pt x="318" y="-238" on="1"/>
        <pt x="277" y="-238" on="0"/>
        <pt x="214" y="-213" on="0"/>
        <pt x="189" y="-185" on="1"/>
        <pt x="246" y="-133" on="1"/>
        <pt x="261" y="-149" on="0"/>
        <pt x="300" y="-165" on="0"/>
        <pt x="322" y="-165" on="1"/>
        <pt x="344" y="-165" on="0"/>
        <pt x="372" y="-146" on="0"/>
        <pt x="372" y="-130" on="1"/>
        <pt x="372" y="-115" on="0"/>
        <pt x="348" y="-97" on="0"/>
        <pt x="328" y="-97" on="1"/>
        <pt x="285" y="-97" on="1"/>
        <pt x="330" y="-7" on="1"/>
        <pt x="270" y="3" on="0"/>
        <pt x="167" y="61" on="0"/>
        <pt x="92" y="148" on="0"/>
        <pt x="50" y="259" on="0"/>
        <pt x="50" y="321" on="1"/>
        <pt x="50" y="400" on="0"/>
        <pt x="112" y="542" on="0"/>
        <pt x="217" y="646" on="0"/>
        <pt x="360" y="707" on="0"/>
        <pt x="440" y="707" on="1"/>
        <pt x="538" y="707" on="0"/>
        <pt x="689" y="631" on="0"/>
        <pt x="733" y="560" on="1"/>
        <pt x="602" y="450" on="1"/>
        <pt x="574" y="499" on="0"/>
        <pt x="487" y="550" on="0"/>
        <pt x="431" y="550" on="1"/>
        <pt x="388" y="550" on="0"/>
        <pt x="312" y="515" on="0"/>
        <pt x="256" y="456" on="0"/>
        <pt x="223" y="375" on="0"/>
        <pt x="223" y="330" on="1"/>
        <pt x="223" y="252" on="0"/>
        <pt x="330" y="146" on="0"/>
      </contour>
    </TTGlyph>
    <TTGlyph name="Ccircumflex" xMin="50" yMin="-12" xMax="733" yMax="921">
      <component glyphName="C" x="0" y="0" flags="0x204"/>
      <component glyphName="circumflex" x="140" y="171" flags="0x4"/>
    </TTGlyph>
    <TTGlyph name="Cdotaccent" xMin="50" yMin="-12" xMax="733" yMax="937">
      <component glyphName="C" x="0" y="0" flags="0x204"/>
      <component glyphName="dotaccent" x="248" y="171" flags="0x4"/>
    </TTGlyph>
    <TTGlyph name="D" xMin="1" yMin="0" xMax="718" yMax="700">
      <contour>
        <pt x="1" y="0" on="1"/>
        <pt x="150" y="700" on="1"/>
        <pt x="391" y="700" on="1"/>
        <pt x="461" y="700" on="0"/>
        <pt x="581" y="652" on="0"/>
        <pt x="668" y="569" on="0"/>
        <pt x="718" y="454" on="0"/>
        <pt x="718" y="387" on="1"/>
        <pt x="718" y="309" on="0"/>
        <pt x="653" y="167" on="0"/>
        <pt x="544" y="62" on="0"/>
        <pt x="397" y="0" on="0"/>
        <pt x="316" y="0" on="1"/>
      </contour>
      <contour>
        <pt x="370" y="548" on="1"/>
        <pt x="286" y="548" on="1"/>
        <pt x="201" y="152" on="1"/>
        <pt x="328" y="152" on="1"/>
        <pt x="372" y="152" on="0"/>
        <pt x="451" y="187" on="0"/>
        <pt x="508" y="246" on="0"/>
        <pt x="542" y="327" on="0"/>
        <pt x="542" y="373" on="1"/>
        <pt x="542" y="448" on="0"/>
        <pt x="444" y="548" on="0"/>
      </contour>
    </TTGlyph>
    <TTGlyph name="Dcaron" xMin="1" yMin="0" xMax="718" yMax="921">
      <component glyphName="D" x="0" y="0" flags="0x204"/>
      <component glyphName="caron" x="150" y="171" flags="0x4"/>
    </TTGlyph>
    <TTGlyph name="Dcroat" xMin="13" yMin="0" xMax="743" yMax="700">
      <contour>
        <pt x="26" y="0" on="1"/>
        <pt x="86" y="283" on="1"/>
        <pt x="13" y="283" on="1"/>
        <pt x="41" y="418" on="1"/>
        <pt x="115" y="418" on="1"/>
        <pt x="175" y="700" on="1"/>
        <pt x="416" y="700" on="1"/>
        <pt x="486" y="700" on="0"/>
        <pt x="606" y="652" on="0"/>
        <pt x="693" y="569" on="0"/>
        <pt x="743" y="454" on="0"/>
        <pt x="743" y="387" on="1"/>
        <pt x="743" y="309" on="0"/>
        <pt x="678" y="167" on="0"/>
        <pt x="569" y="62" on="0"/>
        <pt x="422" y="0" on="0"/>
        <pt x="341" y="0" on="1"/>
      </contour>
      <contour>
        <pt x="395" y="548" on="1"/>
        <pt x="311" y="548" on="1"/>
        <pt x="283" y="418" on="1"/>
        <pt x="444" y="418" on="1"/>
        <pt x="416" y="283" on="1"/>
        <pt x="254" y="283" on="1"/>
        <pt x="226" y="152" on="1"/>
        <pt x="353" y="152" on="1"/>
        <pt x="397" y="152" on="0"/>
        <pt x="476" y="187" on="0"/>
        <pt x="533" y="246" on="0"/>
        <pt x="567" y="327" on="0"/>
        <pt x="567" y="373" on="1"/>
        <pt x="567" y="448" on="0"/>
        <pt x="469" y="548" on="0"/>
      </contour>
    </TTGlyph>
    <TTGlyph name="E" xMin="1" yMin="0" xMax="691" yMax="700">
      <contour>
        <pt x="1" y="0" on="1"/>
        <pt x="150" y="700" on="1"/>
        <pt x="691" y="700" on="1"/>
        <pt x="659" y="551" on="1"/>
        <pt x="286" y="551" on="1"/>
        <pt x="259" y="425" on="1"/>
        <pt x="505" y="425" on="1"/>
        <pt x="475" y="281" on="1"/>
        <pt x="229" y="281" on="1"/>
        <pt x="201" y="149" on="1"/>
        <pt x="578" y="149" on="1"/>
        <pt x="546" y="0" on="1"/>
      </contour>
    </TTGlyph>
    <TTGlyph name="Eacute" xMin="1" yMin="0" xMax="691" yMax="918">
      <component glyphName="E" x="0" y="0" flags="0x204"/>
      <component glyphName="acute" x="140" y="171" flags="0x4"/>
    </TTGlyph>
    <TTGlyph name="Ebreve" xMin="1" yMin="0" xMax="691" yMax="943">
      <component glyphName="E" x="0" y="0" flags="0x204"/>
      <component glyphName="breve" x="108" y="171" flags="0x4"/>
    </TTGlyph>
    <TTGlyph name="Ecaron" xMin="1" yMin="0" xMax="691" yMax="921">
      <component glyphName="E" x="0" y="0" flags="0x204"/>
      <component glyphName="caron" x="108" y="171" flags="0x4"/>
    </TTGlyph>
    <TTGlyph name="Ecircumflex" xMin="1" yMin="0" xMax="691" yMax="921">
      <component glyphName="E" x="0" y="0" flags="0x204"/>
      <component glyphName="circumflex" x="106" y="171" flags="0x4"/>
    </TTGlyph>
    <TTGlyph name="Edieresis" xMin="1" yMin="0" xMax="691" yMax="937">
      <component glyphName="E" x="0" y="0" flags="0x204"/>
      <component glyphName="dieresis" x="63" y="171" flags="0x4"/>
    </TTGlyph>
    <TTGlyph name="Edotaccent" xMin="1" yMin="0" xMax="691" yMax="937">
      <component glyphName="E" x="0" y="0" flags="0x204"/>
      <component glyphName="dotaccent" x="214" y="171" flags="0x4"/>
    </TTGlyph>
    <TTGlyph name="Egrave" xMin="1" yMin="0" xMax="691" yMax="918">
      <component glyphName="E" x="0" y="0" flags="0x204"/>
      <component glyphName="grave" x="78" y="171" flags="0x4"/>
    </TTGlyph>
    <TTGlyph name="Emacron" xMin="1" yMin="0" xMax="691" yMax="899">
      <component glyphName="E" x="0" y="0" flags="0x204"/>
      <component glyphName="macron" x="108" y="171" flags="0x4"/>
    </TTGlyph>
    <TTGlyph name="Eng" xMin="1" yMin="-218" xMax="779" yMax="700">
      <contour>
        <pt x="474" y="13" on="1"/>
        <pt x="252" y="431" on="1"/>
        <pt x="160" y="0" on="1"/>
        <pt x="1" y="0" on="1"/>
        <pt x="150" y="700" on="1"/>
        <pt x="309" y="700" on="1"/>
        <pt x="532" y="285" on="1"/>
        <pt x="620" y="700" on="1"/>
        <pt x="779" y="700" on="1"/>
        <pt x="617" y="-61" on="1"/>
        <pt x="601" y="-136" on="0"/>
        <pt x="497" y="-218" on="0"/>
        <pt x="419" y="-218" on="1"/>
        <pt x="394" y="-218" on="0"/>
        <pt x="340" y="-208" on="0"/>
        <pt x="326" y="-203" on="1"/>
        <pt x="352" y="-82" on="1"/>
        <pt x="363" y="-84" on="0"/>
        <pt x="388" y="-88" on="0"/>
        <pt x="406" y="-88" on="1"/>
        <pt x="430" y="-88" on="0"/>
        <pt x="458" y="-66" on="0"/>
        <pt x="462" y="-44" on="1"/>
      </contour>
    </TTGlyph>
    <TTGlyph name="Eogonek" xMin="1" yMin="-221" xMax="691" yMax="700">
      <contour>
        <pt x="1" y="0" on="1"/>
        <pt x="150" y="700" on="1"/>
        <pt x="691" y="700" on="1"/>
        <pt x="659" y="551" on="1"/>
        <pt x="286" y="551" on="1"/>
        <pt x="259" y="425" on="1"/>
        <pt x="505" y="425" on="1"/>
        <pt x="475" y="281" on="1"/>
        <pt x="229" y="281" on="1"/>
        <pt x="201" y="149" on="1"/>
        <pt x="578" y="149" on="1"/>
        <pt x="546" y="0" on="1"/>
        <pt x="494" y="-28" on="0"/>
        <pt x="442" y="-81" on="0"/>
        <pt x="442" y="-108" on="1"/>
        <pt x="442" y="-123" on="0"/>
        <pt x="462" y="-139" on="0"/>
        <pt x="480" y="-139" on="1"/>
        <pt x="490" y="-139" on="0"/>
        <pt x="510" y="-133" on="0"/>
        <pt x="518" y="-128" on="1"/>
        <pt x="524" y="-198" on="1"/>
        <pt x="505" y="-209" on="0"/>
        <pt x="457" y="-221" on="0"/>
        <pt x="434" y="-221" on="1"/>
        <pt x="394" y="-221" on="0"/>
        <pt x="346" y="-182" on="0"/>
        <pt x="346" y="-148" on="1"/>
        <pt x="346" y="-107" on="0"/>
        <pt x="404" y="-33" on="0"/>
        <pt x="461" y="0" on="1"/>
      </contour>
    </TTGlyph>
    <TTGlyph name="Eth" xMin="13" yMin="0" xMax="743" yMax="700">
      <contour>
        <pt x="26" y="0" on="1"/>
        <pt x="86" y="283" on="1"/>
        <pt x="13" y="283" on="1"/>
        <pt x="41" y="418" on="1"/>
        <pt x="115" y="418" on="1"/>
        <pt x="175" y="700" on="1"/>
        <pt x="416" y="700" on="1"/>
        <pt x="486" y="700" on="0"/>
        <pt x="606" y="652" on="0"/>
        <pt x="693" y="569" on="0"/>
        <pt x="743" y="454" on="0"/>
        <pt x="743" y="387" on="1"/>
        <pt x="743" y="309" on="0"/>
        <pt x="678" y="167" on="0"/>
        <pt x="569" y="62" on="0"/>
        <pt x="422" y="0" on="0"/>
        <pt x="341" y="0" on="1"/>
      </contour>
      <contour>
        <pt x="395" y="548" on="1"/>
        <pt x="311" y="548" on="1"/>
        <pt x="283" y="418" on="1"/>
        <pt x="444" y="418" on="1"/>
        <pt x="416" y="283" on="1"/>
        <pt x="254" y="283" on="1"/>
        <pt x="226" y="152" on="1"/>
        <pt x="353" y="152" on="1"/>
        <pt x="397" y="152" on="0"/>
        <pt x="476" y="187" on="0"/>
        <pt x="533" y="246" on="0"/>
        <pt x="567" y="327" on="0"/>
        <pt x="567" y="373" on="1"/>
        <pt x="567" y="448" on="0"/>
        <pt x="469" y="548" on="0"/>
      </contour>
    </TTGlyph>
    <TTGlyph name="Euro" xMin="31" yMin="-10" xMax="808" yMax="711">
      <contour>
        <pt x="477" y="323" on="1"/>
        <pt x="429" y="245" on="1"/>
        <pt x="268" y="245" on="1"/>
        <pt x="283" y="187" on="0"/>
        <pt x="377" y="121" on="0"/>
        <pt x="448" y="121" on="1"/>
        <pt x="499" y="121" on="0"/>
        <pt x="595" y="158" on="0"/>
        <pt x="626" y="190" on="1"/>
        <pt x="715" y="104" on="1"/>
        <pt x="659" y="48" on="0"/>
        <pt x="514" y="-10" on="0"/>
        <pt x="431" y="-10" on="1"/>
        <pt x="301" y="-10" on="0"/>
        <pt x="133" y="129" on="0"/>
        <pt x="118" y="245" on="1"/>
        <pt x="31" y="245" on="1"/>
        <pt x="48" y="323" on="1"/>
        <pt x="116" y="323" on="1"/>
        <pt x="117" y="336" on="0"/>
        <pt x="121" y="363" on="0"/>
        <pt x="123" y="376" on="1"/>
        <pt x="59" y="376" on="1"/>
        <pt x="76" y="455" on="1"/>
        <pt x="146" y="455" on="1"/>
        <pt x="169" y="512" on="0"/>
        <pt x="245" y="607" on="0"/>
        <pt x="344" y="674" on="0"/>
        <pt x="463" y="711" on="0"/>
        <pt x="529" y="711" on="1"/>
        <pt x="630" y="711" on="0"/>
        <pt x="774" y="635" on="0"/>
        <pt x="808" y="564" on="1"/>
        <pt x="688" y="489" on="1"/>
        <pt x="666" y="531" on="0"/>
        <pt x="572" y="580" on="0"/>
        <pt x="514" y="580" on="1"/>
        <pt x="447" y="580" on="0"/>
        <pt x="336" y="512" on="0"/>
        <pt x="303" y="455" on="1"/>
        <pt x="554" y="455" on="1"/>
        <pt x="506" y="376" on="1"/>
        <pt x="271" y="376" on="1"/>
        <pt x="268" y="363" on="0"/>
        <pt x="264" y="336" on="0"/>
        <pt x="263" y="323" on="1"/>
      </contour>
    </TTGlyph>
    <TTGlyph name="F" xMin="1" yMin="0" xMax="695" yMax="700">
      <contour>
        <pt x="1" y="0" on="1"/>
        <pt x="150" y="700" on="1"/>
        <pt x="695" y="700" on="1"/>
        <pt x="663" y="551" on="1"/>
        <pt x="286" y="551" on="1"/>
        <pt x="258" y="420" on="1"/>
        <pt x="509" y="420" on="1"/>
        <pt x="479" y="276" on="1"/>
        <pt x="228" y="276" on="1"/>
        <pt x="169" y="0" on="1"/>
      </contour>
    </TTGlyph>
    <TTGlyph name="G" xMin="47" yMin="-14" xMax="776" yMax="708">
      <contour>
        <pt x="762" y="328" on="1"/>
        <pt x="748" y="253" on="0"/>
        <pt x="678" y="127" on="0"/>
        <pt x="578" y="37" on="0"/>
        <pt x="451" y="-14" on="0"/>
        <pt x="381" y="-14" on="1"/>
        <pt x="309" y="-14" on="0"/>
        <pt x="186" y="35" on="0"/>
        <pt x="98" y="120" on="0"/>
        <pt x="47" y="239" on="0"/>
        <pt x="47" y="308" on="1"/>
        <pt x="47" y="389" on="0"/>
        <pt x="112" y="535" on="0"/>
        <pt x="221" y="644" on="0"/>
        <pt x="367" y="708" on="0"/>
        <pt x="448" y="708" on="1"/>
        <pt x="539" y="708" on="0"/>
        <pt x="694" y="628" on="0"/>
        <pt x="736" y="560" on="1"/>
        <pt x="604" y="450" on="1"/>
        <pt x="578" y="498" on="0"/>
        <pt x="488" y="550" on="0"/>
        <pt x="434" y="550" on="1"/>
        <pt x="390" y="550" on="0"/>
        <pt x="312" y="514" on="0"/>
        <pt x="255" y="451" on="0"/>
        <pt x="221" y="367" on="0"/>
        <pt x="221" y="319" on="1"/>
        <pt x="221" y="242" on="0"/>
        <pt x="320" y="142" on="0"/>
        <pt x="398" y="142" on="1"/>
        <pt x="456" y="142" on="0"/>
        <pt x="549" y="205" on="0"/>
        <pt x="567" y="256" on="1"/>
        <pt x="380" y="256" on="1"/>
        <pt x="412" y="404" on="1"/>
        <pt x="776" y="404" on="1"/>
      </contour>
    </TTGlyph>
    <TTGlyph name="Gbreve" xMin="47" yMin="-14" xMax="776" yMax="944">
      <component glyphName="G" x="0" y="0" flags="0x204"/>
      <component glyphName="breve" x="146" y="172" flags="0x4"/>
    </TTGlyph>
    <TTGlyph name="Gcircumflex" xMin="47" yMin="-14" xMax="776" yMax="922">
      <component glyphName="G" x="0" y="0" flags="0x204"/>
      <component glyphName="circumflex" x="144" y="172" flags="0x4"/>
    </TTGlyph>
    <TTGlyph name="Gcommaaccent" xMin="47" yMin="-295" xMax="776" yMax="708">
      <component glyphName="G" x="0" y="0" flags="0x204"/>
      <component glyphName="commaaccent" x="322" y="0" flags="0x4"/>
    </TTGlyph>
    <TTGlyph name="Gdotaccent" xMin="47" yMin="-14" xMax="776" yMax="938">
      <component glyphName="G" x="0" y="0" flags="0x204"/>
      <component glyphName="dotaccent" x="252" y="172" flags="0x4"/>
    </TTGlyph>
    <TTGlyph name="H" xMin="1" yMin="0" xMax="769" yMax="700">
      <contour>
        <pt x="1" y="0" on="1"/>
        <pt x="150" y="700" on="1"/>
        <pt x="318" y="700" on="1"/>
        <pt x="261" y="431" on="1"/>
        <pt x="544" y="431" on="1"/>
        <pt x="601" y="700" on="1"/>
        <pt x="769" y="700" on="1"/>
        <pt x="620" y="0" on="1"/>
        <pt x="452" y="0" on="1"/>
        <pt x="510" y="274" on="1"/>
        <pt x="227" y="274" on="1"/>
        <pt x="169" y="0" on="1"/>
      </contour>
    </TTGlyph>
    <TTGlyph name="Hbar" xMin="18" yMin="0" xMax="836" yMax="700">
      <contour>
        <pt x="18" y="0" on="1"/>
        <pt x="122" y="489" on="1"/>
        <pt x="56" y="489" on="1"/>
        <pt x="84" y="624" on="1"/>
        <pt x="151" y="624" on="1"/>
        <pt x="167" y="700" on="1"/>
        <pt x="335" y="700" on="1"/>
        <pt x="319" y="624" on="1"/>
        <pt x="602" y="624" on="1"/>
        <pt x="618" y="700" on="1"/>
        <pt x="786" y="700" on="1"/>
        <pt x="770" y="624" on="1"/>
        <pt x="836" y="624" on="1"/>
        <pt x="808" y="489" on="1"/>
        <pt x="741" y="489" on="1"/>
        <pt x="637" y="0" on="1"/>
        <pt x="469" y="0" on="1"/>
        <pt x="527" y="274" on="1"/>
        <pt x="244" y="274" on="1"/>
        <pt x="186" y="0" on="1"/>
      </contour>
      <contour>
        <pt x="278" y="431" on="1"/>
        <pt x="561" y="431" on="1"/>
        <pt x="573" y="489" on="1"/>
        <pt x="290" y="489" on="1"/>
      </contour>
    </TTGlyph>
    <TTGlyph name="Hcircumflex" xMin="1" yMin="0" xMax="769" yMax="921">
      <component glyphName="H" x="0" y="0" flags="0x204"/>
      <component glyphName="circumflex" x="149" y="171" flags="0x4"/>
    </TTGlyph>
    <TTGlyph name="I" xMin="1" yMin="0" xMax="318" yMax="700">
      <contour>
        <pt x="1" y="0" on="1"/>
        <pt x="150" y="700" on="1"/>
        <pt x="318" y="700" on="1"/>
        <pt x="169" y="0" on="1"/>
      </contour>
    </TTGlyph>
    <TTGlyph name="IJ" xMin="1" yMin="-9" xMax="974" yMax="700">
      <component glyphName="I" x="0" y="0" flags="0x4"/>
      <component glyphName="J" x="282" y="0" flags="0x4"/>
    </TTGlyph>
    <TTGlyph name="Iacute" xMin="1" yMin="0" xMax="471" yMax="918">
      <component glyphName="I" x="0" y="0" flags="0x204"/>
      <component glyphName="acute" x="-43" y="171" flags="0x4"/>
    </TTGlyph>
    <TTGlyph name="Ibreve" xMin="1" yMin="0" xMax="454" yMax="943">
      <component glyphName="I" x="0" y="0" flags="0x204"/>
      <component glyphName="breve" x="-75" y="171" flags="0x4"/>
    </TTGlyph>
    <TTGlyph name="Icircumflex" xMin="1" yMin="0" xMax="447" yMax="921">
      <component glyphName="I" x="0" y="0" flags="0x204"/>
      <component glyphName="circumflex" x="-77" y="171" flags="0x4"/>
    </TTGlyph>
    <TTGlyph name="Idieresis" xMin="1" yMin="0" xMax="465" yMax="937">
      <component glyphName="I" x="0" y="0" flags="0x204"/>
      <component glyphName="dieresis" x="-120" y="171" flags="0x4"/>
    </TTGlyph>
    <TTGlyph name="Idotaccent" xMin="1" yMin="0" xMax="353" yMax="937">
      <component glyphName="I" x="0" y="0" flags="0x204"/>
      <component glyphName="dotaccent" x="31" y="171" flags="0x4"/>
    </TTGlyph>
    <TTGlyph name="Igrave" xMin="1" yMin="0" xMax="318" yMax="918">
      <component glyphName="I" x="0" y="0" flags="0x204"/>
      <component glyphName="grave" x="-105" y="171" flags="0x4"/>
    </TTGlyph>
    <TTGlyph name="Imacron" xMin="1" yMin="0" xMax="444" yMax="899">
      <component glyphName="I" x="0" y="0" flags="0x204"/>
      <component glyphName="macron" x="-75" y="171" flags="0x4"/>
    </TTGlyph>
    <TTGlyph name="Iogonek" xMin="-31" yMin="-221" xMax="318" yMax="700">
      <contour>
        <pt x="1" y="0" on="1"/>
        <pt x="150" y="700" on="1"/>
        <pt x="318" y="700" on="1"/>
        <pt x="169" y="0" on="1"/>
        <pt x="117" y="-28" on="0"/>
        <pt x="65" y="-81" on="0"/>
        <pt x="65" y="-108" on="1"/>
        <pt x="65" y="-123" on="0"/>
        <pt x="85" y="-139" on="0"/>
        <pt x="103" y="-139" on="1"/>
        <pt x="113" y="-139" on="0"/>
        <pt x="133" y="-133" on="0"/>
        <pt x="141" y="-128" on="1"/>
        <pt x="147" y="-198" on="1"/>
        <pt x="128" y="-209" on="0"/>
        <pt x="80" y="-221" on="0"/>
        <pt x="57" y="-221" on="1"/>
        <pt x="17" y="-221" on="0"/>
        <pt x="-31" y="-182" on="0"/>
        <pt x="-31" y="-148" on="1"/>
        <pt x="-31" y="-107" on="0"/>
        <pt x="27" y="-33" on="0"/>
        <pt x="84" y="0" on="1"/>
      </contour>
    </TTGlyph>
    <TTGlyph name="Itilde" xMin="1" yMin="0" xMax="477" yMax="927">
      <component glyphName="I" x="0" y="0" flags="0x204"/>
      <component glyphName="tilde" x="-72" y="171" flags="0x4"/>
    </TTGlyph>
    <TTGlyph name="J" xMin="15" yMin="-9" xMax="692" yMax="700">
      <contour>
        <pt x="594" y="245" on="1"/>
        <pt x="569" y="129" on="0"/>
        <pt x="402" y="-9" on="0"/>
        <pt x="289" y="-9" on="1"/>
        <pt x="173" y="-9" on="0"/>
        <pt x="29" y="109" on="0"/>
        <pt x="15" y="217" on="1"/>
        <pt x="173" y="271" on="1"/>
        <pt x="180" y="208" on="0"/>
        <pt x="235" y="146" on="0"/>
        <pt x="285" y="146" on="1"/>
        <pt x="339" y="146" on="0"/>
        <pt x="419" y="218" on="0"/>
        <pt x="432" y="276" on="1"/>
        <pt x="521" y="700" on="1"/>
        <pt x="692" y="700" on="1"/>
      </contour>
    </TTGlyph>
    <TTGlyph name="Jcircumflex" xMin="15" yMin="-9" xMax="822" yMax="921">
      <component glyphName="J" x="0" y="0" flags="0x204"/>
      <component glyphName="circumflex" x="298" y="171" flags="0x4"/>
    </TTGlyph>
    <TTGlyph name="K" xMin="1" yMin="0" xMax="806" yMax="700">
      <contour>
        <pt x="1" y="0" on="1"/>
        <pt x="150" y="700" on="1"/>
        <pt x="318" y="700" on="1"/>
        <pt x="255" y="406" on="1"/>
        <pt x="588" y="700" on="1"/>
        <pt x="806" y="700" on="1"/>
        <pt x="410" y="364" on="1"/>
        <pt x="662" y="0" on="1"/>
        <pt x="450" y="0" on="1"/>
        <pt x="239" y="327" on="1"/>
        <pt x="169" y="0" on="1"/>
      </contour>
    </TTGlyph>
    <TTGlyph name="Kcommaaccent" xMin="1" yMin="-295" xMax="806" yMax="700">
      <component glyphName="K" x="0" y="0" flags="0x204"/>
      <component glyphName="commaaccent" x="231" y="0" flags="0x4"/>
    </TTGlyph>
    <TTGlyph name="L" xMin="1" yMin="0" xMax="563" yMax="700">
      <contour>
        <pt x="1" y="0" on="1"/>
        <pt x="150" y="700" on="1"/>
        <pt x="318" y="700" on="1"/>
        <pt x="201" y="152" on="1"/>
        <pt x="563" y="152" on="1"/>
        <pt x="531" y="0" on="1"/>
      </contour>
    </TTGlyph>
    <TTGlyph name="Lacute" xMin="1" yMin="0" xMax="563" yMax="918">
      <component glyphName="L" x="0" y="0" flags="0x204"/>
      <component glyphName="acute" x="-44" y="171" flags="0x4"/>
    </TTGlyph>
    <TTGlyph name="Lcaron" xMin="1" yMin="0" xMax="638" yMax="723">
      <component glyphName="L" x="0" y="0" flags="0x4"/>
      <component glyphName="caronSlovak" x="322" y="0" flags="0x4"/>
    </TTGlyph>
    <TTGlyph name="Lcommaaccent" xMin="1" yMin="-295" xMax="563" yMax="700">
      <component glyphName="L" x="0" y="0" flags="0x204"/>
      <component glyphName="commaaccent" x="209" y="0" flags="0x4"/>
    </TTGlyph>
    <TTGlyph name="Ldot" xMin="1" yMin="0" xMax="563" yMax="700">
      <component glyphName="L" x="0" y="0" flags="0x4"/>
      <component glyphName="dotaccent" x="240" y="-310" flags="0x4"/>
    </TTGlyph>
    <TTGlyph name="Lslash" xMin="-12" yMin="0" xMax="593" yMax="700">
      <contour>
        <pt x="31" y="0" on="1"/>
        <pt x="73" y="199" on="1"/>
        <pt x="-12" y="154" on="1"/>
        <pt x="18" y="296" on="1"/>
        <pt x="104" y="341" on="1"/>
        <pt x="180" y="700" on="1"/>
        <pt x="348" y="700" on="1"/>
        <pt x="293" y="441" on="1"/>
        <pt x="487" y="543" on="1"/>
        <pt x="457" y="401" on="1"/>
        <pt x="263" y="299" on="1"/>
        <pt x="231" y="152" on="1"/>
        <pt x="593" y="152" on="1"/>
        <pt x="561" y="0" on="1"/>
      </contour>
    </TTGlyph>
    <TTGlyph name="M" xMin="1" yMin="0" xMax="914" yMax="700">
      <contour>
        <pt x="397" y="50" on="1"/>
        <pt x="261" y="479" on="1"/>
        <pt x="160" y="0" on="1"/>
        <pt x="1" y="0" on="1"/>
        <pt x="150" y="700" on="1"/>
        <pt x="358" y="700" on="1"/>
        <pt x="457" y="371" on="1"/>
        <pt x="697" y="700" on="1"/>
        <pt x="914" y="700" on="1"/>
        <pt x="765" y="0" on="1"/>
        <pt x="610" y="0" on="1"/>
        <pt x="711" y="476" on="1"/>
      </contour>
    </TTGlyph>
    <TTGlyph name="N" xMin="1" yMin="0" xMax="779" yMax="700">
      <contour>
        <pt x="150" y="700" on="1"/>
        <pt x="309" y="700" on="1"/>
        <pt x="531" y="279" on="1"/>
        <pt x="620" y="700" on="1"/>
        <pt x="779" y="700" on="1"/>
        <pt x="630" y="0" on="1"/>
        <pt x="481" y="0" on="1"/>
        <pt x="253" y="437" on="1"/>
        <pt x="160" y="0" on="1"/>
        <pt x="1" y="0" on="1"/>
      </contour>
    </TTGlyph>
    <TTGlyph name="Nacute" xMin="1" yMin="0" xMax="779" yMax="918">
      <component glyphName="N" x="0" y="0" flags="0x204"/>
      <component glyphName="acute" x="187" y="171" flags="0x4"/>
    </TTGlyph>
    <TTGlyph name="Ncaron" xMin="1" yMin="0" xMax="779" yMax="921">
      <component glyphName="N" x="0" y="0" flags="0x204"/>
      <component glyphName="caron" x="155" y="171" flags="0x4"/>
    </TTGlyph>
    <TTGlyph name="Ncommaaccent" xMin="1" yMin="-295" xMax="779" yMax="700">
      <component glyphName="N" x="0" y="0" flags="0x204"/>
      <component glyphName="commaaccent" x="235" y="0" flags="0x4"/>
    </TTGlyph>
    <TTGlyph name="Ntilde" xMin="1" yMin="0" xMax="779" yMax="927">
      <component glyphName="N" x="0" y="0" flags="0x204"/>
      <component glyphName="tilde" x="158" y="171" flags="0x4"/>
    </TTGlyph>
    <TTGlyph name="O" xMin="51" yMin="-11" xMax="785" yMax="711">
      <contour>
        <pt x="785" y="380" on="1"/>
        <pt x="785" y="300" on="0"/>
        <pt x="723" y="157" on="0"/>
        <pt x="616" y="51" on="0"/>
        <pt x="473" y="-11" on="0"/>
        <pt x="392" y="-11" on="1"/>
        <pt x="319" y="-11" on="0"/>
        <pt x="194" y="39" on="0"/>
        <pt x="103" y="127" on="0"/>
        <pt x="51" y="249" on="0"/>
        <pt x="51" y="320" on="1"/>
        <pt x="51" y="400" on="0"/>
        <pt x="113" y="543" on="0"/>
        <pt x="220" y="649" on="0"/>
        <pt x="363" y="711" on="0"/>
        <pt x="444" y="711" on="1"/>
        <pt x="517" y="711" on="0"/>
        <pt x="642" y="661" on="0"/>
        <pt x="733" y="573" on="0"/>
        <pt x="785" y="451" on="0"/>
      </contour>
      <contour>
        <pt x="612" y="369" on="1"/>
        <pt x="612" y="448" on="0"/>
        <pt x="511" y="553" on="0"/>
        <pt x="433" y="553" on="1"/>
        <pt x="390" y="553" on="0"/>
        <pt x="313" y="518" on="0"/>
        <pt x="257" y="458" on="0"/>
        <pt x="224" y="377" on="0"/>
        <pt x="224" y="331" on="1"/>
        <pt x="224" y="252" on="0"/>
        <pt x="325" y="147" on="0"/>
        <pt x="403" y="147" on="1"/>
        <pt x="446" y="147" on="0"/>
        <pt x="523" y="182" on="0"/>
        <pt x="579" y="242" on="0"/>
        <pt x="612" y="323" on="0"/>
      </contour>
    </TTGlyph>
    <TTGlyph name="OE" xMin="50" yMin="0" xMax="1152" yMax="701">
      <contour>
        <pt x="392" y="0" on="1"/>
        <pt x="319" y="0" on="0"/>
        <pt x="193" y="49" on="0"/>
        <pt x="102" y="136" on="0"/>
        <pt x="50" y="254" on="0"/>
        <pt x="50" y="323" on="1"/>
        <pt x="50" y="400" on="0"/>
        <pt x="112" y="538" on="0"/>
        <pt x="217" y="641" on="0"/>
        <pt x="359" y="701" on="0"/>
        <pt x="438" y="701" on="1"/>
        <pt x="445" y="701" on="0"/>
        <pt x="459" y="701" on="0"/>
        <pt x="466" y="700" on="1"/>
        <pt x="1152" y="700" on="1"/>
        <pt x="1121" y="551" on="1"/>
        <pt x="727" y="551" on="1"/>
        <pt x="745" y="523" on="0"/>
        <pt x="769" y="459" on="0"/>
        <pt x="774" y="425" on="1"/>
        <pt x="971" y="425" on="1"/>
        <pt x="940" y="281" on="1"/>
        <pt x="764" y="281" on="1"/>
        <pt x="754" y="245" on="0"/>
        <pt x="720" y="178" on="0"/>
        <pt x="697" y="149" on="1"/>
        <pt x="1035" y="149" on="1"/>
        <pt x="1004" y="0" on="1"/>
      </contour>
      <contour>
        <pt x="403" y="157" on="1"/>
        <pt x="444" y="157" on="0"/>
        <pt x="517" y="190" on="0"/>
        <pt x="571" y="247" on="0"/>
        <pt x="603" y="324" on="0"/>
        <pt x="603" y="367" on="1"/>
        <pt x="603" y="442" on="0"/>
        <pt x="502" y="543" on="0"/>
        <pt x="427" y="543" on="1"/>
        <pt x="385" y="543" on="0"/>
        <pt x="311" y="510" on="0"/>
        <pt x="256" y="453" on="0"/>
        <pt x="224" y="376" on="0"/>
        <pt x="224" y="333" on="1"/>
        <pt x="224" y="257" on="0"/>
        <pt x="326" y="157" on="0"/>
      </contour>
    </TTGlyph>
    <TTGlyph name="Oacute" xMin="51" yMin="-11" xMax="785" yMax="918">
      <component glyphName="O" x="0" y="0" flags="0x204"/>
      <component glyphName="acute" x="173" y="171" flags="0x4"/>
    </TTGlyph>
    <TTGlyph name="Obreve" xMin="51" yMin="-11" xMax="785" yMax="943">
      <component glyphName="O" x="0" y="0" flags="0x204"/>
      <component glyphName="breve" x="141" y="171" flags="0x4"/>
    </TTGlyph>
    <TTGlyph name="Ocircumflex" xMin="51" yMin="-11" xMax="785" yMax="921">
      <component glyphName="O" x="0" y="0" flags="0x204"/>
      <component glyphName="circumflex" x="139" y="171" flags="0x4"/>
    </TTGlyph>
    <TTGlyph name="Odieresis" xMin="51" yMin="-11" xMax="785" yMax="937">
      <component glyphName="O" x="0" y="0" flags="0x204"/>
      <component glyphName="dieresis" x="96" y="171" flags="0x4"/>
    </TTGlyph>
    <TTGlyph name="Ograve" xMin="51" yMin="-11" xMax="785" yMax="918">
      <component glyphName="O" x="0" y="0" flags="0x204"/>
      <component glyphName="grave" x="111" y="171" flags="0x4"/>
    </TTGlyph>
    <TTGlyph name="Ohungarumlaut" xMin="51" yMin="-11" xMax="793" yMax="917">
      <component glyphName="O" x="0" y="0" flags="0x204"/>
      <component glyphName="hungarumlaut" x="149" y="171" flags="0x4"/>
    </TTGlyph>
    <TTGlyph name="Omacron" xMin="51" yMin="-11" xMax="785" yMax="899">
      <component glyphName="O" x="0" y="0" flags="0x204"/>
      <component glyphName="macron" x="141" y="171" flags="0x4"/>
    </TTGlyph>
    <TTGlyph name="Oslash" xMin="-14" yMin="-11" xMax="849" yMax="711">
      <contour>
        <pt x="138" y="0" on="1"/>
        <pt x="-14" y="0" on="1"/>
        <pt x="112" y="125" on="1"/>
        <pt x="83" y="165" on="0"/>
        <pt x="51" y="265" on="0"/>
        <pt x="51" y="320" on="1"/>
        <pt x="51" y="400" on="0"/>
        <pt x="113" y="543" on="0"/>
        <pt x="220" y="649" on="0"/>
        <pt x="363" y="711" on="0"/>
        <pt x="444" y="711" on="1"/>
        <pt x="501" y="711" on="0"/>
        <pt x="604" y="679" on="0"/>
        <pt x="646" y="651" on="1"/>
        <pt x="696" y="700" on="1"/>
        <pt x="849" y="700" on="1"/>
        <pt x="723" y="576" on="1"/>
        <pt x="752" y="536" on="0"/>
        <pt x="785" y="436" on="0"/>
        <pt x="785" y="380" on="1"/>
        <pt x="785" y="300" on="0"/>
        <pt x="723" y="157" on="0"/>
        <pt x="616" y="51" on="0"/>
        <pt x="473" y="-11" on="0"/>
        <pt x="392" y="-11" on="1"/>
        <pt x="335" y="-11" on="0"/>
        <pt x="231" y="21" on="0"/>
        <pt x="189" y="50" on="1"/>
      </contour>
      <contour>
        <pt x="224" y="331" on="1"/>
        <pt x="224" y="309" on="0"/>
        <pt x="233" y="269" on="0"/>
        <pt x="240" y="251" on="1"/>
        <pt x="524" y="530" on="1"/>
        <pt x="504" y="541" on="0"/>
        <pt x="458" y="553" on="0"/>
        <pt x="433" y="553" on="1"/>
        <pt x="390" y="553" on="0"/>
        <pt x="313" y="518" on="0"/>
        <pt x="257" y="458" on="0"/>
        <pt x="224" y="377" on="0"/>
      </contour>
      <contour>
        <pt x="612" y="369" on="1"/>
        <pt x="612" y="391" on="0"/>
        <pt x="603" y="432" on="0"/>
        <pt x="595" y="450" on="1"/>
        <pt x="311" y="171" on="1"/>
        <pt x="331" y="159" on="0"/>
        <pt x="378" y="147" on="0"/>
        <pt x="403" y="147" on="1"/>
        <pt x="446" y="147" on="0"/>
        <pt x="523" y="182" on="0"/>
        <pt x="579" y="242" on="0"/>
        <pt x="612" y="323" on="0"/>
      </contour>
    </TTGlyph>
    <TTGlyph name="Otilde" xMin="51" yMin="-11" xMax="785" yMax="927">
      <component glyphName="O" x="0" y="0" flags="0x204"/>
      <component glyphName="tilde" x="144" y="171" flags="0x4"/>
    </TTGlyph>
    <TTGlyph name="P" xMin="1" yMin="0" xMax="697" yMax="700">
      <contour>
        <pt x="1" y="0" on="1"/>
        <pt x="150" y="700" on="1"/>
        <pt x="476" y="700" on="1"/>
        <pt x="574" y="700" on="0"/>
        <pt x="697" y="584" on="0"/>
        <pt x="697" y="493" on="1"/>
        <pt x="697" y="443" on="0"/>
        <pt x="655" y="354" on="0"/>
        <pt x="584" y="289" on="0"/>
        <pt x="487" y="251" on="0"/>
        <pt x="432" y="251" on="1"/>
        <pt x="222" y="251" on="1"/>
        <pt x="169" y="0" on="1"/>
      </contour>
      <contour>
        <pt x="446" y="553" on="1"/>
        <pt x="287" y="553" on="1"/>
        <pt x="253" y="393" on="1"/>
        <pt x="429" y="393" on="1"/>
        <pt x="470" y="393" on="0"/>
        <pt x="525" y="442" on="0"/>
        <pt x="525" y="479" on="1"/>
        <pt x="525" y="513" on="0"/>
        <pt x="482" y="553" on="0"/>
      </contour>
    </TTGlyph>
    <TTGlyph name="Q" xMin="51" yMin="-39" xMax="785" yMax="711">
      <contour>
        <pt x="785" y="380" on="1"/>
        <pt x="785" y="290" on="0"/>
        <pt x="707" y="132" on="0"/>
        <pt x="641" y="78" on="1"/>
        <pt x="694" y="-17" on="1"/>
        <pt x="541" y="-39" on="1"/>
        <pt x="514" y="9" on="1"/>
        <pt x="486" y="-1" on="0"/>
        <pt x="424" y="-11" on="0"/>
        <pt x="392" y="-11" on="1"/>
        <pt x="319" y="-11" on="0"/>
        <pt x="194" y="39" on="0"/>
        <pt x="103" y="127" on="0"/>
        <pt x="51" y="249" on="0"/>
        <pt x="51" y="320" on="1"/>
        <pt x="51" y="400" on="0"/>
        <pt x="113" y="543" on="0"/>
        <pt x="220" y="649" on="0"/>
        <pt x="363" y="711" on="0"/>
        <pt x="444" y="711" on="1"/>
        <pt x="517" y="711" on="0"/>
        <pt x="642" y="661" on="0"/>
        <pt x="733" y="573" on="0"/>
        <pt x="785" y="451" on="0"/>
      </contour>
      <contour>
        <pt x="531" y="272" on="1"/>
        <pt x="559" y="221" on="1"/>
        <pt x="584" y="251" on="0"/>
        <pt x="612" y="326" on="0"/>
        <pt x="612" y="369" on="1"/>
        <pt x="612" y="448" on="0"/>
        <pt x="511" y="553" on="0"/>
        <pt x="433" y="553" on="1"/>
        <pt x="390" y="553" on="0"/>
        <pt x="313" y="518" on="0"/>
        <pt x="257" y="458" on="0"/>
        <pt x="224" y="377" on="0"/>
        <pt x="224" y="331" on="1"/>
        <pt x="224" y="252" on="0"/>
        <pt x="325" y="147" on="0"/>
        <pt x="403" y="147" on="1"/>
        <pt x="411" y="147" on="0"/>
        <pt x="428" y="149" on="0"/>
        <pt x="435" y="150" on="1"/>
        <pt x="379" y="250" on="1"/>
      </contour>
    </TTGlyph>
    <TTGlyph name="R" xMin="1" yMin="0" xMax="697" yMax="700">
      <contour>
        <pt x="1" y="0" on="1"/>
        <pt x="150" y="700" on="1"/>
        <pt x="476" y="700" on="1"/>
        <pt x="574" y="700" on="0"/>
        <pt x="697" y="587" on="0"/>
        <pt x="697" y="497" on="1"/>
        <pt x="697" y="418" on="0"/>
        <pt x="596" y="294" on="0"/>
        <pt x="518" y="270" on="1"/>
        <pt x="625" y="0" on="1"/>
        <pt x="447" y="0" on="1"/>
        <pt x="356" y="257" on="1"/>
        <pt x="224" y="257" on="1"/>
        <pt x="169" y="0" on="1"/>
      </contour>
      <contour>
        <pt x="446" y="553" on="1"/>
        <pt x="287" y="553" on="1"/>
        <pt x="254" y="397" on="1"/>
        <pt x="429" y="397" on="1"/>
        <pt x="470" y="397" on="0"/>
        <pt x="525" y="445" on="0"/>
        <pt x="525" y="481" on="1"/>
        <pt x="525" y="514" on="0"/>
        <pt x="482" y="553" on="0"/>
      </contour>
    </TTGlyph>
    <TTGlyph name="Racute" xMin="1" yMin="0" xMax="697" yMax="918">
      <component glyphName="R" x="0" y="0" flags="0x204"/>
      <component glyphName="acute" x="148" y="171" flags="0x4"/>
    </TTGlyph>
    <TTGlyph name="Rcaron" xMin="1" yMin="0" xMax="697" yMax="921">
      <component glyphName="R" x="0" y="0" flags="0x204"/>
      <component glyphName="caron" x="116" y="171" flags="0x4"/>
    </TTGlyph>
    <TTGlyph name="Rcommaaccent" xMin="1" yMin="-295" xMax="697" yMax="700">
      <component glyphName="R" x="0" y="0" flags="0x204"/>
      <component glyphName="commaaccent" x="216" y="0" flags="0x4"/>
    </TTGlyph>
    <TTGlyph name="S" xMin="-16" yMin="-10" xMax="645" yMax="710">
      <contour>
        <pt x="-16" y="129" on="1"/>
        <pt x="94" y="247" on="1"/>
        <pt x="151" y="188" on="0"/>
        <pt x="264" y="133" on="0"/>
        <pt x="328" y="133" on="1"/>
        <pt x="380" y="133" on="0"/>
        <pt x="440" y="171" on="0"/>
        <pt x="440" y="205" on="1"/>
        <pt x="440" y="228" on="0"/>
        <pt x="401" y="258" on="0"/>
        <pt x="355" y="270" on="1"/>
        <pt x="209" y="308" on="1"/>
        <pt x="137" y="327" on="0"/>
        <pt x="60" y="419" on="0"/>
        <pt x="60" y="485" on="1"/>
        <pt x="60" y="589" on="0"/>
        <pt x="209" y="710" on="0"/>
        <pt x="336" y="710" on="1"/>
        <pt x="423" y="710" on="0"/>
        <pt x="588" y="646" on="0"/>
        <pt x="645" y="589" on="1"/>
        <pt x="539" y="469" on="1"/>
        <pt x="488" y="519" on="0"/>
        <pt x="381" y="567" on="0"/>
        <pt x="321" y="567" on="1"/>
        <pt x="275" y="567" on="0"/>
        <pt x="221" y="533" on="0"/>
        <pt x="221" y="505" on="1"/>
        <pt x="221" y="483" on="0"/>
        <pt x="256" y="455" on="0"/>
        <pt x="296" y="445" on="1"/>
        <pt x="433" y="412" on="1"/>
        <pt x="518" y="392" on="0"/>
        <pt x="608" y="298" on="0"/>
        <pt x="608" y="229" on="1"/>
        <pt x="608" y="175" on="0"/>
        <pt x="566" y="86" on="0"/>
        <pt x="490" y="24" on="0"/>
        <pt x="380" y="-10" on="0"/>
        <pt x="314" y="-10" on="1"/>
        <pt x="216" y="-10" on="0"/>
        <pt x="46" y="62" on="0"/>
      </contour>
    </TTGlyph>
    <TTGlyph name="Sacute" xMin="-16" yMin="-10" xMax="645" yMax="918">
      <component glyphName="S" x="0" y="0" flags="0x204"/>
      <component glyphName="acute" x="73" y="171" flags="0x4"/>
    </TTGlyph>
    <TTGlyph name="Scaron" xMin="-16" yMin="-10" xMax="645" yMax="921">
      <component glyphName="S" x="0" y="0" flags="0x204"/>
      <component glyphName="caron" x="41" y="171" flags="0x4"/>
    </TTGlyph>
    <TTGlyph name="Scedilla" xMin="-16" yMin="-238" xMax="645" yMax="710">
      <contour>
        <pt x="-16" y="129" on="1"/>
        <pt x="94" y="247" on="1"/>
        <pt x="151" y="188" on="0"/>
        <pt x="264" y="133" on="0"/>
        <pt x="328" y="133" on="1"/>
        <pt x="380" y="133" on="0"/>
        <pt x="440" y="171" on="0"/>
        <pt x="440" y="205" on="1"/>
        <pt x="440" y="228" on="0"/>
        <pt x="401" y="258" on="0"/>
        <pt x="355" y="270" on="1"/>
        <pt x="209" y="308" on="1"/>
        <pt x="137" y="327" on="0"/>
        <pt x="60" y="419" on="0"/>
        <pt x="60" y="485" on="1"/>
        <pt x="60" y="589" on="0"/>
        <pt x="209" y="710" on="0"/>
        <pt x="336" y="710" on="1"/>
        <pt x="423" y="710" on="0"/>
        <pt x="588" y="646" on="0"/>
        <pt x="645" y="589" on="1"/>
        <pt x="539" y="469" on="1"/>
        <pt x="488" y="519" on="0"/>
        <pt x="381" y="567" on="0"/>
        <pt x="321" y="567" on="1"/>
        <pt x="275" y="567" on="0"/>
        <pt x="221" y="533" on="0"/>
        <pt x="221" y="505" on="1"/>
        <pt x="221" y="483" on="0"/>
        <pt x="256" y="455" on="0"/>
        <pt x="296" y="445" on="1"/>
        <pt x="433" y="412" on="1"/>
        <pt x="518" y="392" on="0"/>
        <pt x="608" y="298" on="0"/>
        <pt x="608" y="229" on="1"/>
        <pt x="608" y="125" on="0"/>
        <pt x="457" y="-6" on="0"/>
        <pt x="332" y="-10" on="1"/>
        <pt x="314" y="-44" on="1"/>
        <pt x="350" y="-51" on="0"/>
        <pt x="390" y="-93" on="0"/>
        <pt x="390" y="-126" on="1"/>
        <pt x="390" y="-172" on="0"/>
        <pt x="305" y="-238" on="0"/>
        <pt x="245" y="-238" on="1"/>
        <pt x="204" y="-238" on="0"/>
        <pt x="141" y="-213" on="0"/>
        <pt x="116" y="-185" on="1"/>
        <pt x="173" y="-133" on="1"/>
        <pt x="188" y="-149" on="0"/>
        <pt x="227" y="-165" on="0"/>
        <pt x="249" y="-165" on="1"/>
        <pt x="271" y="-165" on="0"/>
        <pt x="299" y="-146" on="0"/>
        <pt x="299" y="-130" on="1"/>
        <pt x="299" y="-115" on="0"/>
        <pt x="275" y="-97" on="0"/>
        <pt x="255" y="-97" on="1"/>
        <pt x="212" y="-97" on="1"/>
        <pt x="258" y="-7" on="1"/>
        <pt x="177" y="2" on="0"/>
        <pt x="37" y="72" on="0"/>
      </contour>
    </TTGlyph>
    <TTGlyph name="Scircumflex" xMin="-16" yMin="-10" xMax="645" yMax="921">
      <component glyphName="S" x="0" y="0" flags="0x204"/>
      <component glyphName="circumflex" x="39" y="171" flags="0x4"/>
    </TTGlyph>
    <TTGlyph name="Scommaaccent" xMin="-16" yMin="-295" xMax="645" yMax="710">
      <component glyphName="S" x="0" y="0" flags="0x204"/>
      <component glyphName="commaaccent" x="221" y="0" flags="0x4"/>
    </TTGlyph>
    <TTGlyph name="T" xMin="78" yMin="0" xMax="728" yMax="700">
      <contour>
        <pt x="78" y="548" on="1"/>
        <pt x="111" y="700" on="1"/>
        <pt x="728" y="700" on="1"/>
        <pt x="695" y="548" on="1"/>
        <pt x="472" y="548" on="1"/>
        <pt x="355" y="0" on="1"/>
        <pt x="186" y="0" on="1"/>
        <pt x="303" y="548" on="1"/>
      </contour>
    </TTGlyph>
    <TTGlyph name="Tbar" xMin="78" yMin="0" xMax="728" yMax="700">
      <contour>
        <pt x="138" y="404" on="1"/>
        <pt x="272" y="404" on="1"/>
        <pt x="303" y="548" on="1"/>
        <pt x="78" y="548" on="1"/>
        <pt x="111" y="700" on="1"/>
        <pt x="728" y="700" on="1"/>
        <pt x="695" y="548" on="1"/>
        <pt x="472" y="548" on="1"/>
        <pt x="441" y="404" on="1"/>
        <pt x="575" y="404" on="1"/>
        <pt x="547" y="269" on="1"/>
        <pt x="412" y="269" on="1"/>
        <pt x="355" y="0" on="1"/>
        <pt x="186" y="0" on="1"/>
        <pt x="243" y="269" on="1"/>
        <pt x="110" y="269" on="1"/>
      </contour>
    </TTGlyph>
    <TTGlyph name="Tcaron" xMin="78" yMin="0" xMax="728" yMax="921">
      <component glyphName="T" x="0" y="0" flags="0x204"/>
      <component glyphName="caron" x="110" y="171" flags="0x4"/>
    </TTGlyph>
    <TTGlyph name="Tcedilla" xMin="78" yMin="-238" xMax="728" yMax="700">
      <contour>
        <pt x="78" y="548" on="1"/>
        <pt x="111" y="700" on="1"/>
        <pt x="728" y="700" on="1"/>
        <pt x="695" y="548" on="1"/>
        <pt x="472" y="548" on="1"/>
        <pt x="355" y="0" on="1"/>
        <pt x="306" y="0" on="1"/>
        <pt x="283" y="-44" on="1"/>
        <pt x="319" y="-51" on="0"/>
        <pt x="359" y="-93" on="0"/>
        <pt x="359" y="-126" on="1"/>
        <pt x="359" y="-172" on="0"/>
        <pt x="274" y="-238" on="0"/>
        <pt x="214" y="-238" on="1"/>
        <pt x="173" y="-238" on="0"/>
        <pt x="110" y="-213" on="0"/>
        <pt x="85" y="-185" on="1"/>
        <pt x="142" y="-133" on="1"/>
        <pt x="157" y="-149" on="0"/>
        <pt x="196" y="-165" on="0"/>
        <pt x="218" y="-165" on="1"/>
        <pt x="240" y="-165" on="0"/>
        <pt x="268" y="-146" on="0"/>
        <pt x="268" y="-130" on="1"/>
        <pt x="268" y="-115" on="0"/>
        <pt x="244" y="-97" on="0"/>
        <pt x="224" y="-97" on="1"/>
        <pt x="181" y="-97" on="1"/>
        <pt x="230" y="0" on="1"/>
        <pt x="186" y="0" on="1"/>
        <pt x="303" y="548" on="1"/>
      </contour>
    </TTGlyph>
    <TTGlyph name="Thorn" xMin="2" yMin="0" xMax="640" yMax="700">
      <contour>
        <pt x="2" y="0" on="1"/>
        <pt x="151" y="700" on="1"/>
        <pt x="319" y="700" on="1"/>
        <pt x="292" y="575" on="1"/>
        <pt x="427" y="575" on="1"/>
        <pt x="521" y="575" on="0"/>
        <pt x="640" y="462" on="0"/>
        <pt x="640" y="373" on="1"/>
        <pt x="640" y="321" on="0"/>
        <pt x="600" y="230" on="0"/>
        <pt x="531" y="164" on="0"/>
        <pt x="437" y="126" on="0"/>
        <pt x="383" y="126" on="1"/>
        <pt x="197" y="126" on="1"/>
        <pt x="170" y="0" on="1"/>
      </contour>
      <contour>
        <pt x="395" y="428" on="1"/>
        <pt x="261" y="428" on="1"/>
        <pt x="227" y="268" on="1"/>
        <pt x="378" y="268" on="1"/>
        <pt x="418" y="268" on="0"/>
        <pt x="468" y="319" on="0"/>
        <pt x="468" y="359" on="1"/>
        <pt x="468" y="390" on="0"/>
        <pt x="428" y="428" on="0"/>
      </contour>
    </TTGlyph>
    <TTGlyph name="U" xMin="53" yMin="-9" xMax="764" yMax="700">
      <contour>
        <pt x="673" y="273" on="1"/>
        <pt x="645" y="142" on="0"/>
        <pt x="464" y="-9" on="0"/>
        <pt x="334" y="-9" on="1"/>
        <pt x="257" y="-9" on="0"/>
        <pt x="140" y="41" on="0"/>
        <pt x="69" y="132" on="0"/>
        <pt x="47" y="261" on="0"/>
        <pt x="63" y="338" on="1"/>
        <pt x="140" y="700" on="1"/>
        <pt x="309" y="700" on="1"/>
        <pt x="228" y="320" on="1"/>
        <pt x="212" y="242" on="0"/>
        <pt x="277" y="149" on="0"/>
        <pt x="346" y="149" on="1"/>
        <pt x="406" y="149" on="0"/>
        <pt x="496" y="227" on="0"/>
        <pt x="509" y="290" on="1"/>
        <pt x="596" y="700" on="1"/>
        <pt x="764" y="700" on="1"/>
      </contour>
    </TTGlyph>
    <TTGlyph name="Uacute" xMin="53" yMin="-9" xMax="764" yMax="918">
      <component glyphName="U" x="0" y="0" flags="0x204"/>
      <component glyphName="acute" x="167" y="171" flags="0x4"/>
    </TTGlyph>
    <TTGlyph name="Ubreve" xMin="53" yMin="-9" xMax="764" yMax="943">
      <component glyphName="U" x="0" y="0" flags="0x204"/>
      <component glyphName="breve" x="135" y="171" flags="0x4"/>
    </TTGlyph>
    <TTGlyph name="Ucircumflex" xMin="53" yMin="-9" xMax="764" yMax="921">
      <component glyphName="U" x="0" y="0" flags="0x204"/>
      <component glyphName="circumflex" x="133" y="171" flags="0x4"/>
    </TTGlyph>
    <TTGlyph name="Udieresis" xMin="53" yMin="-9" xMax="764" yMax="937">
      <component glyphName="U" x="0" y="0" flags="0x204"/>
      <component glyphName="dieresis" x="90" y="171" flags="0x4"/>
    </TTGlyph>
    <TTGlyph name="Ugrave" xMin="53" yMin="-9" xMax="764" yMax="918">
      <component glyphName="U" x="0" y="0" flags="0x204"/>
      <component glyphName="grave" x="105" y="171" flags="0x4"/>
    </TTGlyph>
    <TTGlyph name="Uhungarumlaut" xMin="53" yMin="-9" xMax="787" yMax="917">
      <component glyphName="U" x="0" y="0" flags="0x204"/>
      <component glyphName="hungarumlaut" x="143" y="171" flags="0x4"/>
    </TTGlyph>
    <TTGlyph name="Umacron" xMin="53" yMin="-9" xMax="764" yMax="899">
      <component glyphName="U" x="0" y="0" flags="0x204"/>
      <component glyphName="macron" x="135" y="171" flags="0x4"/>
    </TTGlyph>
    <TTGlyph name="Uogonek" xMin="53" yMin="-221" xMax="764" yMax="700">
      <contour>
        <pt x="419" y="0" on="1"/>
        <pt x="367" y="-28" on="0"/>
        <pt x="315" y="-81" on="0"/>
        <pt x="315" y="-108" on="1"/>
        <pt x="315" y="-123" on="0"/>
        <pt x="335" y="-139" on="0"/>
        <pt x="353" y="-139" on="1"/>
        <pt x="363" y="-139" on="0"/>
        <pt x="383" y="-133" on="0"/>
        <pt x="391" y="-128" on="1"/>
        <pt x="397" y="-198" on="1"/>
        <pt x="378" y="-209" on="0"/>
        <pt x="330" y="-221" on="0"/>
        <pt x="307" y="-221" on="1"/>
        <pt x="267" y="-221" on="0"/>
        <pt x="219" y="-182" on="0"/>
        <pt x="219" y="-148" on="1"/>
        <pt x="219" y="-110" on="0"/>
        <pt x="269" y="-40" on="0"/>
        <pt x="319" y="-9" on="1"/>
        <pt x="246" y="-6" on="0"/>
        <pt x="135" y="46" on="0"/>
        <pt x="68" y="137" on="0"/>
        <pt x="47" y="263" on="0"/>
        <pt x="63" y="338" on="1"/>
        <pt x="140" y="700" on="1"/>
        <pt x="309" y="700" on="1"/>
        <pt x="228" y="320" on="1"/>
        <pt x="212" y="242" on="0"/>
        <pt x="277" y="149" on="0"/>
        <pt x="346" y="149" on="1"/>
        <pt x="406" y="149" on="0"/>
        <pt x="496" y="227" on="0"/>
        <pt x="509" y="290" on="1"/>
        <pt x="596" y="700" on="1"/>
        <pt x="764" y="700" on="1"/>
        <pt x="673" y="273" on="1"/>
        <pt x="649" y="164" on="0"/>
        <pt x="516" y="22" on="0"/>
      </contour>
    </TTGlyph>
    <TTGlyph name="Uring" xMin="53" yMin="-9" xMax="764" yMax="1007">
      <component glyphName="U" x="0" y="0" flags="0x204"/>
      <component glyphName="ring" x="135" y="171" flags="0x4"/>
    </TTGlyph>
    <TTGlyph name="Utilde" xMin="53" yMin="-9" xMax="764" yMax="927">
      <component glyphName="U" x="0" y="0" flags="0x204"/>
      <component glyphName="tilde" x="138" y="171" flags="0x4"/>
    </TTGlyph>
    <TTGlyph name="V" xMin="86" yMin="0" xMax="838" yMax="700">
      <contour>
        <pt x="218" y="0" on="1"/>
        <pt x="86" y="700" on="1"/>
        <pt x="262" y="700" on="1"/>
        <pt x="349" y="179" on="1"/>
        <pt x="656" y="700" on="1"/>
        <pt x="838" y="700" on="1"/>
        <pt x="412" y="0" on="1"/>
      </contour>
    </TTGlyph>
    <TTGlyph name="W" xMin="116" yMin="0" xMax="1020" yMax="700">
      <contour>
        <pt x="298" y="0" on="1"/>
        <pt x="120" y="0" on="1"/>
        <pt x="116" y="700" on="1"/>
        <pt x="283" y="700" on="1"/>
        <pt x="275" y="267" on="1"/>
        <pt x="486" y="700" on="1"/>
        <pt x="644" y="700" on="1"/>
        <pt x="672" y="269" on="1"/>
        <pt x="847" y="700" on="1"/>
        <pt x="1020" y="700" on="1"/>
        <pt x="719" y="0" on="1"/>
        <pt x="540" y="0" on="1"/>
        <pt x="514" y="447" on="1"/>
      </contour>
    </TTGlyph>
    <TTGlyph name="Wacute" xMin="116" yMin="0" xMax="1020" yMax="918">
      <component glyphName="W" x="0" y="0" flags="0x204"/>
      <component glyphName="acute" x="289" y="171" flags="0x4"/>
    </TTGlyph>
    <TTGlyph name="Wcircumflex" xMin="116" yMin="0" xMax="1020" yMax="921">
      <component glyphName="W" x="0" y="0" flags="0x204"/>
      <component glyphName="circumflex" x="255" y="171" flags="0x4"/>
    </TTGlyph>
    <TTGlyph name="Wdieresis" xMin="116" yMin="0" xMax="1020" yMax="937">
      <component glyphName="W" x="0" y="0" flags="0x204"/>
      <component glyphName="dieresis" x="212" y="171" flags="0x4"/>
    </TTGlyph>
    <TTGlyph name="Wgrave" xMin="116" yMin="0" xMax="1020" yMax="918">
      <component glyphName="W" x="0" y="0" flags="0x204"/>
      <component glyphName="grave" x="227" y="171" flags="0x4"/>
    </TTGlyph>
    <TTGlyph name="X" xMin="-61" yMin="0" xMax="799" yMax="700">
      <contour>
        <pt x="142" y="0" on="1"/>
        <pt x="-61" y="0" on="1"/>
        <pt x="283" y="365" on="1"/>
        <pt x="111" y="700" on="1"/>
        <pt x="301" y="700" on="1"/>
        <pt x="404" y="489" on="1"/>
        <pt x="595" y="700" on="1"/>
        <pt x="799" y="700" on="1"/>
        <pt x="476" y="357" on="1"/>
        <pt x="659" y="0" on="1"/>
        <pt x="469" y="0" on="1"/>
        <pt x="354" y="234" on="1"/>
      </contour>
    </TTGlyph>
    <TTGlyph name="Y" xMin="83" yMin="0" xMax="820" yMax="700">
      <contour>
        <pt x="218" y="0" on="1"/>
        <pt x="273" y="262" on="1"/>
        <pt x="83" y="700" on="1"/>
        <pt x="262" y="700" on="1"/>
        <pt x="383" y="413" on="1"/>
        <pt x="622" y="700" on="1"/>
        <pt x="820" y="700" on="1"/>
        <pt x="442" y="260" on="1"/>
        <pt x="387" y="0" on="1"/>
      </contour>
    </TTGlyph>
    <TTGlyph name="Yacute" xMin="83" yMin="0" xMax="820" yMax="918">
      <component glyphName="Y" x="0" y="0" flags="0x204"/>
      <component glyphName="acute" x="167" y="171" flags="0x4"/>
    </TTGlyph>
    <TTGlyph name="Ycircumflex" xMin="83" yMin="0" xMax="820" yMax="921">
      <component glyphName="Y" x="0" y="0" flags="0x204"/>
      <component glyphName="circumflex" x="133" y="171" flags="0x4"/>
    </TTGlyph>
    <TTGlyph name="Ydieresis" xMin="83" yMin="0" xMax="820" yMax="937">
      <component glyphName="Y" x="0" y="0" flags="0x204"/>
      <component glyphName="dieresis" x="90" y="171" flags="0x4"/>
    </TTGlyph>
    <TTGlyph name="Ygrave" xMin="83" yMin="0" xMax="820" yMax="918">
      <component glyphName="Y" x="0" y="0" flags="0x204"/>
      <component glyphName="grave" x="105" y="171" flags="0x4"/>
    </TTGlyph>
    <TTGlyph name="Z" xMin="-36" yMin="0" xMax="687" yMax="700">
      <contour>
        <pt x="-36" y="0" on="1"/>
        <pt x="-11" y="116" on="1"/>
        <pt x="425" y="551" on="1"/>
        <pt x="84" y="551" on="1"/>
        <pt x="116" y="700" on="1"/>
        <pt x="687" y="700" on="1"/>
        <pt x="662" y="584" on="1"/>
        <pt x="225" y="149" on="1"/>
        <pt x="573" y="149" on="1"/>
        <pt x="541" y="0" on="1"/>
      </contour>
    </TTGlyph>
    <TTGlyph name="Zacute" xMin="-36" yMin="0" xMax="687" yMax="918">
      <component glyphName="Z" x="0" y="0" flags="0x204"/>
      <component glyphName="acute" x="103" y="171" flags="0x4"/>
    </TTGlyph>
    <TTGlyph name="Zcaron" xMin="-36" yMin="0" xMax="687" yMax="921">
      <component glyphName="Z" x="0" y="0" flags="0x204"/>
      <component glyphName="caron" x="71" y="171" flags="0x4"/>
    </TTGlyph>
    <TTGlyph name="Zdotaccent" xMin="-36" yMin="0" xMax="687" yMax="937">
      <component glyphName="Z" x="0" y="0" flags="0x204"/>
      <component glyphName="dotaccent" x="177" y="171" flags="0x4"/>
    </TTGlyph>
    <TTGlyph name="a" xMin="6" yMin="-5" xMax="532" yMax="538">
      <contour>
        <pt x="185" y="-5" on="1"/>
        <pt x="103" y="-5" on="0"/>
        <pt x="6" y="75" on="0"/>
        <pt x="6" y="142" on="1"/>
        <pt x="6" y="223" on="0"/>
        <pt x="126" y="317" on="0"/>
        <pt x="231" y="317" on="1"/>
        <pt x="265" y="317" on="0"/>
        <pt x="334" y="306" on="0"/>
        <pt x="366" y="296" on="1"/>
        <pt x="369" y="311" on="1"/>
        <pt x="379" y="358" on="0"/>
        <pt x="328" y="405" on="0"/>
        <pt x="268" y="405" on="1"/>
        <pt x="241" y="405" on="0"/>
        <pt x="171" y="389" on="0"/>
        <pt x="122" y="373" on="1"/>
        <pt x="84" y="493" on="1"/>
        <pt x="144" y="515" on="0"/>
        <pt x="255" y="538" on="0"/>
        <pt x="304" y="538" on="1"/>
        <pt x="429" y="538" on="0"/>
        <pt x="548" y="417" on="0"/>
        <pt x="526" y="312" on="1"/>
        <pt x="460" y="0" on="1"/>
        <pt x="303" y="0" on="1"/>
        <pt x="309" y="29" on="1"/>
        <pt x="278" y="11" on="0"/>
        <pt x="218" y="-5" on="0"/>
      </contour>
      <contour>
        <pt x="156" y="155" on="1"/>
        <pt x="156" y="133" on="0"/>
        <pt x="202" y="107" on="0"/>
        <pt x="242" y="107" on="1"/>
        <pt x="266" y="107" on="0"/>
        <pt x="310" y="118" on="0"/>
        <pt x="330" y="128" on="1"/>
        <pt x="345" y="197" on="1"/>
        <pt x="322" y="204" on="0"/>
        <pt x="270" y="213" on="0"/>
        <pt x="246" y="213" on="1"/>
        <pt x="203" y="213" on="0"/>
        <pt x="156" y="183" on="0"/>
      </contour>
    </TTGlyph>
    <TTGlyph name="a.school" xMin="27" yMin="-7" xMax="642" yMax="536">
      <contour>
        <pt x="373" y="0" on="1"/>
        <pt x="378" y="22" on="1"/>
        <pt x="351" y="8" on="0"/>
        <pt x="293" y="-7" on="0"/>
        <pt x="263" y="-7" on="1"/>
        <pt x="213" y="-7" on="0"/>
        <pt x="127" y="31" on="0"/>
        <pt x="64" y="97" on="0"/>
        <pt x="27" y="187" on="0"/>
        <pt x="27" y="239" on="1"/>
        <pt x="27" y="301" on="0"/>
        <pt x="74" y="409" on="0"/>
        <pt x="153" y="489" on="0"/>
        <pt x="262" y="536" on="0"/>
        <pt x="323" y="536" on="1"/>
        <pt x="367" y="536" on="0"/>
        <pt x="445" y="511" on="0"/>
        <pt x="475" y="487" on="1"/>
        <pt x="484" y="529" on="1"/>
        <pt x="642" y="529" on="1"/>
        <pt x="530" y="0" on="1"/>
      </contour>
      <contour>
        <pt x="183" y="253" on="1"/>
        <pt x="183" y="201" on="0"/>
        <pt x="254" y="130" on="0"/>
        <pt x="307" y="130" on="1"/>
        <pt x="335" y="130" on="0"/>
        <pt x="385" y="147" on="0"/>
        <pt x="406" y="164" on="1"/>
        <pt x="446" y="352" on="1"/>
        <pt x="426" y="373" on="0"/>
        <pt x="364" y="398" on="0"/>
        <pt x="329" y="398" on="1"/>
        <pt x="268" y="398" on="0"/>
        <pt x="183" y="313" on="0"/>
      </contour>
    </TTGlyph>
    <TTGlyph name="aacute" xMin="6" yMin="-5" xMax="538" yMax="747">
      <component glyphName="a" x="0" y="0" flags="0x204"/>
      <component glyphName="acute" x="24" y="0" flags="0x4"/>
    </TTGlyph>
    <TTGlyph name="aacute.school" xMin="27" yMin="-7" xMax="642" yMax="747">
      <component glyphName="a.school" x="0" y="0" flags="0x204"/>
      <component glyphName="acute" x="62" y="0" flags="0x4"/>
    </TTGlyph>
    <TTGlyph name="abreve" xMin="6" yMin="-5" xMax="532" yMax="772">
      <component glyphName="a" x="0" y="0" flags="0x204"/>
      <component glyphName="breve" x="-8" y="0" flags="0x4"/>
    </TTGlyph>
    <TTGlyph name="abreve.school" xMin="27" yMin="-7" xMax="642" yMax="772">
      <component glyphName="a.school" x="0" y="0" flags="0x204"/>
      <component glyphName="breve" x="30" y="0" flags="0x4"/>
    </TTGlyph>
    <TTGlyph name="acircumflex" xMin="6" yMin="-5" xMax="532" yMax="750">
      <component glyphName="a" x="0" y="0" flags="0x204"/>
      <component glyphName="circumflex" x="-10" y="0" flags="0x4"/>
    </TTGlyph>
    <TTGlyph name="acircumflex.school" xMin="27" yMin="-7" xMax="642" yMax="750">
      <component glyphName="a.school" x="0" y="0" flags="0x204"/>
      <component glyphName="circumflex" x="28" y="0" flags="0x4"/>
    </TTGlyph>
    <TTGlyph name="acute" xMin="219" yMin="611" xMax="514" yMax="747">
      <contour>
        <pt x="336" y="747" on="1"/>
        <pt x="514" y="747" on="1"/>
        <pt x="349" y="611" on="1"/>
        <pt x="219" y="611" on="1"/>
      </contour>
    </TTGlyph>
    <TTGlyph name="adieresis" xMin="6" yMin="-5" xMax="532" yMax="766">
      <component glyphName="a" x="0" y="0" flags="0x204"/>
      <component glyphName="dieresis" x="-53" y="0" flags="0x4"/>
    </TTGlyph>
    <TTGlyph name="adieresis.school" xMin="27" yMin="-7" xMax="642" yMax="766">
      <component glyphName="a.school" x="0" y="0" flags="0x204"/>
      <component glyphName="dieresis" x="-15" y="0" flags="0x4"/>
    </TTGlyph>
    <TTGlyph name="ae" xMin="19" yMin="-11" xMax="885" yMax="538">
      <contour>
        <pt x="218" y="-5" on="1"/>
        <pt x="127" y="-5" on="0"/>
        <pt x="19" y="78" on="0"/>
        <pt x="19" y="148" on="1"/>
        <pt x="19" y="227" on="0"/>
        <pt x="133" y="317" on="0"/>
        <pt x="232" y="317" on="1"/>
        <pt x="263" y="317" on="0"/>
        <pt x="327" y="308" on="0"/>
        <pt x="358" y="300" on="1"/>
        <pt x="362" y="319" on="1"/>
        <pt x="371" y="359" on="0"/>
        <pt x="317" y="405" on="0"/>
        <pt x="262" y="405" on="1"/>
        <pt x="236" y="405" on="0"/>
        <pt x="170" y="390" on="0"/>
        <pt x="119" y="373" on="1"/>
        <pt x="81" y="493" on="1"/>
        <pt x="144" y="516" on="0"/>
        <pt x="253" y="538" on="0"/>
        <pt x="303" y="538" on="1"/>
        <pt x="360" y="538" on="0"/>
        <pt x="446" y="506" on="0"/>
        <pt x="472" y="477" on="1"/>
        <pt x="509" y="506" on="0"/>
        <pt x="596" y="537" on="0"/>
        <pt x="641" y="537" on="1"/>
        <pt x="695" y="537" on="0"/>
        <pt x="785" y="499" on="0"/>
        <pt x="849" y="431" on="0"/>
        <pt x="885" y="336" on="0"/>
        <pt x="885" y="280" on="1"/>
        <pt x="885" y="269" on="0"/>
        <pt x="883" y="241" on="0"/>
        <pt x="879" y="210" on="1"/>
        <pt x="509" y="210" on="1"/>
        <pt x="521" y="170" on="0"/>
        <pt x="588" y="122" on="0"/>
        <pt x="636" y="122" on="1"/>
        <pt x="667" y="122" on="0"/>
        <pt x="721" y="141" on="0"/>
        <pt x="741" y="159" on="1"/>
        <pt x="830" y="58" on="1"/>
        <pt x="780" y="21" on="0"/>
        <pt x="682" y="-11" on="0"/>
        <pt x="623" y="-11" on="1"/>
        <pt x="560" y="-11" on="0"/>
        <pt x="453" y="32" on="0"/>
        <pt x="417" y="70" on="1"/>
        <pt x="365" y="30" on="0"/>
        <pt x="272" y="-5" on="0"/>
      </contour>
      <contour>
        <pt x="634" y="404" on="1"/>
        <pt x="595" y="404" on="0"/>
        <pt x="534" y="359" on="0"/>
        <pt x="518" y="322" on="1"/>
        <pt x="736" y="322" on="1"/>
        <pt x="726" y="359" on="0"/>
        <pt x="671" y="404" on="0"/>
      </contour>
      <contour>
        <pt x="168" y="159" on="1"/>
        <pt x="168" y="136" on="0"/>
        <pt x="212" y="107" on="0"/>
        <pt x="249" y="107" on="1"/>
        <pt x="280" y="107" on="0"/>
        <pt x="341" y="126" on="0"/>
        <pt x="369" y="145" on="1"/>
        <pt x="365" y="157" on="0"/>
        <pt x="358" y="183" on="0"/>
        <pt x="356" y="196" on="1"/>
        <pt x="334" y="203" on="0"/>
        <pt x="276" y="211" on="0"/>
        <pt x="251" y="211" on="1"/>
        <pt x="213" y="211" on="0"/>
        <pt x="168" y="183" on="0"/>
      </contour>
    </TTGlyph>
    <TTGlyph name="agrave" xMin="6" yMin="-5" xMax="532" yMax="747">
      <component glyphName="a" x="0" y="0" flags="0x204"/>
      <component glyphName="grave" x="-38" y="0" flags="0x4"/>
    </TTGlyph>
    <TTGlyph name="agrave.school" xMin="27" yMin="-7" xMax="642" yMax="747">
      <component glyphName="a.school" x="0" y="0" flags="0x204"/>
      <component glyphName="grave" x="0" y="0" flags="0x4"/>
    </TTGlyph>
    <TTGlyph name="amacron" xMin="6" yMin="-5" xMax="532" yMax="728">
      <component glyphName="a" x="0" y="0" flags="0x204"/>
      <component glyphName="macron" x="-8" y="0" flags="0x4"/>
    </TTGlyph>
    <TTGlyph name="amacron.school" xMin="27" yMin="-7" xMax="642" yMax="728">
      <component glyphName="a.school" x="0" y="0" flags="0x204"/>
      <component glyphName="macron" x="30" y="0" flags="0x4"/>
    </TTGlyph>
    <TTGlyph name="ampersand" xMin="14" yMin="-16" xMax="670" yMax="709">
      <contour>
        <pt x="631" y="97" on="1"/>
        <pt x="524" y="-16" on="1"/>
        <pt x="506" y="-2" on="0"/>
        <pt x="469" y="31" on="0"/>
        <pt x="450" y="48" on="1"/>
        <pt x="405" y="20" on="0"/>
        <pt x="305" y="-10" on="0"/>
        <pt x="251" y="-10" on="1"/>
        <pt x="143" y="-10" on="0"/>
        <pt x="14" y="88" on="0"/>
        <pt x="14" y="172" on="1"/>
        <pt x="14" y="243" on="0"/>
        <pt x="96" y="348" on="0"/>
        <pt x="181" y="388" on="1"/>
        <pt x="166" y="418" on="0"/>
        <pt x="153" y="474" on="0"/>
        <pt x="153" y="502" on="1"/>
        <pt x="153" y="593" on="0"/>
        <pt x="277" y="709" on="0"/>
        <pt x="375" y="709" on="1"/>
        <pt x="456" y="709" on="0"/>
        <pt x="560" y="623" on="0"/>
        <pt x="560" y="557" on="1"/>
        <pt x="560" y="503" on="0"/>
        <pt x="494" y="412" on="0"/>
        <pt x="433" y="381" on="1"/>
        <pt x="378" y="354" on="1"/>
        <pt x="396" y="329" on="0"/>
        <pt x="442" y="274" on="0"/>
        <pt x="467" y="247" on="1"/>
        <pt x="486" y="273" on="0"/>
        <pt x="522" y="341" on="0"/>
        <pt x="540" y="381" on="1"/>
        <pt x="670" y="347" on="1"/>
        <pt x="644" y="288" on="0"/>
        <pt x="588" y="193" on="0"/>
        <pt x="559" y="157" on="1"/>
        <pt x="578" y="140" on="0"/>
        <pt x="614" y="110" on="0"/>
      </contour>
      <contour>
        <pt x="297" y="525" on="1"/>
        <pt x="297" y="507" on="0"/>
        <pt x="308" y="469" on="0"/>
        <pt x="319" y="447" on="1"/>
        <pt x="361" y="467" on="1"/>
        <pt x="387" y="480" on="0"/>
        <pt x="416" y="519" on="0"/>
        <pt x="416" y="540" on="1"/>
        <pt x="416" y="563" on="0"/>
        <pt x="385" y="591" on="0"/>
        <pt x="360" y="591" on="1"/>
        <pt x="332" y="591" on="0"/>
        <pt x="297" y="554" on="0"/>
      </contour>
      <contour>
        <pt x="163" y="192" on="1"/>
        <pt x="163" y="157" on="0"/>
        <pt x="221" y="115" on="0"/>
        <pt x="270" y="115" on="1"/>
        <pt x="294" y="115" on="0"/>
        <pt x="339" y="126" on="0"/>
        <pt x="361" y="137" on="1"/>
        <pt x="327" y="175" on="0"/>
        <pt x="265" y="254" on="0"/>
        <pt x="240" y="291" on="1"/>
        <pt x="200" y="271" on="0"/>
        <pt x="163" y="223" on="0"/>
      </contour>
    </TTGlyph>
    <TTGlyph name="aogonek" xMin="6" yMin="-221" xMax="532" yMax="538">
      <contour>
        <pt x="185" y="-5" on="1"/>
        <pt x="103" y="-5" on="0"/>
        <pt x="6" y="75" on="0"/>
        <pt x="6" y="142" on="1"/>
        <pt x="6" y="223" on="0"/>
        <pt x="126" y="317" on="0"/>
        <pt x="231" y="317" on="1"/>
        <pt x="265" y="317" on="0"/>
        <pt x="334" y="306" on="0"/>
        <pt x="366" y="296" on="1"/>
        <pt x="369" y="311" on="1"/>
        <pt x="379" y="358" on="0"/>
        <pt x="328" y="405" on="0"/>
        <pt x="268" y="405" on="1"/>
        <pt x="241" y="405" on="0"/>
        <pt x="171" y="389" on="0"/>
        <pt x="122" y="373" on="1"/>
        <pt x="84" y="493" on="1"/>
        <pt x="144" y="515" on="0"/>
        <pt x="255" y="538" on="0"/>
        <pt x="304" y="538" on="1"/>
        <pt x="429" y="538" on="0"/>
        <pt x="548" y="417" on="0"/>
        <pt x="526" y="312" on="1"/>
        <pt x="460" y="0" on="1"/>
        <pt x="408" y="-28" on="0"/>
        <pt x="356" y="-81" on="0"/>
        <pt x="356" y="-108" on="1"/>
        <pt x="356" y="-123" on="0"/>
        <pt x="376" y="-139" on="0"/>
        <pt x="394" y="-139" on="1"/>
        <pt x="404" y="-139" on="0"/>
        <pt x="424" y="-133" on="0"/>
        <pt x="432" y="-128" on="1"/>
        <pt x="438" y="-198" on="1"/>
        <pt x="419" y="-209" on="0"/>
        <pt x="371" y="-221" on="0"/>
        <pt x="348" y="-221" on="1"/>
        <pt x="308" y="-221" on="0"/>
        <pt x="260" y="-182" on="0"/>
        <pt x="260" y="-148" on="1"/>
        <pt x="260" y="-107" on="0"/>
        <pt x="318" y="-33" on="0"/>
        <pt x="375" y="0" on="1"/>
        <pt x="303" y="0" on="1"/>
        <pt x="309" y="29" on="1"/>
        <pt x="278" y="11" on="0"/>
        <pt x="218" y="-5" on="0"/>
      </contour>
      <contour>
        <pt x="156" y="155" on="1"/>
        <pt x="156" y="133" on="0"/>
        <pt x="202" y="107" on="0"/>
        <pt x="242" y="107" on="1"/>
        <pt x="266" y="107" on="0"/>
        <pt x="310" y="118" on="0"/>
        <pt x="330" y="128" on="1"/>
        <pt x="345" y="197" on="1"/>
        <pt x="322" y="204" on="0"/>
        <pt x="270" y="213" on="0"/>
        <pt x="246" y="213" on="1"/>
        <pt x="203" y="213" on="0"/>
        <pt x="156" y="183" on="0"/>
      </contour>
    </TTGlyph>
    <TTGlyph name="aogonek.school" xMin="27" yMin="-221" xMax="642" yMax="536">
      <contour>
        <pt x="373" y="0" on="1"/>
        <pt x="378" y="22" on="1"/>
        <pt x="351" y="8" on="0"/>
        <pt x="293" y="-7" on="0"/>
        <pt x="263" y="-7" on="1"/>
        <pt x="213" y="-7" on="0"/>
        <pt x="127" y="31" on="0"/>
        <pt x="64" y="97" on="0"/>
        <pt x="27" y="187" on="0"/>
        <pt x="27" y="239" on="1"/>
        <pt x="27" y="301" on="0"/>
        <pt x="74" y="409" on="0"/>
        <pt x="153" y="489" on="0"/>
        <pt x="262" y="536" on="0"/>
        <pt x="323" y="536" on="1"/>
        <pt x="367" y="536" on="0"/>
        <pt x="445" y="511" on="0"/>
        <pt x="475" y="487" on="1"/>
        <pt x="484" y="529" on="1"/>
        <pt x="642" y="529" on="1"/>
        <pt x="530" y="0" on="1"/>
        <pt x="478" y="-28" on="0"/>
        <pt x="426" y="-81" on="0"/>
        <pt x="426" y="-108" on="1"/>
        <pt x="426" y="-123" on="0"/>
        <pt x="446" y="-139" on="0"/>
        <pt x="464" y="-139" on="1"/>
        <pt x="474" y="-139" on="0"/>
        <pt x="494" y="-133" on="0"/>
        <pt x="502" y="-128" on="1"/>
        <pt x="508" y="-198" on="1"/>
        <pt x="489" y="-209" on="0"/>
        <pt x="441" y="-221" on="0"/>
        <pt x="418" y="-221" on="1"/>
        <pt x="378" y="-221" on="0"/>
        <pt x="330" y="-182" on="0"/>
        <pt x="330" y="-148" on="1"/>
        <pt x="330" y="-107" on="0"/>
        <pt x="388" y="-33" on="0"/>
        <pt x="445" y="0" on="1"/>
      </contour>
      <contour>
        <pt x="183" y="253" on="1"/>
        <pt x="183" y="201" on="0"/>
        <pt x="254" y="130" on="0"/>
        <pt x="307" y="130" on="1"/>
        <pt x="335" y="130" on="0"/>
        <pt x="385" y="147" on="0"/>
        <pt x="406" y="164" on="1"/>
        <pt x="446" y="352" on="1"/>
        <pt x="426" y="373" on="0"/>
        <pt x="364" y="398" on="0"/>
        <pt x="329" y="398" on="1"/>
        <pt x="268" y="398" on="0"/>
        <pt x="183" y="313" on="0"/>
      </contour>
    </TTGlyph>
    <TTGlyph name="aring" xMin="6" yMin="-5" xMax="532" yMax="836">
      <component glyphName="a" x="0" y="0" flags="0x204"/>
      <component glyphName="ring" x="-8" y="0" flags="0x4"/>
    </TTGlyph>
    <TTGlyph name="aring.school" xMin="27" yMin="-7" xMax="642" yMax="836">
      <component glyphName="a.school" x="0" y="0" flags="0x204"/>
      <component glyphName="ring" x="30" y="0" flags="0x4"/>
    </TTGlyph>
    <TTGlyph name="asciicircum" xMin="45" yMin="350" xMax="539" yMax="700">
      <contour>
        <pt x="45" y="350" on="1"/>
        <pt x="299" y="700" on="1"/>
        <pt x="434" y="700" on="1"/>
        <pt x="539" y="350" on="1"/>
        <pt x="414" y="350" on="1"/>
        <pt x="345" y="583" on="1"/>
        <pt x="177" y="350" on="1"/>
      </contour>
    </TTGlyph>
    <TTGlyph name="asciitilde" xMin="34" yMin="261" xMax="620" yMax="478">
      <contour>
        <pt x="309" y="446" on="1"/>
        <pt x="388" y="403" on="1"/>
        <pt x="410" y="391" on="0"/>
        <pt x="438" y="381" on="0"/>
        <pt x="448" y="381" on="1"/>
        <pt x="470" y="381" on="0"/>
        <pt x="503" y="414" on="0"/>
        <pt x="516" y="449" on="1"/>
        <pt x="620" y="425" on="1"/>
        <pt x="594" y="347" on="0"/>
        <pt x="505" y="261" on="0"/>
        <pt x="450" y="261" on="1"/>
        <pt x="428" y="261" on="0"/>
        <pt x="373" y="278" on="0"/>
        <pt x="345" y="293" on="1"/>
        <pt x="266" y="336" on="1"/>
        <pt x="244" y="348" on="0"/>
        <pt x="216" y="358" on="0"/>
        <pt x="206" y="358" on="1"/>
        <pt x="184" y="358" on="0"/>
        <pt x="150" y="325" on="0"/>
        <pt x="137" y="291" on="1"/>
        <pt x="34" y="314" on="1"/>
        <pt x="60" y="393" on="0"/>
        <pt x="148" y="478" on="0"/>
        <pt x="203" y="478" on="1"/>
        <pt x="226" y="478" on="0"/>
        <pt x="282" y="461" on="0"/>
      </contour>
    </TTGlyph>
    <TTGlyph name="asterisk" xMin="79" yMin="307" xMax="507" yMax="700">
      <contour>
        <pt x="401" y="344" on="1"/>
        <pt x="320" y="411" on="1"/>
        <pt x="300" y="307" on="1"/>
        <pt x="199" y="307" on="1"/>
        <pt x="223" y="415" on="1"/>
        <pt x="116" y="361" on="1"/>
        <pt x="79" y="453" on="1"/>
        <pt x="198" y="509" on="1"/>
        <pt x="104" y="582" on="1"/>
        <pt x="175" y="661" on="1"/>
        <pt x="260" y="591" on="1"/>
        <pt x="282" y="700" on="1"/>
        <pt x="382" y="700" on="1"/>
        <pt x="356" y="587" on="1"/>
        <pt x="468" y="644" on="1"/>
        <pt x="507" y="554" on="1"/>
        <pt x="383" y="494" on="1"/>
        <pt x="474" y="425" on="1"/>
      </contour>
    </TTGlyph>
    <TTGlyph name="at" xMin="27" yMin="-144" xMax="741" yMax="583">
      <contour>
        <pt x="337" y="47" on="1"/>
        <pt x="276" y="47" on="0"/>
        <pt x="191" y="138" on="0"/>
        <pt x="191" y="203" on="1"/>
        <pt x="191" y="242" on="0"/>
        <pt x="219" y="310" on="0"/>
        <pt x="267" y="359" on="0"/>
        <pt x="333" y="388" on="0"/>
        <pt x="371" y="388" on="1"/>
        <pt x="396" y="388" on="0"/>
        <pt x="443" y="372" on="0"/>
        <pt x="461" y="357" on="1"/>
        <pt x="465" y="375" on="1"/>
        <pt x="568" y="375" on="1"/>
        <pt x="524" y="167" on="1"/>
        <pt x="519" y="144" on="0"/>
        <pt x="540" y="119" on="0"/>
        <pt x="563" y="119" on="1"/>
        <pt x="608" y="119" on="0"/>
        <pt x="664" y="204" on="0"/>
        <pt x="664" y="272" on="1"/>
        <pt x="664" y="325" on="0"/>
        <pt x="623" y="415" on="0"/>
        <pt x="553" y="481" on="0"/>
        <pt x="455" y="519" on="0"/>
        <pt x="398" y="519" on="1"/>
        <pt x="335" y="519" on="0"/>
        <pt x="227" y="472" on="0"/>
        <pt x="147" y="391" on="0"/>
        <pt x="102" y="279" on="0"/>
        <pt x="102" y="214" on="1"/>
        <pt x="102" y="150" on="0"/>
        <pt x="146" y="44" on="0"/>
        <pt x="223" y="-32" on="0"/>
        <pt x="333" y="-74" on="0"/>
        <pt x="399" y="-74" on="1"/>
        <pt x="445" y="-74" on="0"/>
        <pt x="526" y="-56" on="0"/>
        <pt x="562" y="-39" on="1"/>
        <pt x="590" y="-101" on="1"/>
        <pt x="542" y="-123" on="0"/>
        <pt x="449" y="-144" on="0"/>
        <pt x="400" y="-144" on="1"/>
        <pt x="319" y="-144" on="0"/>
        <pt x="182" y="-91" on="0"/>
        <pt x="83" y="2" on="0"/>
        <pt x="27" y="131" on="0"/>
        <pt x="27" y="207" on="1"/>
        <pt x="27" y="288" on="0"/>
        <pt x="84" y="426" on="0"/>
        <pt x="183" y="526" on="0"/>
        <pt x="321" y="583" on="0"/>
        <pt x="401" y="583" on="1"/>
        <pt x="472" y="583" on="0"/>
        <pt x="597" y="536" on="0"/>
        <pt x="688" y="454" on="0"/>
        <pt x="741" y="343" on="0"/>
        <pt x="741" y="279" on="1"/>
        <pt x="741" y="177" on="0"/>
        <pt x="632" y="46" on="0"/>
        <pt x="547" y="46" on="1"/>
        <pt x="510" y="46" on="0"/>
        <pt x="456" y="67" on="0"/>
        <pt x="441" y="87" on="1"/>
        <pt x="419" y="68" on="0"/>
        <pt x="365" y="47" on="0"/>
      </contour>
      <contour>
        <pt x="290" y="212" on="1"/>
        <pt x="290" y="177" on="0"/>
        <pt x="331" y="131" on="0"/>
        <pt x="362" y="131" on="1"/>
        <pt x="378" y="131" on="0"/>
        <pt x="409" y="142" on="0"/>
        <pt x="423" y="154" on="1"/>
        <pt x="423" y="161" on="0"/>
        <pt x="425" y="175" on="0"/>
        <pt x="426" y="182" on="1"/>
        <pt x="443" y="269" on="1"/>
        <pt x="432" y="285" on="0"/>
        <pt x="397" y="301" on="0"/>
        <pt x="375" y="301" on="1"/>
        <pt x="341" y="301" on="0"/>
        <pt x="290" y="249" on="0"/>
      </contour>
    </TTGlyph>
    <TTGlyph name="at.cap" xMin="55" yMin="-15" xMax="769" yMax="712">
      <component glyphName="at" x="28" y="129" flags="0x4"/>
    </TTGlyph>
    <TTGlyph name="atilde" xMin="6" yMin="-5" xMax="544" yMax="756">
      <component glyphName="a" x="0" y="0" flags="0x204"/>
      <component glyphName="tilde" x="-5" y="0" flags="0x4"/>
    </TTGlyph>
    <TTGlyph name="atilde.school" xMin="27" yMin="-7" xMax="642" yMax="756">
      <component glyphName="a.school" x="0" y="0" flags="0x204"/>
      <component glyphName="tilde" x="33" y="0" flags="0x4"/>
    </TTGlyph>
    <TTGlyph name="b" xMin="-7" yMin="-7" xMax="609" yMax="735">
      <contour>
        <pt x="609" y="290" on="1"/>
        <pt x="609" y="228" on="0"/>
        <pt x="562" y="120" on="0"/>
        <pt x="483" y="40" on="0"/>
        <pt x="374" y="-7" on="0"/>
        <pt x="313" y="-7" on="1"/>
        <pt x="268" y="-7" on="0"/>
        <pt x="191" y="21" on="0"/>
        <pt x="160" y="47" on="1"/>
        <pt x="150" y="0" on="1"/>
        <pt x="-7" y="0" on="1"/>
        <pt x="142" y="700" on="1"/>
        <pt x="308" y="735" on="1"/>
        <pt x="260" y="508" on="1"/>
        <pt x="286" y="521" on="0"/>
        <pt x="343" y="536" on="0"/>
        <pt x="373" y="536" on="1"/>
        <pt x="423" y="536" on="0"/>
        <pt x="509" y="498" on="0"/>
        <pt x="572" y="432" on="0"/>
        <pt x="609" y="342" on="0"/>
      </contour>
      <contour>
        <pt x="329" y="399" on="1"/>
        <pt x="301" y="399" on="0"/>
        <pt x="251" y="382" on="0"/>
        <pt x="229" y="364" on="1"/>
        <pt x="190" y="182" on="1"/>
        <pt x="209" y="158" on="0"/>
        <pt x="271" y="131" on="0"/>
        <pt x="307" y="131" on="1"/>
        <pt x="369" y="131" on="0"/>
        <pt x="454" y="216" on="0"/>
        <pt x="454" y="276" on="1"/>
        <pt x="454" y="328" on="0"/>
        <pt x="383" y="399" on="0"/>
      </contour>
    </TTGlyph>
    <TTGlyph name="backslash" xMin="110" yMin="-211" xMax="489" yMax="700">
      <contour>
        <pt x="489" y="-211" on="1"/>
        <pt x="331" y="-211" on="1"/>
        <pt x="110" y="700" on="1"/>
        <pt x="267" y="700" on="1"/>
      </contour>
    </TTGlyph>
    <TTGlyph name="bar" xMin="-6" yMin="-214" xMax="336" yMax="700">
      <contour>
        <pt x="-6" y="-214" on="1"/>
        <pt x="188" y="700" on="1"/>
        <pt x="336" y="700" on="1"/>
        <pt x="142" y="-214" on="1"/>
      </contour>
    </TTGlyph>
    <TTGlyph name="braceleft" xMin="-7" yMin="-221" xMax="490" yMax="710">
      <contour>
        <pt x="261" y="73" on="1"/>
        <pt x="212" y="-8" on="1"/>
        <pt x="183" y="-56" on="0"/>
        <pt x="220" y="-101" on="0"/>
        <pt x="254" y="-101" on="1"/>
        <pt x="267" y="-101" on="0"/>
        <pt x="292" y="-97" on="0"/>
        <pt x="303" y="-93" on="1"/>
        <pt x="301" y="-209" on="1"/>
        <pt x="276" y="-216" on="0"/>
        <pt x="230" y="-221" on="0"/>
        <pt x="208" y="-221" on="1"/>
        <pt x="149" y="-221" on="0"/>
        <pt x="71" y="-183" on="0"/>
        <pt x="36" y="-122" on="0"/>
        <pt x="45" y="-42" on="0"/>
        <pt x="71" y="0" on="1"/>
        <pt x="120" y="77" on="1"/>
        <pt x="146" y="118" on="0"/>
        <pt x="125" y="185" on="0"/>
        <pt x="77" y="185" on="1"/>
        <pt x="-7" y="185" on="1"/>
        <pt x="18" y="303" on="1"/>
        <pt x="102" y="303" on="1"/>
        <pt x="147" y="303" on="0"/>
        <pt x="196" y="362" on="0"/>
        <pt x="189" y="406" on="1"/>
        <pt x="175" y="498" on="1"/>
        <pt x="168" y="543" on="0"/>
        <pt x="192" y="621" on="0"/>
        <pt x="245" y="678" on="0"/>
        <pt x="324" y="710" on="0"/>
        <pt x="372" y="710" on="1"/>
        <pt x="402" y="710" on="0"/>
        <pt x="460" y="700" on="0"/>
        <pt x="490" y="687" on="1"/>
        <pt x="444" y="573" on="1"/>
        <pt x="430" y="580" on="0"/>
        <pt x="394" y="588" on="0"/>
        <pt x="383" y="588" on="1"/>
        <pt x="351" y="588" on="0"/>
        <pt x="303" y="540" on="0"/>
        <pt x="310" y="491" on="1"/>
        <pt x="323" y="395" on="1"/>
        <pt x="327" y="364" on="0"/>
        <pt x="309" y="310" on="0"/>
        <pt x="272" y="270" on="0"/>
        <pt x="219" y="244" on="0"/>
        <pt x="189" y="239" on="1"/>
        <pt x="247" y="224" on="0"/>
        <pt x="298" y="135" on="0"/>
      </contour>
    </TTGlyph>
    <TTGlyph name="braceright" xMin="-60" yMin="-221" xMax="437" yMax="710">
      <contour>
        <pt x="169" y="416" on="1"/>
        <pt x="218" y="497" on="1"/>
        <pt x="247" y="545" on="0"/>
        <pt x="210" y="590" on="0"/>
        <pt x="176" y="590" on="1"/>
        <pt x="163" y="590" on="0"/>
        <pt x="138" y="586" on="0"/>
        <pt x="127" y="582" on="1"/>
        <pt x="129" y="698" on="1"/>
        <pt x="154" y="705" on="0"/>
        <pt x="200" y="710" on="0"/>
        <pt x="222" y="710" on="1"/>
        <pt x="281" y="710" on="0"/>
        <pt x="359" y="672" on="0"/>
        <pt x="394" y="611" on="0"/>
        <pt x="385" y="531" on="0"/>
        <pt x="359" y="489" on="1"/>
        <pt x="310" y="412" on="1"/>
        <pt x="284" y="371" on="0"/>
        <pt x="305" y="304" on="0"/>
        <pt x="353" y="304" on="1"/>
        <pt x="437" y="304" on="1"/>
        <pt x="412" y="186" on="1"/>
        <pt x="328" y="186" on="1"/>
        <pt x="283" y="186" on="0"/>
        <pt x="234" y="127" on="0"/>
        <pt x="241" y="83" on="1"/>
        <pt x="255" y="-9" on="1"/>
        <pt x="262" y="-54" on="0"/>
        <pt x="238" y="-132" on="0"/>
        <pt x="185" y="-189" on="0"/>
        <pt x="106" y="-221" on="0"/>
        <pt x="58" y="-221" on="1"/>
        <pt x="28" y="-221" on="0"/>
        <pt x="-30" y="-211" on="0"/>
        <pt x="-60" y="-198" on="1"/>
        <pt x="-14" y="-84" on="1"/>
        <pt x="0" y="-91" on="0"/>
        <pt x="36" y="-99" on="0"/>
        <pt x="47" y="-99" on="1"/>
        <pt x="79" y="-99" on="0"/>
        <pt x="127" y="-51" on="0"/>
        <pt x="120" y="-2" on="1"/>
        <pt x="107" y="94" on="1"/>
        <pt x="103" y="125" on="0"/>
        <pt x="121" y="179" on="0"/>
        <pt x="158" y="219" on="0"/>
        <pt x="211" y="245" on="0"/>
        <pt x="241" y="250" on="1"/>
        <pt x="183" y="265" on="0"/>
        <pt x="132" y="354" on="0"/>
      </contour>
    </TTGlyph>
    <TTGlyph name="bracketleft" xMin="-47" yMin="-215" xMax="460" yMax="700">
      <contour>
        <pt x="265" y="-215" on="1"/>
        <pt x="-47" y="-215" on="1"/>
        <pt x="148" y="700" on="1"/>
        <pt x="460" y="700" on="1"/>
        <pt x="433" y="574" on="1"/>
        <pt x="271" y="574" on="1"/>
        <pt x="130" y="-89" on="1"/>
        <pt x="292" y="-89" on="1"/>
      </contour>
    </TTGlyph>
    <TTGlyph name="bracketright" xMin="-65" yMin="-215" xMax="442" yMax="700">
      <contour>
        <pt x="130" y="700" on="1"/>
        <pt x="442" y="700" on="1"/>
        <pt x="247" y="-215" on="1"/>
        <pt x="-65" y="-215" on="1"/>
        <pt x="-38" y="-89" on="1"/>
        <pt x="124" y="-89" on="1"/>
        <pt x="265" y="574" on="1"/>
        <pt x="103" y="574" on="1"/>
      </contour>
    </TTGlyph>
    <TTGlyph name="breve" xMin="172" yMin="603" xMax="529" yMax="772">
      <contour>
        <pt x="336" y="692" on="1"/>
        <pt x="365" y="692" on="0"/>
        <pt x="414" y="729" on="0"/>
        <pt x="433" y="764" on="1"/>
        <pt x="529" y="734" on="1"/>
        <pt x="500" y="671" on="0"/>
        <pt x="399" y="603" on="0"/>
        <pt x="334" y="603" on="1"/>
        <pt x="262" y="603" on="0"/>
        <pt x="175" y="683" on="0"/>
        <pt x="172" y="752" on="1"/>
        <pt x="265" y="772" on="1"/>
        <pt x="269" y="732" on="0"/>
        <pt x="304" y="692" on="0"/>
      </contour>
    </TTGlyph>
    <TTGlyph name="bullet" xMin="70" yMin="202" xMax="314" yMax="445">
      <contour>
        <pt x="178" y="202" on="1"/>
        <pt x="132" y="202" on="0"/>
        <pt x="70" y="263" on="0"/>
        <pt x="70" y="308" on="1"/>
        <pt x="70" y="364" on="0"/>
        <pt x="151" y="445" on="0"/>
        <pt x="208" y="445" on="1"/>
        <pt x="254" y="445" on="0"/>
        <pt x="314" y="384" on="0"/>
        <pt x="314" y="338" on="1"/>
        <pt x="314" y="284" on="0"/>
        <pt x="232" y="202" on="0"/>
      </contour>
    </TTGlyph>
    <TTGlyph name="c" xMin="24" yMin="-11" xMax="538" yMax="539">
      <contour>
        <pt x="297" y="129" on="1"/>
        <pt x="328" y="129" on="0"/>
        <pt x="381" y="154" on="0"/>
        <pt x="408" y="180" on="1"/>
        <pt x="490" y="75" on="1"/>
        <pt x="446" y="33" on="0"/>
        <pt x="338" y="-11" on="0"/>
        <pt x="280" y="-11" on="1"/>
        <pt x="225" y="-11" on="0"/>
        <pt x="131" y="27" on="0"/>
        <pt x="63" y="93" on="0"/>
        <pt x="24" y="186" on="0"/>
        <pt x="24" y="240" on="1"/>
        <pt x="24" y="302" on="0"/>
        <pt x="70" y="411" on="0"/>
        <pt x="149" y="492" on="0"/>
        <pt x="256" y="539" on="0"/>
        <pt x="316" y="539" on="1"/>
        <pt x="385" y="539" on="0"/>
        <pt x="502" y="480" on="0"/>
        <pt x="538" y="429" on="1"/>
        <pt x="430" y="331" on="1"/>
        <pt x="408" y="365" on="0"/>
        <pt x="351" y="398" on="0"/>
        <pt x="314" y="398" on="1"/>
        <pt x="260" y="398" on="0"/>
        <pt x="182" y="310" on="0"/>
        <pt x="182" y="249" on="1"/>
        <pt x="182" y="195" on="0"/>
        <pt x="246" y="129" on="0"/>
      </contour>
    </TTGlyph>
    <TTGlyph name="cacute" xMin="24" yMin="-11" xMax="560" yMax="747">
      <component glyphName="c" x="0" y="0" flags="0x204"/>
      <component glyphName="acute" x="46" y="0" flags="0x4"/>
    </TTGlyph>
    <TTGlyph name="caron" xMin="160" yMin="609" xMax="554" yMax="750">
      <contour>
        <pt x="285" y="750" on="1"/>
        <pt x="339" y="679" on="1"/>
        <pt x="422" y="750" on="1"/>
        <pt x="554" y="750" on="1"/>
        <pt x="408" y="609" on="1"/>
        <pt x="247" y="609" on="1"/>
        <pt x="160" y="750" on="1"/>
      </contour>
    </TTGlyph>
    <TTGlyph name="caronSlovak" xMin="95" yMin="466" xMax="316" yMax="723">
      <contour>
        <pt x="159" y="723" on="1"/>
        <pt x="316" y="723" on="1"/>
        <pt x="208" y="466" on="1"/>
        <pt x="95" y="466" on="1"/>
      </contour>
    </TTGlyph>
    <TTGlyph name="ccaron" xMin="24" yMin="-11" xMax="568" yMax="750">
      <component glyphName="c" x="0" y="0" flags="0x204"/>
      <component glyphName="caron" x="14" y="0" flags="0x4"/>
    </TTGlyph>
    <TTGlyph name="ccedilla" xMin="24" yMin="-236" xMax="538" yMax="539">
      <contour>
        <pt x="297" y="129" on="1"/>
        <pt x="328" y="129" on="0"/>
        <pt x="381" y="154" on="0"/>
        <pt x="408" y="180" on="1"/>
        <pt x="490" y="75" on="1"/>
        <pt x="452" y="39" on="0"/>
        <pt x="362" y="-4" on="0"/>
        <pt x="313" y="-9" on="1"/>
        <pt x="296" y="-42" on="1"/>
        <pt x="332" y="-49" on="0"/>
        <pt x="372" y="-91" on="0"/>
        <pt x="372" y="-124" on="1"/>
        <pt x="372" y="-170" on="0"/>
        <pt x="287" y="-236" on="0"/>
        <pt x="227" y="-236" on="1"/>
        <pt x="186" y="-236" on="0"/>
        <pt x="123" y="-211" on="0"/>
        <pt x="98" y="-183" on="1"/>
        <pt x="155" y="-131" on="1"/>
        <pt x="170" y="-147" on="0"/>
        <pt x="209" y="-163" on="0"/>
        <pt x="231" y="-163" on="1"/>
        <pt x="253" y="-163" on="0"/>
        <pt x="281" y="-144" on="0"/>
        <pt x="281" y="-128" on="1"/>
        <pt x="281" y="-113" on="0"/>
        <pt x="257" y="-95" on="0"/>
        <pt x="237" y="-95" on="1"/>
        <pt x="194" y="-95" on="1"/>
        <pt x="238" y="-8" on="1"/>
        <pt x="145" y="5" on="0"/>
        <pt x="24" y="142" on="0"/>
        <pt x="24" y="240" on="1"/>
        <pt x="24" y="302" on="0"/>
        <pt x="70" y="411" on="0"/>
        <pt x="149" y="492" on="0"/>
        <pt x="256" y="539" on="0"/>
        <pt x="316" y="539" on="1"/>
        <pt x="385" y="539" on="0"/>
        <pt x="502" y="480" on="0"/>
        <pt x="538" y="429" on="1"/>
        <pt x="430" y="331" on="1"/>
        <pt x="408" y="365" on="0"/>
        <pt x="351" y="398" on="0"/>
        <pt x="314" y="398" on="1"/>
        <pt x="260" y="398" on="0"/>
        <pt x="182" y="310" on="0"/>
        <pt x="182" y="249" on="1"/>
        <pt x="182" y="195" on="0"/>
        <pt x="246" y="129" on="0"/>
      </contour>
    </TTGlyph>
    <TTGlyph name="ccircumflex" xMin="24" yMin="-11" xMax="538" yMax="750">
      <component glyphName="c" x="0" y="0" flags="0x204"/>
      <component glyphName="circumflex" x="12" y="0" flags="0x4"/>
    </TTGlyph>
    <TTGlyph name="cdotaccent" xMin="24" yMin="-11" xMax="538" yMax="766">
      <component glyphName="c" x="0" y="0" flags="0x204"/>
      <component glyphName="dotaccent" x="120" y="0" flags="0x4"/>
    </TTGlyph>
    <TTGlyph name="cedilla" xMin="43" yMin="-238" xMax="317" yMax="0">
      <contour>
        <pt x="317" y="-126" on="1"/>
        <pt x="317" y="-172" on="0"/>
        <pt x="232" y="-238" on="0"/>
        <pt x="172" y="-238" on="1"/>
        <pt x="131" y="-238" on="0"/>
        <pt x="68" y="-213" on="0"/>
        <pt x="43" y="-185" on="1"/>
        <pt x="100" y="-133" on="1"/>
        <pt x="115" y="-149" on="0"/>
        <pt x="154" y="-165" on="0"/>
        <pt x="176" y="-165" on="1"/>
        <pt x="198" y="-165" on="0"/>
        <pt x="226" y="-146" on="0"/>
        <pt x="226" y="-130" on="1"/>
        <pt x="226" y="-115" on="0"/>
        <pt x="202" y="-97" on="0"/>
        <pt x="182" y="-97" on="1"/>
        <pt x="139" y="-97" on="1"/>
        <pt x="188" y="0" on="1"/>
        <pt x="264" y="0" on="1"/>
        <pt x="241" y="-44" on="1"/>
        <pt x="277" y="-51" on="0"/>
        <pt x="317" y="-93" on="0"/>
      </contour>
    </TTGlyph>
    <TTGlyph name="cent" xMin="24" yMin="-110" xMax="538" yMax="625">
      <contour>
        <pt x="192" y="-110" on="1"/>
        <pt x="215" y="-4" on="1"/>
        <pt x="131" y="16" on="0"/>
        <pt x="24" y="148" on="0"/>
        <pt x="24" y="240" on="1"/>
        <pt x="24" y="302" on="0"/>
        <pt x="70" y="411" on="0"/>
        <pt x="149" y="492" on="0"/>
        <pt x="256" y="539" on="0"/>
        <pt x="316" y="539" on="1"/>
        <pt x="330" y="539" on="1"/>
        <pt x="348" y="625" on="1"/>
        <pt x="413" y="625" on="1"/>
        <pt x="393" y="529" on="1"/>
        <pt x="438" y="517" on="0"/>
        <pt x="513" y="466" on="0"/>
        <pt x="538" y="429" on="1"/>
        <pt x="430" y="331" on="1"/>
        <pt x="416" y="353" on="0"/>
        <pt x="382" y="382" on="0"/>
        <pt x="363" y="389" on="1"/>
        <pt x="308" y="129" on="1"/>
        <pt x="335" y="131" on="0"/>
        <pt x="383" y="156" on="0"/>
        <pt x="408" y="180" on="1"/>
        <pt x="490" y="75" on="1"/>
        <pt x="446" y="33" on="0"/>
        <pt x="338" y="-11" on="0"/>
        <pt x="280" y="-11" on="1"/>
        <pt x="278" y="-11" on="1"/>
        <pt x="257" y="-110" on="1"/>
      </contour>
      <contour>
        <pt x="182" y="249" on="1"/>
        <pt x="182" y="210" on="0"/>
        <pt x="216" y="153" on="0"/>
        <pt x="245" y="140" on="1"/>
        <pt x="300" y="397" on="1"/>
        <pt x="250" y="391" on="0"/>
        <pt x="182" y="306" on="0"/>
      </contour>
    </TTGlyph>
    <TTGlyph name="circumflex" xMin="130" yMin="609" xMax="524" yMax="750">
      <contour>
        <pt x="400" y="609" on="1"/>
        <pt x="347" y="680" on="1"/>
        <pt x="263" y="609" on="1"/>
        <pt x="130" y="609" on="1"/>
        <pt x="277" y="750" on="1"/>
        <pt x="438" y="750" on="1"/>
        <pt x="524" y="609" on="1"/>
      </contour>
    </TTGlyph>
    <TTGlyph name="colon" xMin="-5" yMin="-11" xMax="256" yMax="537">
      <component glyphName="period" x="0" y="0" flags="0x4"/>
      <component glyphName="period" x="77" y="363" flags="0x4"/>
    </TTGlyph>
    <TTGlyph name="comma" xMin="-99" yMin="-157" xMax="196" yMax="127">
      <contour>
        <pt x="33" y="127" on="1"/>
        <pt x="196" y="127" on="1"/>
        <pt x="20" y="-157" on="1"/>
        <pt x="-99" y="-157" on="1"/>
      </contour>
    </TTGlyph>
    <TTGlyph name="commaaccent" xMin="-108" yMin="-295" xMax="140" yMax="-80">
      <contour>
        <pt x="-8" y="-80" on="1"/>
        <pt x="140" y="-80" on="1"/>
        <pt x="6" y="-295" on="1"/>
        <pt x="-108" y="-295" on="1"/>
      </contour>
    </TTGlyph>
    <TTGlyph name="copyright" xMin="48" yMin="-11" xMax="756" yMax="711">
      <contour>
        <pt x="48" y="305" on="1"/>
        <pt x="48" y="387" on="0"/>
        <pt x="111" y="535" on="0"/>
        <pt x="218" y="646" on="0"/>
        <pt x="362" y="711" on="0"/>
        <pt x="441" y="711" on="1"/>
        <pt x="509" y="711" on="0"/>
        <pt x="624" y="663" on="0"/>
        <pt x="708" y="579" on="0"/>
        <pt x="756" y="463" on="0"/>
        <pt x="756" y="395" on="1"/>
        <pt x="756" y="313" on="0"/>
        <pt x="693" y="165" on="0"/>
        <pt x="586" y="54" on="0"/>
        <pt x="442" y="-11" on="0"/>
        <pt x="363" y="-11" on="1"/>
        <pt x="295" y="-11" on="0"/>
        <pt x="180" y="37" on="0"/>
        <pt x="96" y="121" on="0"/>
        <pt x="48" y="237" on="0"/>
      </contour>
      <contour>
        <pt x="684" y="387" on="1"/>
        <pt x="684" y="442" on="0"/>
        <pt x="646" y="537" on="0"/>
        <pt x="580" y="605" on="0"/>
        <pt x="488" y="644" on="0"/>
        <pt x="434" y="644" on="1"/>
        <pt x="372" y="644" on="0"/>
        <pt x="257" y="590" on="0"/>
        <pt x="171" y="499" on="0"/>
        <pt x="120" y="379" on="0"/>
        <pt x="120" y="313" on="1"/>
        <pt x="120" y="258" on="0"/>
        <pt x="158" y="163" on="0"/>
        <pt x="224" y="95" on="0"/>
        <pt x="316" y="56" on="0"/>
        <pt x="370" y="56" on="1"/>
        <pt x="432" y="56" on="0"/>
        <pt x="547" y="110" on="0"/>
        <pt x="633" y="201" on="0"/>
        <pt x="684" y="321" on="0"/>
      </contour>
      <contour>
        <pt x="216" y="322" on="1"/>
        <pt x="216" y="365" on="0"/>
        <pt x="252" y="445" on="0"/>
        <pt x="312" y="506" on="0"/>
        <pt x="392" y="542" on="0"/>
        <pt x="435" y="542" on="1"/>
        <pt x="481" y="542" on="0"/>
        <pt x="564" y="498" on="0"/>
        <pt x="585" y="462" on="1"/>
        <pt x="505" y="396" on="1"/>
        <pt x="489" y="421" on="0"/>
        <pt x="451" y="444" on="0"/>
        <pt x="427" y="444" on="1"/>
        <pt x="387" y="444" on="0"/>
        <pt x="327" y="378" on="0"/>
        <pt x="327" y="334" on="1"/>
        <pt x="327" y="300" on="0"/>
        <pt x="369" y="257" on="0"/>
        <pt x="402" y="257" on="1"/>
        <pt x="422" y="257" on="0"/>
        <pt x="461" y="274" on="0"/>
        <pt x="481" y="292" on="1"/>
        <pt x="530" y="217" on="1"/>
        <pt x="501" y="190" on="0"/>
        <pt x="423" y="161" on="0"/>
        <pt x="383" y="161" on="1"/>
        <pt x="311" y="161" on="0"/>
        <pt x="216" y="253" on="0"/>
      </contour>
    </TTGlyph>
    <TTGlyph name="cordinal" xMin="77" yMin="296" xMax="465" yMax="711">
      <contour>
        <pt x="284" y="406" on="1"/>
        <pt x="307" y="406" on="0"/>
        <pt x="346" y="425" on="0"/>
        <pt x="365" y="444" on="1"/>
        <pt x="430" y="362" on="1"/>
        <pt x="396" y="330" on="0"/>
        <pt x="314" y="296" on="0"/>
        <pt x="271" y="296" on="1"/>
        <pt x="187" y="296" on="0"/>
        <pt x="77" y="405" on="0"/>
        <pt x="77" y="486" on="1"/>
        <pt x="77" y="533" on="0"/>
        <pt x="112" y="615" on="0"/>
        <pt x="171" y="676" on="0"/>
        <pt x="251" y="711" on="0"/>
        <pt x="297" y="711" on="1"/>
        <pt x="349" y="711" on="0"/>
        <pt x="438" y="667" on="0"/>
        <pt x="465" y="627" on="1"/>
        <pt x="381" y="551" on="1"/>
        <pt x="364" y="576" on="0"/>
        <pt x="322" y="601" on="0"/>
        <pt x="295" y="601" on="1"/>
        <pt x="256" y="601" on="0"/>
        <pt x="200" y="537" on="0"/>
        <pt x="200" y="493" on="1"/>
        <pt x="200" y="454" on="0"/>
        <pt x="246" y="406" on="0"/>
      </contour>
    </TTGlyph>
    <TTGlyph name="d" xMin="27" yMin="-7" xMax="686" yMax="735">
      <contour>
        <pt x="373" y="0" on="1"/>
        <pt x="378" y="22" on="1"/>
        <pt x="351" y="8" on="0"/>
        <pt x="293" y="-7" on="0"/>
        <pt x="263" y="-7" on="1"/>
        <pt x="213" y="-7" on="0"/>
        <pt x="127" y="31" on="0"/>
        <pt x="64" y="97" on="0"/>
        <pt x="27" y="187" on="0"/>
        <pt x="27" y="239" on="1"/>
        <pt x="27" y="301" on="0"/>
        <pt x="74" y="409" on="0"/>
        <pt x="153" y="489" on="0"/>
        <pt x="262" y="536" on="0"/>
        <pt x="323" y="536" on="1"/>
        <pt x="367" y="536" on="0"/>
        <pt x="445" y="511" on="0"/>
        <pt x="475" y="488" on="1"/>
        <pt x="520" y="700" on="1"/>
        <pt x="686" y="735" on="1"/>
        <pt x="530" y="0" on="1"/>
      </contour>
      <contour>
        <pt x="183" y="253" on="1"/>
        <pt x="183" y="201" on="0"/>
        <pt x="254" y="130" on="0"/>
        <pt x="307" y="130" on="1"/>
        <pt x="335" y="130" on="0"/>
        <pt x="385" y="147" on="0"/>
        <pt x="406" y="164" on="1"/>
        <pt x="446" y="352" on="1"/>
        <pt x="426" y="373" on="0"/>
        <pt x="364" y="398" on="0"/>
        <pt x="329" y="398" on="1"/>
        <pt x="268" y="398" on="0"/>
        <pt x="183" y="313" on="0"/>
      </contour>
    </TTGlyph>
    <TTGlyph name="dagger" xMin="75" yMin="0" xMax="461" yMax="700">
      <contour>
        <pt x="107" y="0" on="1"/>
        <pt x="193" y="402" on="1"/>
        <pt x="75" y="402" on="1"/>
        <pt x="102" y="526" on="1"/>
        <pt x="219" y="526" on="1"/>
        <pt x="256" y="700" on="1"/>
        <pt x="382" y="700" on="1"/>
        <pt x="345" y="526" on="1"/>
        <pt x="461" y="526" on="1"/>
        <pt x="434" y="402" on="1"/>
        <pt x="319" y="402" on="1"/>
        <pt x="233" y="0" on="1"/>
      </contour>
    </TTGlyph>
    <TTGlyph name="daggerdbl" xMin="27" yMin="0" xMax="461" yMax="700">
      <contour>
        <pt x="107" y="0" on="1"/>
        <pt x="144" y="174" on="1"/>
        <pt x="27" y="174" on="1"/>
        <pt x="53" y="298" on="1"/>
        <pt x="170" y="298" on="1"/>
        <pt x="193" y="402" on="1"/>
        <pt x="75" y="402" on="1"/>
        <pt x="102" y="526" on="1"/>
        <pt x="219" y="526" on="1"/>
        <pt x="256" y="700" on="1"/>
        <pt x="382" y="700" on="1"/>
        <pt x="345" y="526" on="1"/>
        <pt x="461" y="526" on="1"/>
        <pt x="434" y="402" on="1"/>
        <pt x="319" y="402" on="1"/>
        <pt x="296" y="298" on="1"/>
        <pt x="412" y="298" on="1"/>
        <pt x="386" y="174" on="1"/>
        <pt x="270" y="174" on="1"/>
        <pt x="233" y="0" on="1"/>
      </contour>
    </TTGlyph>
    <TTGlyph name="dcaron" xMin="27" yMin="-7" xMax="921" yMax="735">
      <component glyphName="d" x="0" y="0" flags="0x4"/>
      <component glyphName="caronSlovak" x="605" y="0" flags="0x4"/>
    </TTGlyph>
    <TTGlyph name="dcroat" xMin="27" yMin="-7" xMax="721" yMax="735">
      <contour>
        <pt x="373" y="0" on="1"/>
        <pt x="378" y="22" on="1"/>
        <pt x="351" y="8" on="0"/>
        <pt x="293" y="-7" on="0"/>
        <pt x="263" y="-7" on="1"/>
        <pt x="213" y="-7" on="0"/>
        <pt x="127" y="31" on="0"/>
        <pt x="64" y="97" on="0"/>
        <pt x="27" y="187" on="0"/>
        <pt x="27" y="239" on="1"/>
        <pt x="27" y="301" on="0"/>
        <pt x="74" y="409" on="0"/>
        <pt x="153" y="489" on="0"/>
        <pt x="262" y="536" on="0"/>
        <pt x="323" y="536" on="1"/>
        <pt x="367" y="536" on="0"/>
        <pt x="445" y="511" on="0"/>
        <pt x="475" y="488" on="1"/>
        <pt x="494" y="576" on="1"/>
        <pt x="369" y="576" on="1"/>
        <pt x="389" y="671" on="1"/>
        <pt x="514" y="671" on="1"/>
        <pt x="520" y="700" on="1"/>
        <pt x="686" y="735" on="1"/>
        <pt x="672" y="671" on="1"/>
        <pt x="721" y="671" on="1"/>
        <pt x="701" y="576" on="1"/>
        <pt x="652" y="576" on="1"/>
        <pt x="530" y="0" on="1"/>
      </contour>
      <contour>
        <pt x="183" y="253" on="1"/>
        <pt x="183" y="201" on="0"/>
        <pt x="254" y="130" on="0"/>
        <pt x="307" y="130" on="1"/>
        <pt x="335" y="130" on="0"/>
        <pt x="385" y="147" on="0"/>
        <pt x="406" y="164" on="1"/>
        <pt x="446" y="352" on="1"/>
        <pt x="426" y="373" on="0"/>
        <pt x="364" y="398" on="0"/>
        <pt x="329" y="398" on="1"/>
        <pt x="268" y="398" on="0"/>
        <pt x="183" y="313" on="0"/>
      </contour>
    </TTGlyph>
    <TTGlyph name="degree" xMin="100" yMin="416" xMax="391" yMax="710">
      <contour>
        <pt x="231" y="416" on="1"/>
        <pt x="174" y="416" on="0"/>
        <pt x="100" y="490" on="0"/>
        <pt x="100" y="546" on="1"/>
        <pt x="100" y="579" on="0"/>
        <pt x="126" y="639" on="0"/>
        <pt x="169" y="683" on="0"/>
        <pt x="227" y="710" on="0"/>
        <pt x="259" y="710" on="1"/>
        <pt x="316" y="710" on="0"/>
        <pt x="391" y="636" on="0"/>
        <pt x="391" y="580" on="1"/>
        <pt x="391" y="547" on="0"/>
        <pt x="365" y="487" on="0"/>
        <pt x="321" y="443" on="0"/>
        <pt x="263" y="416" on="0"/>
      </contour>
      <contour>
        <pt x="236" y="499" on="1"/>
        <pt x="265" y="499" on="0"/>
        <pt x="307" y="541" on="0"/>
        <pt x="307" y="570" on="1"/>
        <pt x="307" y="594" on="0"/>
        <pt x="275" y="627" on="0"/>
        <pt x="253" y="627" on="1"/>
        <pt x="225" y="627" on="0"/>
        <pt x="184" y="585" on="0"/>
        <pt x="184" y="556" on="1"/>
        <pt x="184" y="533" on="0"/>
        <pt x="214" y="499" on="0"/>
      </contour>
    </TTGlyph>
    <TTGlyph name="dieresis" xMin="189" yMin="602" xMax="585" yMax="766">
      <contour>
        <pt x="263" y="602" on="1"/>
        <pt x="232" y="602" on="0"/>
        <pt x="189" y="643" on="0"/>
        <pt x="189" y="674" on="1"/>
        <pt x="189" y="711" on="0"/>
        <pt x="245" y="766" on="0"/>
        <pt x="283" y="766" on="1"/>
        <pt x="314" y="766" on="0"/>
        <pt x="355" y="725" on="0"/>
        <pt x="355" y="694" on="1"/>
        <pt x="355" y="657" on="0"/>
        <pt x="300" y="602" on="0"/>
      </contour>
      <contour>
        <pt x="493" y="602" on="1"/>
        <pt x="462" y="602" on="0"/>
        <pt x="419" y="643" on="0"/>
        <pt x="419" y="674" on="1"/>
        <pt x="419" y="711" on="0"/>
        <pt x="475" y="766" on="0"/>
        <pt x="513" y="766" on="1"/>
        <pt x="544" y="766" on="0"/>
        <pt x="585" y="725" on="0"/>
        <pt x="585" y="694" on="1"/>
        <pt x="585" y="657" on="0"/>
        <pt x="530" y="602" on="0"/>
      </contour>
    </TTGlyph>
    <TTGlyph name="divide" xMin="49" yMin="33" xMax="540" yMax="686">
      <contour>
        <pt x="334" y="501" on="1"/>
        <pt x="299" y="501" on="0"/>
        <pt x="252" y="548" on="0"/>
        <pt x="252" y="582" on="1"/>
        <pt x="252" y="623" on="0"/>
        <pt x="313" y="686" on="0"/>
        <pt x="356" y="686" on="1"/>
        <pt x="390" y="686" on="0"/>
        <pt x="436" y="639" on="0"/>
        <pt x="436" y="605" on="1"/>
        <pt x="436" y="565" on="0"/>
        <pt x="375" y="501" on="0"/>
      </contour>
      <contour>
        <pt x="49" y="297" on="1"/>
        <pt x="75" y="421" on="1"/>
        <pt x="540" y="421" on="1"/>
        <pt x="514" y="297" on="1"/>
      </contour>
      <contour>
        <pt x="236" y="33" on="1"/>
        <pt x="201" y="33" on="0"/>
        <pt x="154" y="80" on="0"/>
        <pt x="154" y="114" on="1"/>
        <pt x="154" y="155" on="0"/>
        <pt x="215" y="218" on="0"/>
        <pt x="258" y="218" on="1"/>
        <pt x="292" y="218" on="0"/>
        <pt x="338" y="171" on="0"/>
        <pt x="338" y="137" on="1"/>
        <pt x="338" y="97" on="0"/>
        <pt x="277" y="33" on="0"/>
      </contour>
    </TTGlyph>
    <TTGlyph name="dollar" xMin="-30" yMin="-75" xMax="625" yMax="759">
      <contour>
        <pt x="183" y="-75" on="1"/>
        <pt x="203" y="20" on="1"/>
        <pt x="136" y="31" on="0"/>
        <pt x="16" y="94" on="0"/>
        <pt x="-30" y="144" on="1"/>
        <pt x="73" y="255" on="1"/>
        <pt x="112" y="215" on="0"/>
        <pt x="190" y="165" on="0"/>
        <pt x="232" y="155" on="1"/>
        <pt x="261" y="292" on="1"/>
        <pt x="194" y="309" on="1"/>
        <pt x="127" y="325" on="0"/>
        <pt x="54" y="411" on="0"/>
        <pt x="54" y="473" on="1"/>
        <pt x="54" y="572" on="0"/>
        <pt x="202" y="688" on="0"/>
        <pt x="328" y="688" on="1"/>
        <pt x="345" y="688" on="1"/>
        <pt x="360" y="759" on="1"/>
        <pt x="431" y="759" on="1"/>
        <pt x="414" y="680" on="1"/>
        <pt x="475" y="669" on="0"/>
        <pt x="585" y="615" on="0"/>
        <pt x="625" y="575" on="1"/>
        <pt x="526" y="463" on="1"/>
        <pt x="494" y="494" on="0"/>
        <pt x="424" y="535" on="0"/>
        <pt x="386" y="545" on="1"/>
        <pt x="360" y="423" on="1"/>
        <pt x="408" y="412" on="1"/>
        <pt x="488" y="393" on="0"/>
        <pt x="572" y="306" on="0"/>
        <pt x="572" y="243" on="1"/>
        <pt x="572" y="139" on="0"/>
        <pt x="411" y="14" on="0"/>
        <pt x="277" y="14" on="1"/>
        <pt x="273" y="14" on="1"/>
        <pt x="254" y="-75" on="1"/>
      </contour>
      <contour>
        <pt x="275" y="437" on="1"/>
        <pt x="291" y="433" on="1"/>
        <pt x="316" y="554" on="1"/>
        <pt x="309" y="554" on="1"/>
        <pt x="261" y="554" on="0"/>
        <pt x="205" y="521" on="0"/>
        <pt x="205" y="493" on="1"/>
        <pt x="205" y="473" on="0"/>
        <pt x="239" y="445" on="0"/>
      </contour>
      <contour>
        <pt x="329" y="281" on="1"/>
        <pt x="301" y="148" on="1"/>
        <pt x="354" y="149" on="0"/>
        <pt x="414" y="184" on="0"/>
        <pt x="414" y="215" on="1"/>
        <pt x="414" y="238" on="0"/>
        <pt x="376" y="268" on="0"/>
      </contour>
    </TTGlyph>
    <TTGlyph name="dotaccent" xMin="156" yMin="602" xMax="322" yMax="766">
      <contour>
        <pt x="230" y="602" on="1"/>
        <pt x="199" y="602" on="0"/>
        <pt x="156" y="643" on="0"/>
        <pt x="156" y="674" on="1"/>
        <pt x="156" y="711" on="0"/>
        <pt x="212" y="766" on="0"/>
        <pt x="250" y="766" on="1"/>
        <pt x="281" y="766" on="0"/>
        <pt x="322" y="725" on="0"/>
        <pt x="322" y="694" on="1"/>
        <pt x="322" y="657" on="0"/>
        <pt x="267" y="602" on="0"/>
      </contour>
    </TTGlyph>
    <TTGlyph name="dotlessi" xMin="-7" yMin="0" xMax="264" yMax="529">
      <contour>
        <pt x="264" y="529" on="1"/>
        <pt x="152" y="0" on="1"/>
        <pt x="-7" y="0" on="1"/>
        <pt x="105" y="529" on="1"/>
      </contour>
    </TTGlyph>
    <TTGlyph name="dotlessj" xMin="-152" yMin="-218" xMax="265" yMax="529">
      <contour>
        <pt x="-152" y="-203" on="1"/>
        <pt x="-126" y="-82" on="1"/>
        <pt x="-114" y="-85" on="0"/>
        <pt x="-90" y="-88" on="0"/>
        <pt x="-72" y="-88" on="1"/>
        <pt x="-49" y="-88" on="0"/>
        <pt x="-21" y="-66" on="0"/>
        <pt x="-17" y="-44" on="1"/>
        <pt x="105" y="529" on="1"/>
        <pt x="265" y="529" on="1"/>
        <pt x="139" y="-61" on="1"/>
        <pt x="123" y="-136" on="0"/>
        <pt x="19" y="-218" on="0"/>
        <pt x="-59" y="-218" on="1"/>
        <pt x="-81" y="-218" on="0"/>
        <pt x="-137" y="-209" on="0"/>
      </contour>
    </TTGlyph>
    <TTGlyph name="e" xMin="24" yMin="-11" xMax="558" yMax="537">
      <contour>
        <pt x="503" y="58" on="1"/>
        <pt x="453" y="21" on="0"/>
        <pt x="356" y="-11" on="0"/>
        <pt x="296" y="-11" on="1"/>
        <pt x="237" y="-11" on="0"/>
        <pt x="137" y="27" on="0"/>
        <pt x="65" y="94" on="0"/>
        <pt x="24" y="187" on="0"/>
        <pt x="24" y="242" on="1"/>
        <pt x="24" y="302" on="0"/>
        <pt x="70" y="410" on="0"/>
        <pt x="149" y="490" on="0"/>
        <pt x="255" y="537" on="0"/>
        <pt x="314" y="537" on="1"/>
        <pt x="368" y="537" on="0"/>
        <pt x="458" y="499" on="0"/>
        <pt x="522" y="431" on="0"/>
        <pt x="558" y="336" on="0"/>
        <pt x="558" y="280" on="1"/>
        <pt x="558" y="269" on="0"/>
        <pt x="556" y="241" on="0"/>
        <pt x="552" y="210" on="1"/>
        <pt x="182" y="210" on="1"/>
        <pt x="194" y="170" on="0"/>
        <pt x="261" y="122" on="0"/>
        <pt x="309" y="122" on="1"/>
        <pt x="340" y="122" on="0"/>
        <pt x="394" y="141" on="0"/>
        <pt x="414" y="159" on="1"/>
      </contour>
      <contour>
        <pt x="307" y="404" on="1"/>
        <pt x="268" y="404" on="0"/>
        <pt x="207" y="359" on="0"/>
        <pt x="191" y="322" on="1"/>
        <pt x="409" y="322" on="1"/>
        <pt x="399" y="359" on="0"/>
        <pt x="344" y="404" on="0"/>
      </contour>
    </TTGlyph>
    <TTGlyph name="eacute" xMin="24" yMin="-11" xMax="558" yMax="747">
      <component glyphName="e" x="0" y="0" flags="0x204"/>
      <component glyphName="acute" x="41" y="0" flags="0x4"/>
    </TTGlyph>
    <TTGlyph name="ebreve" xMin="24" yMin="-11" xMax="558" yMax="772">
      <component glyphName="e" x="0" y="0" flags="0x204"/>
      <component glyphName="breve" x="9" y="0" flags="0x4"/>
    </TTGlyph>
    <TTGlyph name="ecaron" xMin="24" yMin="-11" xMax="563" yMax="750">
      <component glyphName="e" x="0" y="0" flags="0x204"/>
      <component glyphName="caron" x="9" y="0" flags="0x4"/>
    </TTGlyph>
    <TTGlyph name="ecircumflex" xMin="24" yMin="-11" xMax="558" yMax="750">
      <component glyphName="e" x="0" y="0" flags="0x204"/>
      <component glyphName="circumflex" x="7" y="0" flags="0x4"/>
    </TTGlyph>
    <TTGlyph name="edieresis" xMin="24" yMin="-11" xMax="558" yMax="766">
      <component glyphName="e" x="0" y="0" flags="0x204"/>
      <component glyphName="dieresis" x="-36" y="0" flags="0x4"/>
    </TTGlyph>
    <TTGlyph name="edotaccent" xMin="24" yMin="-11" xMax="558" yMax="766">
      <component glyphName="e" x="0" y="0" flags="0x204"/>
      <component glyphName="dotaccent" x="115" y="0" flags="0x4"/>
    </TTGlyph>
    <TTGlyph name="egrave" xMin="24" yMin="-11" xMax="558" yMax="747">
      <component glyphName="e" x="0" y="0" flags="0x204"/>
      <component glyphName="grave" x="-21" y="0" flags="0x4"/>
    </TTGlyph>
    <TTGlyph name="eight" xMin="17" yMin="-11" xMax="627" yMax="710">
      <contour>
        <pt x="284" y="-11" on="1"/>
        <pt x="225" y="-11" on="0"/>
        <pt x="126" y="16" on="0"/>
        <pt x="56" y="65" on="0"/>
        <pt x="17" y="135" on="0"/>
        <pt x="17" y="176" on="1"/>
        <pt x="17" y="239" on="0"/>
        <pt x="99" y="343" on="0"/>
        <pt x="162" y="368" on="1"/>
        <pt x="134" y="390" on="0"/>
        <pt x="103" y="451" on="0"/>
        <pt x="103" y="488" on="1"/>
        <pt x="103" y="534" on="0"/>
        <pt x="148" y="615" on="0"/>
        <pt x="224" y="675" on="0"/>
        <pt x="328" y="710" on="0"/>
        <pt x="386" y="710" on="1"/>
        <pt x="439" y="710" on="0"/>
        <pt x="528" y="683" on="0"/>
        <pt x="591" y="635" on="0"/>
        <pt x="627" y="568" on="0"/>
        <pt x="627" y="528" on="1"/>
        <pt x="627" y="471" on="0"/>
        <pt x="558" y="374" on="0"/>
        <pt x="504" y="347" on="1"/>
        <pt x="540" y="325" on="0"/>
        <pt x="582" y="257" on="0"/>
        <pt x="582" y="215" on="1"/>
        <pt x="582" y="168" on="0"/>
        <pt x="535" y="85" on="0"/>
        <pt x="455" y="24" on="0"/>
        <pt x="346" y="-11" on="0"/>
      </contour>
      <contour>
        <pt x="356" y="415" on="1"/>
        <pt x="401" y="415" on="0"/>
        <pt x="468" y="469" on="0"/>
        <pt x="468" y="505" on="1"/>
        <pt x="468" y="537" on="0"/>
        <pt x="413" y="579" on="0"/>
        <pt x="372" y="579" on="1"/>
        <pt x="326" y="579" on="0"/>
        <pt x="258" y="525" on="0"/>
        <pt x="258" y="488" on="1"/>
        <pt x="258" y="457" on="0"/>
        <pt x="313" y="415" on="0"/>
      </contour>
      <contour>
        <pt x="296" y="121" on="1"/>
        <pt x="349" y="121" on="0"/>
        <pt x="424" y="176" on="0"/>
        <pt x="424" y="215" on="1"/>
        <pt x="424" y="250" on="0"/>
        <pt x="358" y="295" on="0"/>
        <pt x="307" y="295" on="1"/>
        <pt x="254" y="295" on="0"/>
        <pt x="180" y="241" on="0"/>
        <pt x="180" y="202" on="1"/>
        <pt x="180" y="166" on="0"/>
        <pt x="245" y="121" on="0"/>
      </contour>
    </TTGlyph>
    <TTGlyph name="ellipsis" xMin="-5" yMin="-11" xMax="683" yMax="174">
      <component glyphName="period" x="0" y="0" flags="0x4"/>
      <component glyphName="period" x="252" y="0" flags="0x4"/>
      <component glyphName="period" x="504" y="0" flags="0x4"/>
    </TTGlyph>
    <TTGlyph name="emacron" xMin="24" yMin="-11" xMax="558" yMax="728">
      <component glyphName="e" x="0" y="0" flags="0x204"/>
      <component glyphName="macron" x="9" y="0" flags="0x4"/>
    </TTGlyph>
    <TTGlyph name="emdash" xMin="28" yMin="219" xMax="681" yMax="354">
      <contour>
        <pt x="56" y="354" on="1"/>
        <pt x="681" y="354" on="1"/>
        <pt x="653" y="219" on="1"/>
        <pt x="28" y="219" on="1"/>
      </contour>
    </TTGlyph>
    <TTGlyph name="emdash.cap" xMin="28" yMin="284" xMax="681" yMax="419">
      <component glyphName="emdash" x="0" y="65" flags="0x4"/>
    </TTGlyph>
    <TTGlyph name="endash" xMin="28" yMin="219" xMax="534" yMax="354">
      <contour>
        <pt x="56" y="354" on="1"/>
        <pt x="534" y="354" on="1"/>
        <pt x="506" y="219" on="1"/>
        <pt x="28" y="219" on="1"/>
      </contour>
    </TTGlyph>
    <TTGlyph name="endash.cap" xMin="28" yMin="284" xMax="534" yMax="419">
      <component glyphName="endash" x="0" y="65" flags="0x4"/>
    </TTGlyph>
    <TTGlyph name="eng" xMin="-7" yMin="-218" xMax="571" yMax="537">
      <contour>
        <pt x="-7" y="0" on="1"/>
        <pt x="105" y="529" on="1"/>
        <pt x="264" y="529" on="1"/>
        <pt x="257" y="496" on="1"/>
        <pt x="288" y="516" on="0"/>
        <pt x="358" y="537" on="0"/>
        <pt x="395" y="537" on="1"/>
        <pt x="442" y="537" on="0"/>
        <pt x="515" y="503" on="0"/>
        <pt x="560" y="445" on="0"/>
        <pt x="575" y="363" on="0"/>
        <pt x="565" y="315" on="1"/>
        <pt x="485" y="-61" on="1"/>
        <pt x="469" y="-136" on="0"/>
        <pt x="365" y="-218" on="0"/>
        <pt x="287" y="-218" on="1"/>
        <pt x="265" y="-218" on="0"/>
        <pt x="209" y="-209" on="0"/>
        <pt x="194" y="-203" on="1"/>
        <pt x="220" y="-82" on="1"/>
        <pt x="232" y="-85" on="0"/>
        <pt x="256" y="-88" on="0"/>
        <pt x="274" y="-88" on="1"/>
        <pt x="297" y="-88" on="0"/>
        <pt x="324" y="-66" on="0"/>
        <pt x="329" y="-44" on="1"/>
        <pt x="403" y="300" on="1"/>
        <pt x="412" y="345" on="0"/>
        <pt x="368" y="400" on="0"/>
        <pt x="324" y="400" on="1"/>
        <pt x="296" y="400" on="0"/>
        <pt x="248" y="380" on="0"/>
        <pt x="228" y="361" on="1"/>
        <pt x="152" y="0" on="1"/>
      </contour>
    </TTGlyph>
    <TTGlyph name="eogonek" xMin="24" yMin="-221" xMax="558" yMax="537">
      <contour>
        <pt x="362" y="-198" on="1"/>
        <pt x="343" y="-209" on="0"/>
        <pt x="295" y="-221" on="0"/>
        <pt x="272" y="-221" on="1"/>
        <pt x="232" y="-221" on="0"/>
        <pt x="184" y="-182" on="0"/>
        <pt x="184" y="-148" on="1"/>
        <pt x="184" y="-111" on="0"/>
        <pt x="232" y="-42" on="0"/>
        <pt x="281" y="-11" on="1"/>
        <pt x="225" y="-8" on="0"/>
        <pt x="130" y="32" on="0"/>
        <pt x="62" y="98" on="0"/>
        <pt x="24" y="189" on="0"/>
        <pt x="24" y="242" on="1"/>
        <pt x="24" y="302" on="0"/>
        <pt x="70" y="410" on="0"/>
        <pt x="149" y="490" on="0"/>
        <pt x="255" y="537" on="0"/>
        <pt x="314" y="537" on="1"/>
        <pt x="368" y="537" on="0"/>
        <pt x="458" y="499" on="0"/>
        <pt x="522" y="431" on="0"/>
        <pt x="558" y="336" on="0"/>
        <pt x="558" y="280" on="1"/>
        <pt x="558" y="269" on="0"/>
        <pt x="556" y="241" on="0"/>
        <pt x="552" y="210" on="1"/>
        <pt x="182" y="210" on="1"/>
        <pt x="194" y="170" on="0"/>
        <pt x="261" y="122" on="0"/>
        <pt x="309" y="122" on="1"/>
        <pt x="340" y="122" on="0"/>
        <pt x="394" y="141" on="0"/>
        <pt x="414" y="159" on="1"/>
        <pt x="503" y="58" on="1"/>
        <pt x="472" y="36" on="0"/>
        <pt x="412" y="6" on="0"/>
        <pt x="381" y="-2" on="1"/>
        <pt x="330" y="-29" on="0"/>
        <pt x="280" y="-82" on="0"/>
        <pt x="280" y="-108" on="1"/>
        <pt x="280" y="-123" on="0"/>
        <pt x="300" y="-139" on="0"/>
        <pt x="318" y="-139" on="1"/>
        <pt x="328" y="-139" on="0"/>
        <pt x="348" y="-133" on="0"/>
        <pt x="356" y="-128" on="1"/>
      </contour>
      <contour>
        <pt x="307" y="404" on="1"/>
        <pt x="268" y="404" on="0"/>
        <pt x="207" y="359" on="0"/>
        <pt x="191" y="322" on="1"/>
        <pt x="409" y="322" on="1"/>
        <pt x="399" y="359" on="0"/>
        <pt x="344" y="404" on="0"/>
      </contour>
    </TTGlyph>
    <TTGlyph name="equal" xMin="26" yMin="189" xMax="560" yMax="515">
      <component glyphName="minus" x="-23" y="-108" flags="0x4"/>
      <component glyphName="minus" x="20" y="94" flags="0x4"/>
    </TTGlyph>
    <TTGlyph name="eth" xMin="27" yMin="-9" xMax="593" yMax="774">
      <contour>
        <pt x="287" y="512" on="1"/>
        <pt x="247" y="598" on="1"/>
        <pt x="313" y="630" on="1"/>
        <pt x="299" y="643" on="0"/>
        <pt x="268" y="667" on="0"/>
        <pt x="252" y="677" on="1"/>
        <pt x="357" y="774" on="1"/>
        <pt x="383" y="757" on="0"/>
        <pt x="430" y="719" on="0"/>
        <pt x="449" y="698" on="1"/>
        <pt x="551" y="748" on="1"/>
        <pt x="593" y="661" on="1"/>
        <pt x="509" y="620" on="1"/>
        <pt x="542" y="566" on="0"/>
        <pt x="576" y="438" on="0"/>
        <pt x="576" y="366" on="1"/>
        <pt x="576" y="286" on="0"/>
        <pt x="529" y="148" on="0"/>
        <pt x="447" y="48" on="0"/>
        <pt x="334" y="-9" on="0"/>
        <pt x="269" y="-9" on="1"/>
        <pt x="162" y="-9" on="0"/>
        <pt x="27" y="123" on="0"/>
        <pt x="27" y="227" on="1"/>
        <pt x="27" y="279" on="0"/>
        <pt x="69" y="373" on="0"/>
        <pt x="141" y="443" on="0"/>
        <pt x="237" y="484" on="0"/>
        <pt x="291" y="484" on="1"/>
        <pt x="332" y="484" on="0"/>
        <pt x="398" y="463" on="0"/>
        <pt x="423" y="441" on="1"/>
        <pt x="420" y="468" on="0"/>
        <pt x="396" y="527" on="0"/>
        <pt x="377" y="556" on="1"/>
      </contour>
      <contour>
        <pt x="274" y="133" on="1"/>
        <pt x="321" y="133" on="0"/>
        <pt x="392" y="205" on="0"/>
        <pt x="392" y="253" on="1"/>
        <pt x="392" y="294" on="0"/>
        <pt x="337" y="350" on="0"/>
        <pt x="297" y="350" on="1"/>
        <pt x="248" y="350" on="0"/>
        <pt x="177" y="279" on="0"/>
        <pt x="177" y="231" on="1"/>
        <pt x="177" y="189" on="0"/>
        <pt x="233" y="133" on="0"/>
      </contour>
    </TTGlyph>
    <TTGlyph name="exclam" xMin="-5" yMin="-11" xMax="309" yMax="745">
      <contour>
        <pt x="56" y="216" on="1"/>
        <pt x="148" y="745" on="1"/>
        <pt x="309" y="745" on="1"/>
        <pt x="177" y="216" on="1"/>
      </contour>
      <contour>
        <pt x="77" y="-11" on="1"/>
        <pt x="42" y="-11" on="0"/>
        <pt x="-5" y="36" on="0"/>
        <pt x="-5" y="70" on="1"/>
        <pt x="-5" y="112" on="0"/>
        <pt x="57" y="174" on="0"/>
        <pt x="99" y="174" on="1"/>
        <pt x="133" y="174" on="0"/>
        <pt x="179" y="127" on="0"/>
        <pt x="179" y="93" on="1"/>
        <pt x="179" y="52" on="0"/>
        <pt x="117" y="-11" on="0"/>
      </contour>
    </TTGlyph>
    <TTGlyph name="exclamdown" xMin="-21" yMin="-44" xMax="293" yMax="712">
      <contour>
        <pt x="232" y="485" on="1"/>
        <pt x="140" y="-44" on="1"/>
        <pt x="-21" y="-44" on="1"/>
        <pt x="111" y="485" on="1"/>
      </contour>
      <contour>
        <pt x="211" y="712" on="1"/>
        <pt x="246" y="712" on="0"/>
        <pt x="293" y="665" on="0"/>
        <pt x="293" y="631" on="1"/>
        <pt x="293" y="589" on="0"/>
        <pt x="231" y="527" on="0"/>
        <pt x="189" y="527" on="1"/>
        <pt x="155" y="527" on="0"/>
        <pt x="109" y="574" on="0"/>
        <pt x="109" y="608" on="1"/>
        <pt x="109" y="649" on="0"/>
        <pt x="171" y="712" on="0"/>
      </contour>
    </TTGlyph>
    <TTGlyph name="f" xMin="46" yMin="0" xMax="527" yMax="754">
      <contour>
        <pt x="74" y="529" on="1"/>
        <pt x="187" y="529" on="1"/>
        <pt x="197" y="576" on="1"/>
        <pt x="216" y="662" on="0"/>
        <pt x="331" y="754" on="0"/>
        <pt x="421" y="754" on="1"/>
        <pt x="448" y="754" on="0"/>
        <pt x="509" y="744" on="0"/>
        <pt x="527" y="737" on="1"/>
        <pt x="499" y="603" on="1"/>
        <pt x="482" y="609" on="0"/>
        <pt x="447" y="615" on="0"/>
        <pt x="429" y="615" on="1"/>
        <pt x="397" y="615" on="0"/>
        <pt x="359" y="588" on="0"/>
        <pt x="354" y="561" on="1"/>
        <pt x="347" y="529" on="1"/>
        <pt x="482" y="529" on="1"/>
        <pt x="454" y="394" on="1"/>
        <pt x="318" y="394" on="1"/>
        <pt x="234" y="0" on="1"/>
        <pt x="75" y="0" on="1"/>
        <pt x="158" y="394" on="1"/>
        <pt x="46" y="394" on="1"/>
      </contour>
    </TTGlyph>
    <TTGlyph name="fi" xMin="46" yMin="0" xMax="746" yMax="756">
      <component glyphName="f" x="0" y="0" flags="0x4"/>
      <component glyphName="i" x="444" y="0" flags="0x4"/>
    </TTGlyph>
    <TTGlyph name="five" xMin="-5" yMin="-9" xMax="629" yMax="700">
      <contour>
        <pt x="78" y="343" on="1"/>
        <pt x="168" y="700" on="1"/>
        <pt x="629" y="700" on="1"/>
        <pt x="600" y="565" on="1"/>
        <pt x="271" y="565" on="1"/>
        <pt x="238" y="436" on="1"/>
        <pt x="260" y="441" on="0"/>
        <pt x="305" y="446" on="0"/>
        <pt x="329" y="446" on="1"/>
        <pt x="382" y="446" on="0"/>
        <pt x="471" y="417" on="0"/>
        <pt x="535" y="366" on="0"/>
        <pt x="571" y="295" on="0"/>
        <pt x="571" y="252" on="1"/>
        <pt x="571" y="197" on="0"/>
        <pt x="524" y="101" on="0"/>
        <pt x="443" y="31" on="0"/>
        <pt x="332" y="-9" on="0"/>
        <pt x="269" y="-9" on="1"/>
        <pt x="184" y="-9" on="0"/>
        <pt x="42" y="51" on="0"/>
        <pt x="-5" y="106" on="1"/>
        <pt x="109" y="208" on="1"/>
        <pt x="149" y="165" on="0"/>
        <pt x="228" y="126" on="0"/>
        <pt x="277" y="126" on="1"/>
        <pt x="332" y="126" on="0"/>
        <pt x="407" y="185" on="0"/>
        <pt x="407" y="229" on="1"/>
        <pt x="407" y="269" on="0"/>
        <pt x="334" y="321" on="0"/>
        <pt x="277" y="321" on="1"/>
        <pt x="254" y="321" on="0"/>
        <pt x="201" y="311" on="0"/>
        <pt x="176" y="303" on="1"/>
      </contour>
    </TTGlyph>
    <TTGlyph name="fl" xMin="46" yMin="0" xMax="752" yMax="754">
      <component glyphName="f" x="0" y="0" flags="0x4"/>
      <component glyphName="l" x="444" y="0" flags="0x4"/>
    </TTGlyph>
    <TTGlyph name="four" xMin="3" yMin="0" xMax="664" yMax="700">
      <contour>
        <pt x="664" y="700" on="1"/>
        <pt x="577" y="290" on="1"/>
        <pt x="663" y="290" on="1"/>
        <pt x="634" y="155" on="1"/>
        <pt x="548" y="155" on="1"/>
        <pt x="515" y="0" on="1"/>
        <pt x="357" y="0" on="1"/>
        <pt x="390" y="155" on="1"/>
        <pt x="3" y="155" on="1"/>
        <pt x="31" y="286" on="1"/>
        <pt x="479" y="700" on="1"/>
      </contour>
      <contour>
        <pt x="213" y="290" on="1"/>
        <pt x="419" y="290" on="1"/>
        <pt x="469" y="526" on="1"/>
      </contour>
    </TTGlyph>
    <TTGlyph name="fraction" xMin="-41" yMin="0" xMax="609" yMax="700">
      <contour>
        <pt x="70" y="0" on="1"/>
        <pt x="-41" y="0" on="1"/>
        <pt x="497" y="700" on="1"/>
        <pt x="609" y="700" on="1"/>
      </contour>
    </TTGlyph>
    <TTGlyph name="g" xMin="11" yMin="-219" xMax="640" yMax="536">
      <contour>
        <pt x="263" y="-2" on="1"/>
        <pt x="213" y="-2" on="0"/>
        <pt x="127" y="35" on="0"/>
        <pt x="65" y="100" on="0"/>
        <pt x="29" y="190" on="0"/>
        <pt x="29" y="242" on="1"/>
        <pt x="29" y="303" on="0"/>
        <pt x="75" y="410" on="0"/>
        <pt x="155" y="490" on="0"/>
        <pt x="262" y="536" on="0"/>
        <pt x="323" y="536" on="1"/>
        <pt x="367" y="536" on="0"/>
        <pt x="444" y="511" on="0"/>
        <pt x="474" y="489" on="1"/>
        <pt x="482" y="529" on="1"/>
        <pt x="640" y="529" on="1"/>
        <pt x="524" y="-23" on="1"/>
        <pt x="504" y="-118" on="0"/>
        <pt x="371" y="-219" on="0"/>
        <pt x="266" y="-219" on="1"/>
        <pt x="198" y="-219" on="0"/>
        <pt x="62" y="-181" on="0"/>
        <pt x="11" y="-147" on="1"/>
        <pt x="83" y="-27" on="1"/>
        <pt x="126" y="-55" on="0"/>
        <pt x="219" y="-85" on="0"/>
        <pt x="262" y="-85" on="1"/>
        <pt x="306" y="-85" on="0"/>
        <pt x="359" y="-45" on="0"/>
        <pt x="368" y="-5" on="1"/>
        <pt x="374" y="25" on="1"/>
        <pt x="349" y="12" on="0"/>
        <pt x="292" y="-2" on="0"/>
      </contour>
      <contour>
        <pt x="185" y="256" on="1"/>
        <pt x="185" y="203" on="0"/>
        <pt x="254" y="133" on="0"/>
        <pt x="307" y="133" on="1"/>
        <pt x="335" y="133" on="0"/>
        <pt x="383" y="149" on="0"/>
        <pt x="404" y="165" on="1"/>
        <pt x="444" y="354" on="1"/>
        <pt x="423" y="374" on="0"/>
        <pt x="363" y="398" on="0"/>
        <pt x="329" y="398" on="1"/>
        <pt x="269" y="398" on="0"/>
        <pt x="185" y="315" on="0"/>
      </contour>
    </TTGlyph>
    <TTGlyph name="g.alt" xMin="-56" yMin="-217" xMax="669" yMax="550">
      <contour>
        <pt x="68" y="324" on="1"/>
        <pt x="68" y="368" on="0"/>
        <pt x="108" y="447" on="0"/>
        <pt x="176" y="505" on="0"/>
        <pt x="269" y="539" on="0"/>
        <pt x="322" y="539" on="1"/>
        <pt x="373" y="539" on="0"/>
        <pt x="461" y="508" on="0"/>
        <pt x="492" y="480" on="1"/>
        <pt x="524" y="515" on="0"/>
        <pt x="592" y="550" on="0"/>
        <pt x="627" y="550" on="1"/>
        <pt x="640" y="550" on="0"/>
        <pt x="660" y="546" on="0"/>
        <pt x="669" y="542" on="1"/>
        <pt x="645" y="424" on="1"/>
        <pt x="638" y="427" on="0"/>
        <pt x="608" y="430" on="0"/>
        <pt x="592" y="430" on="1"/>
        <pt x="577" y="430" on="0"/>
        <pt x="548" y="427" on="0"/>
        <pt x="534" y="423" on="1"/>
        <pt x="541" y="407" on="0"/>
        <pt x="549" y="373" on="0"/>
        <pt x="549" y="355" on="1"/>
        <pt x="549" y="311" on="0"/>
        <pt x="510" y="234" on="0"/>
        <pt x="442" y="178" on="0"/>
        <pt x="348" y="145" on="0"/>
        <pt x="295" y="145" on="1"/>
        <pt x="275" y="145" on="0"/>
        <pt x="237" y="150" on="0"/>
        <pt x="220" y="154" on="1"/>
        <pt x="203" y="151" on="0"/>
        <pt x="184" y="135" on="0"/>
        <pt x="184" y="123" on="1"/>
        <pt x="184" y="112" on="0"/>
        <pt x="208" y="97" on="0"/>
        <pt x="231" y="95" on="1"/>
        <pt x="397" y="81" on="1"/>
        <pt x="466" y="74" on="0"/>
        <pt x="542" y="14" on="0"/>
        <pt x="542" y="-34" on="1"/>
        <pt x="542" y="-75" on="0"/>
        <pt x="498" y="-143" on="0"/>
        <pt x="419" y="-191" on="0"/>
        <pt x="307" y="-217" on="0"/>
        <pt x="239" y="-217" on="1"/>
        <pt x="103" y="-217" on="0"/>
        <pt x="-56" y="-151" on="0"/>
        <pt x="-56" y="-94" on="1"/>
        <pt x="-56" y="-54" on="0"/>
        <pt x="8" y="4" on="0"/>
        <pt x="59" y="15" on="1"/>
        <pt x="49" y="26" on="0"/>
        <pt x="40" y="53" on="0"/>
        <pt x="40" y="68" on="1"/>
        <pt x="40" y="111" on="0"/>
        <pt x="96" y="175" on="0"/>
        <pt x="142" y="189" on="1"/>
        <pt x="108" y="213" on="0"/>
        <pt x="68" y="283" on="0"/>
      </contour>
      <contour>
        <pt x="401" y="348" on="1"/>
        <pt x="401" y="379" on="0"/>
        <pt x="353" y="422" on="0"/>
        <pt x="317" y="422" on="1"/>
        <pt x="274" y="422" on="0"/>
        <pt x="215" y="369" on="0"/>
        <pt x="215" y="331" on="1"/>
        <pt x="215" y="299" on="0"/>
        <pt x="263" y="257" on="0"/>
        <pt x="300" y="257" on="1"/>
        <pt x="340" y="257" on="0"/>
        <pt x="401" y="311" on="0"/>
      </contour>
      <contour>
        <pt x="89" y="-70" on="1"/>
        <pt x="89" y="-94" on="0"/>
        <pt x="174" y="-120" on="0"/>
        <pt x="249" y="-120" on="1"/>
        <pt x="306" y="-120" on="0"/>
        <pt x="376" y="-95" on="0"/>
        <pt x="376" y="-74" on="1"/>
        <pt x="376" y="-66" on="0"/>
        <pt x="360" y="-54" on="0"/>
        <pt x="346" y="-53" on="1"/>
        <pt x="205" y="-41" on="1"/>
        <pt x="186" y="-40" on="0"/>
        <pt x="152" y="-33" on="0"/>
        <pt x="137" y="-29" on="1"/>
        <pt x="116" y="-33" on="0"/>
        <pt x="89" y="-55" on="0"/>
      </contour>
    </TTGlyph>
    <TTGlyph name="gbreve" xMin="11" yMin="-219" xMax="640" yMax="772">
      <component glyphName="g" x="0" y="0" flags="0x204"/>
      <component glyphName="breve" x="37" y="0" flags="0x4"/>
    </TTGlyph>
    <TTGlyph name="gbreve.alt" xMin="-56" yMin="-217" xMax="669" yMax="772">
      <component glyphName="g.alt" x="0" y="0" flags="0x204"/>
      <component glyphName="breve" x="40" y="0" flags="0x4"/>
    </TTGlyph>
    <TTGlyph name="gcircumflex" xMin="11" yMin="-219" xMax="640" yMax="750">
      <component glyphName="g" x="0" y="0" flags="0x204"/>
      <component glyphName="circumflex" x="35" y="0" flags="0x4"/>
    </TTGlyph>
    <TTGlyph name="gcircumflex.alt" xMin="-56" yMin="-217" xMax="669" yMax="750">
      <component glyphName="g.alt" x="0" y="0" flags="0x204"/>
      <component glyphName="circumflex" x="40" y="0" flags="0x4"/>
    </TTGlyph>
    <TTGlyph name="gcommaaccent" xMin="11" yMin="-219" xMax="640" yMax="832">
      <contour>
        <pt x="426" y="617" on="1"/>
        <pt x="278" y="617" on="1"/>
        <pt x="412" y="832" on="1"/>
        <pt x="526" y="832" on="1"/>
      </contour>
      <contour>
        <pt x="263" y="-2" on="1"/>
        <pt x="213" y="-2" on="0"/>
        <pt x="127" y="35" on="0"/>
        <pt x="65" y="100" on="0"/>
        <pt x="29" y="190" on="0"/>
        <pt x="29" y="242" on="1"/>
        <pt x="29" y="303" on="0"/>
        <pt x="75" y="410" on="0"/>
        <pt x="155" y="490" on="0"/>
        <pt x="262" y="536" on="0"/>
        <pt x="323" y="536" on="1"/>
        <pt x="367" y="536" on="0"/>
        <pt x="444" y="511" on="0"/>
        <pt x="474" y="489" on="1"/>
        <pt x="482" y="529" on="1"/>
        <pt x="640" y="529" on="1"/>
        <pt x="524" y="-23" on="1"/>
        <pt x="504" y="-118" on="0"/>
        <pt x="371" y="-219" on="0"/>
        <pt x="266" y="-219" on="1"/>
        <pt x="198" y="-219" on="0"/>
        <pt x="62" y="-181" on="0"/>
        <pt x="11" y="-147" on="1"/>
        <pt x="83" y="-27" on="1"/>
        <pt x="126" y="-55" on="0"/>
        <pt x="219" y="-85" on="0"/>
        <pt x="262" y="-85" on="1"/>
        <pt x="306" y="-85" on="0"/>
        <pt x="359" y="-45" on="0"/>
        <pt x="368" y="-5" on="1"/>
        <pt x="374" y="25" on="1"/>
        <pt x="349" y="12" on="0"/>
        <pt x="292" y="-2" on="0"/>
      </contour>
      <contour>
        <pt x="185" y="256" on="1"/>
        <pt x="185" y="203" on="0"/>
        <pt x="254" y="133" on="0"/>
        <pt x="307" y="133" on="1"/>
        <pt x="335" y="133" on="0"/>
        <pt x="383" y="149" on="0"/>
        <pt x="404" y="165" on="1"/>
        <pt x="444" y="354" on="1"/>
        <pt x="423" y="374" on="0"/>
        <pt x="363" y="398" on="0"/>
        <pt x="329" y="398" on="1"/>
        <pt x="269" y="398" on="0"/>
        <pt x="185" y="315" on="0"/>
      </contour>
    </TTGlyph>
    <TTGlyph name="gcommaaccent.alt" xMin="-56" yMin="-217" xMax="669" yMax="832">
      <contour>
        <pt x="441" y="617" on="1"/>
        <pt x="293" y="617" on="1"/>
        <pt x="427" y="832" on="1"/>
        <pt x="541" y="832" on="1"/>
      </contour>
      <contour>
        <pt x="68" y="324" on="1"/>
        <pt x="68" y="368" on="0"/>
        <pt x="108" y="447" on="0"/>
        <pt x="176" y="505" on="0"/>
        <pt x="269" y="539" on="0"/>
        <pt x="322" y="539" on="1"/>
        <pt x="373" y="539" on="0"/>
        <pt x="461" y="508" on="0"/>
        <pt x="492" y="480" on="1"/>
        <pt x="524" y="515" on="0"/>
        <pt x="592" y="550" on="0"/>
        <pt x="627" y="550" on="1"/>
        <pt x="640" y="550" on="0"/>
        <pt x="660" y="546" on="0"/>
        <pt x="669" y="542" on="1"/>
        <pt x="645" y="424" on="1"/>
        <pt x="638" y="427" on="0"/>
        <pt x="608" y="430" on="0"/>
        <pt x="592" y="430" on="1"/>
        <pt x="577" y="430" on="0"/>
        <pt x="548" y="427" on="0"/>
        <pt x="534" y="423" on="1"/>
        <pt x="541" y="407" on="0"/>
        <pt x="549" y="373" on="0"/>
        <pt x="549" y="355" on="1"/>
        <pt x="549" y="311" on="0"/>
        <pt x="510" y="234" on="0"/>
        <pt x="442" y="178" on="0"/>
        <pt x="348" y="145" on="0"/>
        <pt x="295" y="145" on="1"/>
        <pt x="275" y="145" on="0"/>
        <pt x="237" y="150" on="0"/>
        <pt x="220" y="154" on="1"/>
        <pt x="203" y="151" on="0"/>
        <pt x="184" y="135" on="0"/>
        <pt x="184" y="123" on="1"/>
        <pt x="184" y="112" on="0"/>
        <pt x="208" y="97" on="0"/>
        <pt x="231" y="95" on="1"/>
        <pt x="397" y="81" on="1"/>
        <pt x="466" y="74" on="0"/>
        <pt x="542" y="14" on="0"/>
        <pt x="542" y="-34" on="1"/>
        <pt x="542" y="-75" on="0"/>
        <pt x="498" y="-143" on="0"/>
        <pt x="419" y="-191" on="0"/>
        <pt x="307" y="-217" on="0"/>
        <pt x="239" y="-217" on="1"/>
        <pt x="103" y="-217" on="0"/>
        <pt x="-56" y="-151" on="0"/>
        <pt x="-56" y="-94" on="1"/>
        <pt x="-56" y="-54" on="0"/>
        <pt x="8" y="4" on="0"/>
        <pt x="59" y="15" on="1"/>
        <pt x="49" y="26" on="0"/>
        <pt x="40" y="53" on="0"/>
        <pt x="40" y="68" on="1"/>
        <pt x="40" y="111" on="0"/>
        <pt x="96" y="175" on="0"/>
        <pt x="142" y="189" on="1"/>
        <pt x="108" y="213" on="0"/>
        <pt x="68" y="283" on="0"/>
      </contour>
      <contour>
        <pt x="401" y="348" on="1"/>
        <pt x="401" y="379" on="0"/>
        <pt x="353" y="422" on="0"/>
        <pt x="317" y="422" on="1"/>
        <pt x="274" y="422" on="0"/>
        <pt x="215" y="369" on="0"/>
        <pt x="215" y="331" on="1"/>
        <pt x="215" y="299" on="0"/>
        <pt x="263" y="257" on="0"/>
        <pt x="300" y="257" on="1"/>
        <pt x="340" y="257" on="0"/>
        <pt x="401" y="311" on="0"/>
      </contour>
      <contour>
        <pt x="89" y="-70" on="1"/>
        <pt x="89" y="-94" on="0"/>
        <pt x="174" y="-120" on="0"/>
        <pt x="249" y="-120" on="1"/>
        <pt x="306" y="-120" on="0"/>
        <pt x="376" y="-95" on="0"/>
        <pt x="376" y="-74" on="1"/>
        <pt x="376" y="-66" on="0"/>
        <pt x="360" y="-54" on="0"/>
        <pt x="346" y="-53" on="1"/>
        <pt x="205" y="-41" on="1"/>
        <pt x="186" y="-40" on="0"/>
        <pt x="152" y="-33" on="0"/>
        <pt x="137" y="-29" on="1"/>
        <pt x="116" y="-33" on="0"/>
        <pt x="89" y="-55" on="0"/>
      </contour>
    </TTGlyph>
    <TTGlyph name="gdotaccent" xMin="11" yMin="-219" xMax="640" yMax="766">
      <component glyphName="g" x="0" y="0" flags="0x204"/>
      <component glyphName="dotaccent" x="143" y="0" flags="0x4"/>
    </TTGlyph>
    <TTGlyph name="gdotaccent.alt" xMin="-56" yMin="-217" xMax="669" yMax="766">
      <component glyphName="g.alt" x="0" y="0" flags="0x204"/>
      <component glyphName="dotaccent" x="148" y="0" flags="0x4"/>
    </TTGlyph>
    <TTGlyph name="germandbls" xMin="-7" yMin="-13" xMax="671" yMax="739">
      <contour>
        <pt x="467" y="351" on="1"/>
        <pt x="467" y="341" on="0"/>
        <pt x="482" y="325" on="0"/>
        <pt x="500" y="317" on="1"/>
        <pt x="573" y="281" on="1"/>
        <pt x="619" y="258" on="0"/>
        <pt x="664" y="199" on="0"/>
        <pt x="664" y="159" on="1"/>
        <pt x="664" y="84" on="0"/>
        <pt x="552" y="-13" on="0"/>
        <pt x="465" y="-13" on="1"/>
        <pt x="398" y="-13" on="0"/>
        <pt x="278" y="43" on="0"/>
        <pt x="239" y="92" on="1"/>
        <pt x="332" y="170" on="1"/>
        <pt x="360" y="135" on="0"/>
        <pt x="426" y="98" on="0"/>
        <pt x="460" y="98" on="1"/>
        <pt x="489" y="98" on="0"/>
        <pt x="521" y="121" on="0"/>
        <pt x="521" y="141" on="1"/>
        <pt x="521" y="154" on="0"/>
        <pt x="500" y="175" on="0"/>
        <pt x="475" y="188" on="1"/>
        <pt x="397" y="226" on="1"/>
        <pt x="357" y="245" on="0"/>
        <pt x="319" y="298" on="0"/>
        <pt x="319" y="333" on="1"/>
        <pt x="319" y="383" on="0"/>
        <pt x="379" y="441" on="0"/>
        <pt x="452" y="481" on="0"/>
        <pt x="512" y="516" on="0"/>
        <pt x="512" y="544" on="1"/>
        <pt x="512" y="572" on="0"/>
        <pt x="446" y="610" on="0"/>
        <pt x="398" y="610" on="1"/>
        <pt x="341" y="610" on="0"/>
        <pt x="269" y="545" on="0"/>
        <pt x="256" y="481" on="1"/>
        <pt x="153" y="0" on="1"/>
        <pt x="-7" y="0" on="1"/>
        <pt x="101" y="503" on="1"/>
        <pt x="126" y="616" on="0"/>
        <pt x="281" y="739" on="0"/>
        <pt x="400" y="739" on="1"/>
        <pt x="459" y="739" on="0"/>
        <pt x="558" y="713" on="0"/>
        <pt x="630" y="667" on="0"/>
        <pt x="671" y="603" on="0"/>
        <pt x="671" y="565" on="1"/>
        <pt x="671" y="508" on="0"/>
        <pt x="607" y="442" on="0"/>
        <pt x="531" y="401" on="0"/>
        <pt x="467" y="372" on="0"/>
      </contour>
    </TTGlyph>
    <TTGlyph name="grave" xMin="155" yMin="611" xMax="418" yMax="747">
      <contour>
        <pt x="333" y="747" on="1"/>
        <pt x="418" y="611" on="1"/>
        <pt x="291" y="611" on="1"/>
        <pt x="155" y="747" on="1"/>
      </contour>
    </TTGlyph>
    <TTGlyph name="greater" xMin="34" yMin="43" xMax="510" yMax="652">
      <contour>
        <pt x="225" y="652" on="1"/>
        <pt x="510" y="347" on="1"/>
        <pt x="96" y="43" on="1"/>
        <pt x="34" y="141" on="1"/>
        <pt x="330" y="352" on="1"/>
        <pt x="125" y="562" on="1"/>
      </contour>
    </TTGlyph>
    <TTGlyph name="guillemotleft" xMin="14" yMin="0" xMax="737" yMax="529">
      <component glyphName="guilsinglleft" x="0" y="0" flags="0x4"/>
      <component glyphName="guilsinglleft" x="263" y="0" flags="0x4"/>
    </TTGlyph>
    <TTGlyph name="guillemotright" xMin="-26" yMin="0" xMax="697" yMax="529">
      <contour>
        <pt x="237" y="0" on="1"/>
        <pt x="530" y="266" on="1"/>
        <pt x="351" y="529" on="1"/>
        <pt x="512" y="529" on="1"/>
        <pt x="697" y="265" on="1"/>
        <pt x="400" y="0" on="1"/>
      </contour>
      <contour>
        <pt x="-26" y="0" on="1"/>
        <pt x="267" y="266" on="1"/>
        <pt x="88" y="529" on="1"/>
        <pt x="249" y="529" on="1"/>
        <pt x="434" y="265" on="1"/>
        <pt x="137" y="0" on="1"/>
      </contour>
    </TTGlyph>
    <TTGlyph name="guilsinglleft" xMin="14" yMin="0" xMax="474" yMax="529">
      <contour>
        <pt x="474" y="529" on="1"/>
        <pt x="181" y="263" on="1"/>
        <pt x="360" y="0" on="1"/>
        <pt x="199" y="0" on="1"/>
        <pt x="14" y="264" on="1"/>
        <pt x="311" y="529" on="1"/>
      </contour>
    </TTGlyph>
    <TTGlyph name="guilsinglright" xMin="-26" yMin="0" xMax="434" yMax="529">
      <contour>
        <pt x="-26" y="0" on="1"/>
        <pt x="267" y="266" on="1"/>
        <pt x="88" y="529" on="1"/>
        <pt x="249" y="529" on="1"/>
        <pt x="434" y="265" on="1"/>
        <pt x="137" y="0" on="1"/>
      </contour>
    </TTGlyph>
    <TTGlyph name="h" xMin="-7" yMin="0" xMax="571" yMax="735">
      <contour>
        <pt x="-7" y="0" on="1"/>
        <pt x="142" y="700" on="1"/>
        <pt x="308" y="735" on="1"/>
        <pt x="257" y="496" on="1"/>
        <pt x="288" y="516" on="0"/>
        <pt x="358" y="537" on="0"/>
        <pt x="395" y="537" on="1"/>
        <pt x="442" y="537" on="0"/>
        <pt x="515" y="503" on="0"/>
        <pt x="560" y="445" on="0"/>
        <pt x="575" y="363" on="0"/>
        <pt x="565" y="315" on="1"/>
        <pt x="498" y="0" on="1"/>
        <pt x="339" y="0" on="1"/>
        <pt x="403" y="300" on="1"/>
        <pt x="412" y="345" on="0"/>
        <pt x="368" y="400" on="0"/>
        <pt x="324" y="400" on="1"/>
        <pt x="296" y="400" on="0"/>
        <pt x="249" y="380" on="0"/>
        <pt x="229" y="361" on="1"/>
        <pt x="152" y="0" on="1"/>
      </contour>
    </TTGlyph>
    <TTGlyph name="hbar" xMin="-7" yMin="0" xMax="571" yMax="735">
      <contour>
        <pt x="-7" y="0" on="1"/>
        <pt x="116" y="576" on="1"/>
        <pt x="62" y="576" on="1"/>
        <pt x="82" y="671" on="1"/>
        <pt x="136" y="671" on="1"/>
        <pt x="142" y="700" on="1"/>
        <pt x="308" y="735" on="1"/>
        <pt x="294" y="671" on="1"/>
        <pt x="420" y="671" on="1"/>
        <pt x="400" y="576" on="1"/>
        <pt x="274" y="576" on="1"/>
        <pt x="257" y="496" on="1"/>
        <pt x="288" y="516" on="0"/>
        <pt x="358" y="537" on="0"/>
        <pt x="395" y="537" on="1"/>
        <pt x="442" y="537" on="0"/>
        <pt x="515" y="503" on="0"/>
        <pt x="560" y="445" on="0"/>
        <pt x="575" y="363" on="0"/>
        <pt x="565" y="315" on="1"/>
        <pt x="498" y="0" on="1"/>
        <pt x="339" y="0" on="1"/>
        <pt x="403" y="300" on="1"/>
        <pt x="412" y="345" on="0"/>
        <pt x="368" y="400" on="0"/>
        <pt x="324" y="400" on="1"/>
        <pt x="296" y="400" on="0"/>
        <pt x="249" y="380" on="0"/>
        <pt x="229" y="361" on="1"/>
        <pt x="152" y="0" on="1"/>
      </contour>
    </TTGlyph>
    <TTGlyph name="hcircumflex" xMin="-7" yMin="0" xMax="571" yMax="921">
      <contour>
        <pt x="307" y="780" on="1"/>
        <pt x="254" y="851" on="1"/>
        <pt x="170" y="780" on="1"/>
        <pt x="37" y="780" on="1"/>
        <pt x="184" y="921" on="1"/>
        <pt x="345" y="921" on="1"/>
        <pt x="431" y="780" on="1"/>
      </contour>
      <contour>
        <pt x="-7" y="0" on="1"/>
        <pt x="142" y="700" on="1"/>
        <pt x="300" y="700" on="1"/>
        <pt x="257" y="496" on="1"/>
        <pt x="288" y="516" on="0"/>
        <pt x="358" y="537" on="0"/>
        <pt x="395" y="537" on="1"/>
        <pt x="442" y="537" on="0"/>
        <pt x="515" y="503" on="0"/>
        <pt x="560" y="445" on="0"/>
        <pt x="575" y="363" on="0"/>
        <pt x="565" y="315" on="1"/>
        <pt x="498" y="0" on="1"/>
        <pt x="339" y="0" on="1"/>
        <pt x="403" y="300" on="1"/>
        <pt x="412" y="345" on="0"/>
        <pt x="368" y="400" on="0"/>
        <pt x="324" y="400" on="1"/>
        <pt x="296" y="400" on="0"/>
        <pt x="248" y="380" on="0"/>
        <pt x="228" y="361" on="1"/>
        <pt x="152" y="0" on="1"/>
      </contour>
    </TTGlyph>
    <TTGlyph name="hungarumlaut" xMin="144" yMin="613" xMax="644" yMax="746">
      <contour>
        <pt x="271" y="746" on="1"/>
        <pt x="423" y="746" on="1"/>
        <pt x="263" y="613" on="1"/>
        <pt x="144" y="613" on="1"/>
      </contour>
      <contour>
        <pt x="489" y="746" on="1"/>
        <pt x="644" y="746" on="1"/>
        <pt x="472" y="613" on="1"/>
        <pt x="362" y="613" on="1"/>
      </contour>
    </TTGlyph>
    <TTGlyph name="hyphen" xMin="28" yMin="219" xMax="436" yMax="354">
      <contour>
        <pt x="56" y="354" on="1"/>
        <pt x="436" y="354" on="1"/>
        <pt x="408" y="219" on="1"/>
        <pt x="28" y="219" on="1"/>
      </contour>
    </TTGlyph>
    <TTGlyph name="hyphen.cap" xMin="28" yMin="284" xMax="436" yMax="419">
      <component glyphName="hyphen" x="0" y="65" flags="0x4"/>
    </TTGlyph>
    <TTGlyph name="i" xMin="-7" yMin="0" xMax="302" yMax="756">
      <contour>
        <pt x="204" y="578" on="1"/>
        <pt x="171" y="578" on="0"/>
        <pt x="126" y="623" on="0"/>
        <pt x="126" y="656" on="1"/>
        <pt x="126" y="696" on="0"/>
        <pt x="185" y="756" on="0"/>
        <pt x="224" y="756" on="1"/>
        <pt x="257" y="756" on="0"/>
        <pt x="302" y="711" on="0"/>
        <pt x="302" y="678" on="1"/>
        <pt x="302" y="638" on="0"/>
        <pt x="243" y="578" on="0"/>
      </contour>
      <contour>
        <pt x="264" y="529" on="1"/>
        <pt x="152" y="0" on="1"/>
        <pt x="-7" y="0" on="1"/>
        <pt x="105" y="529" on="1"/>
      </contour>
    </TTGlyph>
    <TTGlyph name="iacute" xMin="-7" yMin="0" xMax="421" yMax="747">
      <component glyphName="dotlessi" x="0" y="0" flags="0x204"/>
      <component glyphName="acute" x="-93" y="0" flags="0x4"/>
    </TTGlyph>
    <TTGlyph name="ibreve" xMin="-7" yMin="0" xMax="404" yMax="772">
      <component glyphName="dotlessi" x="0" y="0" flags="0x204"/>
      <component glyphName="breve" x="-125" y="0" flags="0x4"/>
    </TTGlyph>
    <TTGlyph name="icircumflex" xMin="-7" yMin="0" xMax="397" yMax="750">
      <component glyphName="dotlessi" x="0" y="0" flags="0x204"/>
      <component glyphName="circumflex" x="-127" y="0" flags="0x4"/>
    </TTGlyph>
    <TTGlyph name="idieresis" xMin="-7" yMin="0" xMax="415" yMax="766">
      <component glyphName="dotlessi" x="0" y="0" flags="0x204"/>
      <component glyphName="dieresis" x="-170" y="0" flags="0x4"/>
    </TTGlyph>
    <TTGlyph name="idotaccent" xMin="-7" yMin="0" xMax="302" yMax="756">
      <component glyphName="i" x="0" y="0" flags="0x4"/>
    </TTGlyph>
    <TTGlyph name="igrave" xMin="-7" yMin="0" xMax="264" yMax="747">
      <component glyphName="dotlessi" x="0" y="0" flags="0x204"/>
      <component glyphName="grave" x="-155" y="0" flags="0x4"/>
    </TTGlyph>
    <TTGlyph name="ij" xMin="-7" yMin="-218" xMax="559" yMax="756">
      <component glyphName="i" x="0" y="0" flags="0x4"/>
      <component glyphName="j" x="257" y="0" flags="0x4"/>
    </TTGlyph>
    <TTGlyph name="imacron" xMin="-7" yMin="0" xMax="394" yMax="728">
      <component glyphName="dotlessi" x="0" y="0" flags="0x204"/>
      <component glyphName="macron" x="-125" y="0" flags="0x4"/>
    </TTGlyph>
    <TTGlyph name="iogonek" xMin="-48" yMin="-221" xMax="302" yMax="756">
      <contour>
        <pt x="204" y="578" on="1"/>
        <pt x="171" y="578" on="0"/>
        <pt x="126" y="623" on="0"/>
        <pt x="126" y="656" on="1"/>
        <pt x="126" y="696" on="0"/>
        <pt x="185" y="756" on="0"/>
        <pt x="224" y="756" on="1"/>
        <pt x="257" y="756" on="0"/>
        <pt x="302" y="711" on="0"/>
        <pt x="302" y="678" on="1"/>
        <pt x="302" y="638" on="0"/>
        <pt x="243" y="578" on="0"/>
      </contour>
      <contour>
        <pt x="152" y="0" on="1"/>
        <pt x="100" y="-28" on="0"/>
        <pt x="48" y="-81" on="0"/>
        <pt x="48" y="-108" on="1"/>
        <pt x="48" y="-123" on="0"/>
        <pt x="68" y="-139" on="0"/>
        <pt x="86" y="-139" on="1"/>
        <pt x="96" y="-139" on="0"/>
        <pt x="116" y="-133" on="0"/>
        <pt x="124" y="-128" on="1"/>
        <pt x="130" y="-198" on="1"/>
        <pt x="111" y="-209" on="0"/>
        <pt x="63" y="-221" on="0"/>
        <pt x="40" y="-221" on="1"/>
        <pt x="0" y="-221" on="0"/>
        <pt x="-48" y="-182" on="0"/>
        <pt x="-48" y="-148" on="1"/>
        <pt x="-48" y="-107" on="0"/>
        <pt x="10" y="-33" on="0"/>
        <pt x="67" y="0" on="1"/>
        <pt x="-7" y="0" on="1"/>
        <pt x="105" y="529" on="1"/>
        <pt x="264" y="529" on="1"/>
      </contour>
    </TTGlyph>
    <TTGlyph name="itilde" xMin="-7" yMin="0" xMax="427" yMax="756">
      <component glyphName="dotlessi" x="0" y="0" flags="0x204"/>
      <component glyphName="tilde" x="-122" y="0" flags="0x4"/>
    </TTGlyph>
    <TTGlyph name="j" xMin="-152" yMin="-218" xMax="302" yMax="756">
      <contour>
        <pt x="204" y="578" on="1"/>
        <pt x="171" y="578" on="0"/>
        <pt x="126" y="623" on="0"/>
        <pt x="126" y="656" on="1"/>
        <pt x="126" y="696" on="0"/>
        <pt x="185" y="756" on="0"/>
        <pt x="224" y="756" on="1"/>
        <pt x="257" y="756" on="0"/>
        <pt x="302" y="711" on="0"/>
        <pt x="302" y="678" on="1"/>
        <pt x="302" y="638" on="0"/>
        <pt x="243" y="578" on="0"/>
      </contour>
      <contour>
        <pt x="-59" y="-218" on="1"/>
        <pt x="-81" y="-218" on="0"/>
        <pt x="-137" y="-209" on="0"/>
        <pt x="-152" y="-203" on="1"/>
        <pt x="-126" y="-82" on="1"/>
        <pt x="-114" y="-85" on="0"/>
        <pt x="-90" y="-88" on="0"/>
        <pt x="-72" y="-88" on="1"/>
        <pt x="-49" y="-88" on="0"/>
        <pt x="-21" y="-66" on="0"/>
        <pt x="-17" y="-44" on="1"/>
        <pt x="105" y="529" on="1"/>
        <pt x="265" y="529" on="1"/>
        <pt x="139" y="-61" on="1"/>
        <pt x="123" y="-136" on="0"/>
        <pt x="19" y="-218" on="0"/>
      </contour>
    </TTGlyph>
    <TTGlyph name="jcircumflex" xMin="-152" yMin="-218" xMax="398" yMax="750">
      <component glyphName="dotlessj" x="0" y="0" flags="0x204"/>
      <component glyphName="circumflex" x="-126" y="0" flags="0x4"/>
    </TTGlyph>
    <TTGlyph name="k" xMin="-7" yMin="0" xMax="649" yMax="735">
      <contour>
        <pt x="-7" y="0" on="1"/>
        <pt x="142" y="700" on="1"/>
        <pt x="308" y="735" on="1"/>
        <pt x="216" y="303" on="1"/>
        <pt x="456" y="529" on="1"/>
        <pt x="649" y="529" on="1"/>
        <pt x="353" y="263" on="1"/>
        <pt x="552" y="0" on="1"/>
        <pt x="361" y="0" on="1"/>
        <pt x="200" y="227" on="1"/>
        <pt x="152" y="0" on="1"/>
      </contour>
    </TTGlyph>
    <TTGlyph name="kcommaaccent" xMin="-7" yMin="-295" xMax="649" yMax="735">
      <component glyphName="k" x="0" y="0" flags="0x204"/>
      <component glyphName="commaaccent" x="161" y="0" flags="0x4"/>
    </TTGlyph>
    <TTGlyph name="kgreenlandic" xMin="-7" yMin="0" xMax="649" yMax="529">
      <contour>
        <pt x="-7" y="0" on="1"/>
        <pt x="106" y="529" on="1"/>
        <pt x="264" y="529" on="1"/>
        <pt x="216" y="303" on="1"/>
        <pt x="456" y="529" on="1"/>
        <pt x="649" y="529" on="1"/>
        <pt x="353" y="263" on="1"/>
        <pt x="552" y="0" on="1"/>
        <pt x="361" y="0" on="1"/>
        <pt x="200" y="227" on="1"/>
        <pt x="152" y="0" on="1"/>
      </contour>
    </TTGlyph>
    <TTGlyph name="l" xMin="-7" yMin="0" xMax="308" yMax="735">
      <contour>
        <pt x="308" y="735" on="1"/>
        <pt x="152" y="0" on="1"/>
        <pt x="-7" y="0" on="1"/>
        <pt x="142" y="700" on="1"/>
      </contour>
    </TTGlyph>
    <TTGlyph name="lacute" xMin="-7" yMin="0" xMax="458" yMax="918">
      <contour>
        <pt x="280" y="918" on="1"/>
        <pt x="458" y="918" on="1"/>
        <pt x="293" y="782" on="1"/>
        <pt x="163" y="782" on="1"/>
      </contour>
      <contour>
        <pt x="-7" y="0" on="1"/>
        <pt x="142" y="700" on="1"/>
        <pt x="300" y="700" on="1"/>
        <pt x="152" y="0" on="1"/>
      </contour>
    </TTGlyph>
    <TTGlyph name="lcaron" xMin="-7" yMin="0" xMax="543" yMax="735">
      <component glyphName="l" x="0" y="0" flags="0x4"/>
      <component glyphName="caronSlovak" x="227" y="0" flags="0x4"/>
    </TTGlyph>
    <TTGlyph name="lcommaaccent" xMin="-116" yMin="-295" xMax="308" yMax="735">
      <component glyphName="l" x="0" y="0" flags="0x204"/>
      <component glyphName="commaaccent" x="-8" y="0" flags="0x4"/>
    </TTGlyph>
    <TTGlyph name="ldot" xMin="-7" yMin="0" xMax="452" yMax="735">
      <component glyphName="l" x="0" y="0" flags="0x4"/>
      <component glyphName="dotaccent" x="130" y="-324" flags="0x4"/>
    </TTGlyph>
    <TTGlyph name="less" xMin="56" yMin="43" xMax="532" yMax="652">
      <contour>
        <pt x="341" y="43" on="1"/>
        <pt x="56" y="348" on="1"/>
        <pt x="470" y="652" on="1"/>
        <pt x="532" y="554" on="1"/>
        <pt x="236" y="343" on="1"/>
        <pt x="441" y="133" on="1"/>
      </contour>
    </TTGlyph>
    <TTGlyph name="lslash" xMin="-8" yMin="0" xMax="358" yMax="735">
      <contour>
        <pt x="23" y="336" on="1"/>
        <pt x="99" y="382" on="1"/>
        <pt x="167" y="700" on="1"/>
        <pt x="333" y="735" on="1"/>
        <pt x="281" y="492" on="1"/>
        <pt x="358" y="538" on="1"/>
        <pt x="327" y="393" on="1"/>
        <pt x="251" y="347" on="1"/>
        <pt x="177" y="0" on="1"/>
        <pt x="18" y="0" on="1"/>
        <pt x="68" y="237" on="1"/>
        <pt x="-8" y="191" on="1"/>
      </contour>
    </TTGlyph>
    <TTGlyph name="m" xMin="-7" yMin="0" xMax="878" yMax="537">
      <contour>
        <pt x="-7" y="0" on="1"/>
        <pt x="105" y="529" on="1"/>
        <pt x="264" y="529" on="1"/>
        <pt x="256" y="493" on="1"/>
        <pt x="286" y="515" on="0"/>
        <pt x="352" y="537" on="0"/>
        <pt x="386" y="537" on="1"/>
        <pt x="435" y="537" on="0"/>
        <pt x="510" y="494" on="0"/>
        <pt x="530" y="457" on="1"/>
        <pt x="568" y="496" on="0"/>
        <pt x="661" y="537" on="0"/>
        <pt x="712" y="537" on="1"/>
        <pt x="756" y="537" on="0"/>
        <pt x="825" y="503" on="0"/>
        <pt x="868" y="444" on="0"/>
        <pt x="882" y="362" on="0"/>
        <pt x="872" y="315" on="1"/>
        <pt x="805" y="0" on="1"/>
        <pt x="646" y="0" on="1"/>
        <pt x="710" y="300" on="1"/>
        <pt x="719" y="344" on="0"/>
        <pt x="681" y="400" on="0"/>
        <pt x="641" y="400" on="1"/>
        <pt x="616" y="400" on="0"/>
        <pt x="571" y="378" on="0"/>
        <pt x="551" y="356" on="1"/>
        <pt x="550" y="346" on="0"/>
        <pt x="547" y="325" on="0"/>
        <pt x="545" y="315" on="1"/>
        <pt x="478" y="0" on="1"/>
        <pt x="319" y="0" on="1"/>
        <pt x="383" y="300" on="1"/>
        <pt x="392" y="345" on="0"/>
        <pt x="354" y="400" on="0"/>
        <pt x="314" y="400" on="1"/>
        <pt x="291" y="400" on="0"/>
        <pt x="248" y="380" on="0"/>
        <pt x="228" y="361" on="1"/>
        <pt x="152" y="0" on="1"/>
      </contour>
    </TTGlyph>
    <TTGlyph name="macron" xMin="169" yMin="624" xMax="519" yMax="728">
      <contour>
        <pt x="519" y="728" on="1"/>
        <pt x="497" y="624" on="1"/>
        <pt x="169" y="624" on="1"/>
        <pt x="191" y="728" on="1"/>
      </contour>
    </TTGlyph>
    <TTGlyph name="minus" xMin="49" yMin="297" xMax="540" yMax="421">
      <contour>
        <pt x="540" y="421" on="1"/>
        <pt x="514" y="297" on="1"/>
        <pt x="49" y="297" on="1"/>
        <pt x="75" y="421" on="1"/>
      </contour>
    </TTGlyph>
    <TTGlyph name="multiply" xMin="33" yMin="130" xMax="537" yMax="584">
      <contour>
        <pt x="94" y="130" on="1"/>
        <pt x="33" y="209" on="1"/>
        <pt x="211" y="360" on="1"/>
        <pt x="97" y="511" on="1"/>
        <pt x="184" y="584" on="1"/>
        <pt x="298" y="433" on="1"/>
        <pt x="476" y="584" on="1"/>
        <pt x="537" y="505" on="1"/>
        <pt x="358" y="354" on="1"/>
        <pt x="471" y="205" on="1"/>
        <pt x="383" y="132" on="1"/>
        <pt x="271" y="280" on="1"/>
      </contour>
    </TTGlyph>
    <TTGlyph name="n" xMin="-7" yMin="0" xMax="571" yMax="537">
      <contour>
        <pt x="-7" y="0" on="1"/>
        <pt x="105" y="529" on="1"/>
        <pt x="264" y="529" on="1"/>
        <pt x="257" y="496" on="1"/>
        <pt x="288" y="516" on="0"/>
        <pt x="358" y="537" on="0"/>
        <pt x="395" y="537" on="1"/>
        <pt x="442" y="537" on="0"/>
        <pt x="515" y="503" on="0"/>
        <pt x="560" y="445" on="0"/>
        <pt x="575" y="363" on="0"/>
        <pt x="565" y="315" on="1"/>
        <pt x="498" y="0" on="1"/>
        <pt x="339" y="0" on="1"/>
        <pt x="403" y="300" on="1"/>
        <pt x="412" y="345" on="0"/>
        <pt x="368" y="400" on="0"/>
        <pt x="324" y="400" on="1"/>
        <pt x="296" y="400" on="0"/>
        <pt x="248" y="380" on="0"/>
        <pt x="228" y="361" on="1"/>
        <pt x="152" y="0" on="1"/>
      </contour>
    </TTGlyph>
    <TTGlyph name="nacute" xMin="-7" yMin="0" xMax="593" yMax="747">
      <component glyphName="n" x="0" y="0" flags="0x204"/>
      <component glyphName="acute" x="79" y="0" flags="0x4"/>
    </TTGlyph>
    <TTGlyph name="ncaron" xMin="-7" yMin="0" xMax="601" yMax="750">
      <component glyphName="n" x="0" y="0" flags="0x204"/>
      <component glyphName="caron" x="47" y="0" flags="0x4"/>
    </TTGlyph>
    <TTGlyph name="ncommaaccent" xMin="-7" yMin="-295" xMax="571" yMax="537">
      <component glyphName="n" x="0" y="0" flags="0x204"/>
      <component glyphName="commaaccent" x="164" y="0" flags="0x4"/>
    </TTGlyph>
    <TTGlyph name="nine" xMin="4" yMin="-12" xMax="629" yMax="708">
      <contour>
        <pt x="356" y="708" on="1"/>
        <pt x="481" y="708" on="0"/>
        <pt x="629" y="553" on="0"/>
        <pt x="629" y="422" on="1"/>
        <pt x="629" y="334" on="0"/>
        <pt x="565" y="175" on="0"/>
        <pt x="455" y="57" on="0"/>
        <pt x="307" y="-12" on="0"/>
        <pt x="225" y="-12" on="1"/>
        <pt x="159" y="-12" on="0"/>
        <pt x="42" y="35" on="0"/>
        <pt x="4" y="78" on="1"/>
        <pt x="112" y="183" on="1"/>
        <pt x="137" y="155" on="0"/>
        <pt x="205" y="127" on="0"/>
        <pt x="250" y="127" on="1"/>
        <pt x="324" y="127" on="0"/>
        <pt x="440" y="243" on="0"/>
        <pt x="462" y="332" on="1"/>
        <pt x="425" y="301" on="0"/>
        <pt x="330" y="265" on="0"/>
        <pt x="280" y="265" on="1"/>
        <pt x="189" y="265" on="0"/>
        <pt x="71" y="371" on="0"/>
        <pt x="71" y="453" on="1"/>
        <pt x="71" y="505" on="0"/>
        <pt x="116" y="598" on="0"/>
        <pt x="194" y="668" on="0"/>
        <pt x="298" y="708" on="0"/>
      </contour>
      <contour>
        <pt x="326" y="388" on="1"/>
        <pt x="365" y="388" on="0"/>
        <pt x="438" y="418" on="0"/>
        <pt x="472" y="447" on="1"/>
        <pt x="467" y="504" on="0"/>
        <pt x="399" y="571" on="0"/>
        <pt x="345" y="571" on="1"/>
        <pt x="295" y="571" on="0"/>
        <pt x="226" y="514" on="0"/>
        <pt x="226" y="472" on="1"/>
        <pt x="226" y="435" on="0"/>
        <pt x="282" y="388" on="0"/>
      </contour>
    </TTGlyph>
    <TTGlyph name="notequal" xMin="-3" yMin="91" xMax="584" yMax="611">
      <contour>
        <pt x="-3" y="91" on="1"/>
        <pt x="83" y="189" on="1"/>
        <pt x="26" y="189" on="1"/>
        <pt x="52" y="313" on="1"/>
        <pt x="191" y="313" on="1"/>
        <pt x="259" y="391" on="1"/>
        <pt x="69" y="391" on="1"/>
        <pt x="95" y="515" on="1"/>
        <pt x="367" y="515" on="1"/>
        <pt x="451" y="611" on="1"/>
        <pt x="584" y="611" on="1"/>
        <pt x="500" y="515" on="1"/>
        <pt x="560" y="515" on="1"/>
        <pt x="534" y="391" on="1"/>
        <pt x="392" y="391" on="1"/>
        <pt x="324" y="313" on="1"/>
        <pt x="517" y="313" on="1"/>
        <pt x="491" y="189" on="1"/>
        <pt x="216" y="189" on="1"/>
        <pt x="131" y="91" on="1"/>
      </contour>
    </TTGlyph>
    <TTGlyph name="ntilde" xMin="-7" yMin="0" xMax="599" yMax="756">
      <component glyphName="n" x="0" y="0" flags="0x204"/>
      <component glyphName="tilde" x="50" y="0" flags="0x4"/>
    </TTGlyph>
    <TTGlyph name="numbersign" xMin="10" yMin="0" xMax="768" yMax="700">
      <contour>
        <pt x="10" y="0" on="1"/>
        <pt x="101" y="184" on="1"/>
        <pt x="11" y="184" on="1"/>
        <pt x="35" y="298" on="1"/>
        <pt x="157" y="298" on="1"/>
        <pt x="208" y="402" on="1"/>
        <pt x="106" y="402" on="1"/>
        <pt x="131" y="516" on="1"/>
        <pt x="264" y="516" on="1"/>
        <pt x="355" y="700" on="1"/>
        <pt x="497" y="700" on="1"/>
        <pt x="406" y="516" on="1"/>
        <pt x="536" y="516" on="1"/>
        <pt x="627" y="700" on="1"/>
        <pt x="768" y="700" on="1"/>
        <pt x="677" y="516" on="1"/>
        <pt x="767" y="516" on="1"/>
        <pt x="742" y="402" on="1"/>
        <pt x="621" y="402" on="1"/>
        <pt x="570" y="298" on="1"/>
        <pt x="671" y="298" on="1"/>
        <pt x="647" y="184" on="1"/>
        <pt x="514" y="184" on="1"/>
        <pt x="423" y="0" on="1"/>
        <pt x="282" y="0" on="1"/>
        <pt x="373" y="184" on="1"/>
        <pt x="243" y="184" on="1"/>
        <pt x="152" y="0" on="1"/>
      </contour>
      <contour>
        <pt x="299" y="298" on="1"/>
        <pt x="429" y="298" on="1"/>
        <pt x="480" y="402" on="1"/>
        <pt x="350" y="402" on="1"/>
      </contour>
    </TTGlyph>
    <TTGlyph name="o" xMin="26" yMin="-10" xMax="591" yMax="539">
      <contour>
        <pt x="26" y="245" on="1"/>
        <pt x="26" y="305" on="0"/>
        <pt x="74" y="413" on="0"/>
        <pt x="155" y="492" on="0"/>
        <pt x="265" y="539" on="0"/>
        <pt x="326" y="539" on="1"/>
        <pt x="382" y="539" on="0"/>
        <pt x="480" y="500" on="0"/>
        <pt x="550" y="432" on="0"/>
        <pt x="591" y="338" on="0"/>
        <pt x="591" y="284" on="1"/>
        <pt x="591" y="224" on="0"/>
        <pt x="543" y="117" on="0"/>
        <pt x="462" y="37" on="0"/>
        <pt x="353" y="-10" on="0"/>
        <pt x="292" y="-10" on="1"/>
        <pt x="235" y="-10" on="0"/>
        <pt x="137" y="29" on="0"/>
        <pt x="67" y="97" on="0"/>
        <pt x="26" y="191" on="0"/>
      </contour>
      <contour>
        <pt x="299" y="130" on="1"/>
        <pt x="355" y="130" on="0"/>
        <pt x="435" y="217" on="0"/>
        <pt x="435" y="277" on="1"/>
        <pt x="435" y="330" on="0"/>
        <pt x="369" y="399" on="0"/>
        <pt x="318" y="399" on="1"/>
        <pt x="262" y="399" on="0"/>
        <pt x="182" y="312" on="0"/>
        <pt x="182" y="252" on="1"/>
        <pt x="182" y="199" on="0"/>
        <pt x="248" y="130" on="0"/>
      </contour>
    </TTGlyph>
    <TTGlyph name="oacute" xMin="26" yMin="-10" xMax="591" yMax="747">
      <component glyphName="o" x="0" y="0" flags="0x204"/>
      <component glyphName="acute" x="58" y="0" flags="0x4"/>
    </TTGlyph>
    <TTGlyph name="obreve" xMin="26" yMin="-10" xMax="591" yMax="772">
      <component glyphName="o" x="0" y="0" flags="0x204"/>
      <component glyphName="breve" x="26" y="0" flags="0x4"/>
    </TTGlyph>
    <TTGlyph name="ocircumflex" xMin="26" yMin="-10" xMax="591" yMax="750">
      <component glyphName="o" x="0" y="0" flags="0x204"/>
      <component glyphName="circumflex" x="24" y="0" flags="0x4"/>
    </TTGlyph>
    <TTGlyph name="odieresis" xMin="26" yMin="-10" xMax="591" yMax="766">
      <component glyphName="o" x="0" y="0" flags="0x204"/>
      <component glyphName="dieresis" x="-19" y="0" flags="0x4"/>
    </TTGlyph>
    <TTGlyph name="oe" xMin="26" yMin="-11" xMax="971" yMax="539">
      <contour>
        <pt x="26" y="245" on="1"/>
        <pt x="26" y="305" on="0"/>
        <pt x="74" y="413" on="0"/>
        <pt x="155" y="492" on="0"/>
        <pt x="265" y="539" on="0"/>
        <pt x="326" y="539" on="1"/>
        <pt x="387" y="539" on="0"/>
        <pt x="492" y="490" on="0"/>
        <pt x="526" y="448" on="1"/>
        <pt x="564" y="489" on="0"/>
        <pt x="669" y="537" on="0"/>
        <pt x="727" y="537" on="1"/>
        <pt x="781" y="537" on="0"/>
        <pt x="871" y="499" on="0"/>
        <pt x="935" y="431" on="0"/>
        <pt x="971" y="336" on="0"/>
        <pt x="971" y="280" on="1"/>
        <pt x="971" y="269" on="0"/>
        <pt x="969" y="241" on="0"/>
        <pt x="965" y="210" on="1"/>
        <pt x="595" y="210" on="1"/>
        <pt x="607" y="170" on="0"/>
        <pt x="674" y="122" on="0"/>
        <pt x="722" y="122" on="1"/>
        <pt x="753" y="122" on="0"/>
        <pt x="807" y="141" on="0"/>
        <pt x="827" y="159" on="1"/>
        <pt x="916" y="58" on="1"/>
        <pt x="866" y="21" on="0"/>
        <pt x="768" y="-11" on="0"/>
        <pt x="709" y="-11" on="1"/>
        <pt x="644" y="-11" on="0"/>
        <pt x="537" y="39" on="0"/>
        <pt x="502" y="82" on="1"/>
        <pt x="462" y="39" on="0"/>
        <pt x="353" y="-10" on="0"/>
        <pt x="292" y="-10" on="1"/>
        <pt x="235" y="-10" on="0"/>
        <pt x="137" y="29" on="0"/>
        <pt x="67" y="97" on="0"/>
        <pt x="26" y="191" on="0"/>
      </contour>
      <contour>
        <pt x="720" y="404" on="1"/>
        <pt x="681" y="404" on="0"/>
        <pt x="620" y="359" on="0"/>
        <pt x="604" y="322" on="1"/>
        <pt x="822" y="322" on="1"/>
        <pt x="812" y="359" on="0"/>
        <pt x="757" y="404" on="0"/>
      </contour>
      <contour>
        <pt x="299" y="130" on="1"/>
        <pt x="355" y="130" on="0"/>
        <pt x="435" y="217" on="0"/>
        <pt x="435" y="277" on="1"/>
        <pt x="435" y="330" on="0"/>
        <pt x="369" y="399" on="0"/>
        <pt x="318" y="399" on="1"/>
        <pt x="262" y="399" on="0"/>
        <pt x="182" y="312" on="0"/>
        <pt x="182" y="252" on="1"/>
        <pt x="182" y="199" on="0"/>
        <pt x="248" y="130" on="0"/>
      </contour>
    </TTGlyph>
    <TTGlyph name="ogonek" xMin="68" yMin="-221" xMax="268" yMax="22">
      <contour>
        <pt x="268" y="0" on="1"/>
        <pt x="216" y="-28" on="0"/>
        <pt x="164" y="-81" on="0"/>
        <pt x="164" y="-108" on="1"/>
        <pt x="164" y="-123" on="0"/>
        <pt x="184" y="-139" on="0"/>
        <pt x="202" y="-139" on="1"/>
        <pt x="212" y="-139" on="0"/>
        <pt x="232" y="-133" on="0"/>
        <pt x="240" y="-128" on="1"/>
        <pt x="246" y="-198" on="1"/>
        <pt x="227" y="-209" on="0"/>
        <pt x="179" y="-221" on="0"/>
        <pt x="156" y="-221" on="1"/>
        <pt x="116" y="-221" on="0"/>
        <pt x="68" y="-182" on="0"/>
        <pt x="68" y="-148" on="1"/>
        <pt x="68" y="-100" on="0"/>
        <pt x="147" y="-15" on="0"/>
        <pt x="225" y="22" on="1"/>
      </contour>
    </TTGlyph>
    <TTGlyph name="ograve" xMin="26" yMin="-10" xMax="591" yMax="747">
      <component glyphName="o" x="0" y="0" flags="0x204"/>
      <component glyphName="grave" x="-4" y="0" flags="0x4"/>
    </TTGlyph>
    <TTGlyph name="ohungarumlaut" xMin="26" yMin="-10" xMax="678" yMax="746">
      <component glyphName="o" x="0" y="0" flags="0x204"/>
      <component glyphName="hungarumlaut" x="34" y="0" flags="0x4"/>
    </TTGlyph>
    <TTGlyph name="omacron" xMin="26" yMin="-10" xMax="591" yMax="728">
      <component glyphName="o" x="0" y="0" flags="0x204"/>
      <component glyphName="macron" x="26" y="0" flags="0x4"/>
    </TTGlyph>
    <TTGlyph name="one" xMin="64" yMin="0" xMax="412" yMax="700">
      <contour>
        <pt x="412" y="700" on="1"/>
        <pt x="263" y="0" on="1"/>
        <pt x="104" y="0" on="1"/>
        <pt x="218" y="536" on="1"/>
        <pt x="64" y="478" on="1"/>
        <pt x="93" y="618" on="1"/>
        <pt x="312" y="700" on="1"/>
      </contour>
    </TTGlyph>
    <TTGlyph name="onehalf" xMin="5" yMin="0" xMax="686" yMax="700">
      <component glyphName="onesuperior" x="0" y="0" flags="0x4"/>
      <component glyphName="fraction" x="46" y="0" flags="0x4"/>
      <component glyphName="uni2082" x="402" y="0" flags="0x4"/>
    </TTGlyph>
    <TTGlyph name="onequarter" xMin="5" yMin="0" xMax="655" yMax="700">
      <component glyphName="uni2084" x="323" y="0" flags="0x4"/>
      <component glyphName="onesuperior" x="0" y="0" flags="0x4"/>
      <component glyphName="fraction" x="46" y="0" flags="0x4"/>
    </TTGlyph>
    <TTGlyph name="onesuperior" xMin="80" yMin="350" xMax="279" yMax="700">
      <component glyphName="uni2081" x="74" y="350" flags="0x4"/>
    </TTGlyph>
    <TTGlyph name="ordfeminine" xMin="63" yMin="301" xMax="462" yMax="710">
      <contour>
        <pt x="198" y="301" on="1"/>
        <pt x="136" y="301" on="0"/>
        <pt x="63" y="361" on="0"/>
        <pt x="63" y="412" on="1"/>
        <pt x="63" y="474" on="0"/>
        <pt x="154" y="544" on="0"/>
        <pt x="233" y="544" on="1"/>
        <pt x="258" y="544" on="0"/>
        <pt x="309" y="536" on="0"/>
        <pt x="333" y="529" on="1"/>
        <pt x="335" y="538" on="1"/>
        <pt x="342" y="572" on="0"/>
        <pt x="304" y="606" on="0"/>
        <pt x="260" y="606" on="1"/>
        <pt x="241" y="606" on="0"/>
        <pt x="189" y="595" on="0"/>
        <pt x="151" y="582" on="1"/>
        <pt x="121" y="676" on="1"/>
        <pt x="167" y="693" on="0"/>
        <pt x="251" y="710" on="0"/>
        <pt x="289" y="710" on="1"/>
        <pt x="385" y="710" on="0"/>
        <pt x="474" y="618" on="0"/>
        <pt x="458" y="538" on="1"/>
        <pt x="408" y="305" on="1"/>
        <pt x="285" y="305" on="1"/>
        <pt x="289" y="325" on="1"/>
        <pt x="267" y="312" on="0"/>
        <pt x="222" y="301" on="0"/>
      </contour>
      <contour>
        <pt x="181" y="422" on="1"/>
        <pt x="181" y="406" on="0"/>
        <pt x="213" y="388" on="0"/>
        <pt x="243" y="388" on="1"/>
        <pt x="259" y="388" on="0"/>
        <pt x="291" y="395" on="0"/>
        <pt x="306" y="402" on="1"/>
        <pt x="317" y="452" on="1"/>
        <pt x="299" y="457" on="0"/>
        <pt x="262" y="463" on="0"/>
        <pt x="246" y="463" on="1"/>
        <pt x="215" y="463" on="0"/>
        <pt x="181" y="442" on="0"/>
      </contour>
    </TTGlyph>
    <TTGlyph name="ordmasculine" xMin="79" yMin="297" xMax="506" yMax="710">
      <contour>
        <pt x="79" y="489" on="1"/>
        <pt x="79" y="534" on="0"/>
        <pt x="115" y="615" on="0"/>
        <pt x="176" y="675" on="0"/>
        <pt x="259" y="710" on="0"/>
        <pt x="306" y="710" on="1"/>
        <pt x="349" y="710" on="0"/>
        <pt x="422" y="681" on="0"/>
        <pt x="475" y="630" on="0"/>
        <pt x="506" y="559" on="0"/>
        <pt x="506" y="518" on="1"/>
        <pt x="506" y="473" on="0"/>
        <pt x="470" y="393" on="0"/>
        <pt x="408" y="332" on="0"/>
        <pt x="326" y="297" on="0"/>
        <pt x="280" y="297" on="1"/>
        <pt x="194" y="297" on="0"/>
        <pt x="79" y="408" on="0"/>
      </contour>
      <contour>
        <pt x="384" y="513" on="1"/>
        <pt x="384" y="551" on="0"/>
        <pt x="336" y="601" on="0"/>
        <pt x="299" y="601" on="1"/>
        <pt x="259" y="601" on="0"/>
        <pt x="201" y="538" on="0"/>
        <pt x="201" y="495" on="1"/>
        <pt x="201" y="456" on="0"/>
        <pt x="249" y="406" on="0"/>
        <pt x="286" y="406" on="1"/>
        <pt x="326" y="406" on="0"/>
        <pt x="384" y="469" on="0"/>
      </contour>
    </TTGlyph>
    <TTGlyph name="oslash" xMin="-12" yMin="-10" xMax="629" yMax="539">
      <contour>
        <pt x="-12" y="0" on="1"/>
        <pt x="78" y="90" on="1"/>
        <pt x="53" y="121" on="0"/>
        <pt x="26" y="201" on="0"/>
        <pt x="26" y="245" on="1"/>
        <pt x="26" y="305" on="0"/>
        <pt x="74" y="413" on="0"/>
        <pt x="155" y="492" on="0"/>
        <pt x="265" y="539" on="0"/>
        <pt x="326" y="539" on="1"/>
        <pt x="370" y="539" on="0"/>
        <pt x="449" y="515" on="0"/>
        <pt x="481" y="494" on="1"/>
        <pt x="516" y="529" on="1"/>
        <pt x="629" y="529" on="1"/>
        <pt x="539" y="439" on="1"/>
        <pt x="564" y="408" on="0"/>
        <pt x="591" y="328" on="0"/>
        <pt x="591" y="284" on="1"/>
        <pt x="591" y="224" on="0"/>
        <pt x="543" y="117" on="0"/>
        <pt x="462" y="37" on="0"/>
        <pt x="353" y="-10" on="0"/>
        <pt x="292" y="-10" on="1"/>
        <pt x="248" y="-10" on="0"/>
        <pt x="168" y="14" on="0"/>
        <pt x="136" y="36" on="1"/>
        <pt x="100" y="0" on="1"/>
      </contour>
      <contour>
        <pt x="182" y="252" on="1"/>
        <pt x="182" y="239" on="0"/>
        <pt x="187" y="214" on="0"/>
        <pt x="191" y="203" on="1"/>
        <pt x="373" y="386" on="1"/>
        <pt x="361" y="392" on="0"/>
        <pt x="333" y="399" on="0"/>
        <pt x="318" y="399" on="1"/>
        <pt x="262" y="399" on="0"/>
        <pt x="182" y="312" on="0"/>
      </contour>
      <contour>
        <pt x="299" y="130" on="1"/>
        <pt x="355" y="130" on="0"/>
        <pt x="435" y="217" on="0"/>
        <pt x="435" y="277" on="1"/>
        <pt x="435" y="290" on="0"/>
        <pt x="430" y="315" on="0"/>
        <pt x="426" y="326" on="1"/>
        <pt x="243" y="143" on="1"/>
        <pt x="256" y="137" on="0"/>
        <pt x="283" y="130" on="0"/>
      </contour>
    </TTGlyph>
    <TTGlyph name="otilde" xMin="26" yMin="-10" xMax="591" yMax="756">
      <component glyphName="o" x="0" y="0" flags="0x204"/>
      <component glyphName="tilde" x="29" y="0" flags="0x4"/>
    </TTGlyph>
    <TTGlyph name="p" xMin="-52" yMin="-211" xMax="609" yMax="536">
      <contour>
        <pt x="-52" y="-211" on="1"/>
        <pt x="105" y="529" on="1"/>
        <pt x="262" y="529" on="1"/>
        <pt x="257" y="506" on="1"/>
        <pt x="284" y="521" on="0"/>
        <pt x="342" y="536" on="0"/>
        <pt x="373" y="536" on="1"/>
        <pt x="423" y="536" on="0"/>
        <pt x="509" y="498" on="0"/>
        <pt x="572" y="432" on="0"/>
        <pt x="609" y="342" on="0"/>
        <pt x="609" y="290" on="1"/>
        <pt x="609" y="228" on="0"/>
        <pt x="562" y="120" on="0"/>
        <pt x="483" y="40" on="0"/>
        <pt x="374" y="-7" on="0"/>
        <pt x="313" y="-7" on="1"/>
        <pt x="269" y="-7" on="0"/>
        <pt x="192" y="20" on="0"/>
        <pt x="162" y="45" on="1"/>
        <pt x="107" y="-211" on="1"/>
      </contour>
      <contour>
        <pt x="329" y="399" on="1"/>
        <pt x="301" y="399" on="0"/>
        <pt x="251" y="382" on="0"/>
        <pt x="230" y="365" on="1"/>
        <pt x="191" y="181" on="1"/>
        <pt x="210" y="158" on="0"/>
        <pt x="271" y="131" on="0"/>
        <pt x="307" y="131" on="1"/>
        <pt x="369" y="131" on="0"/>
        <pt x="454" y="216" on="0"/>
        <pt x="454" y="276" on="1"/>
        <pt x="454" y="328" on="0"/>
        <pt x="383" y="399" on="0"/>
      </contour>
    </TTGlyph>
    <TTGlyph name="paragraph" xMin="89" yMin="0" xMax="764" yMax="700">
      <contour>
        <pt x="274" y="0" on="1"/>
        <pt x="325" y="238" on="1"/>
        <pt x="321" y="238" on="1"/>
        <pt x="217" y="238" on="0"/>
        <pt x="89" y="348" on="0"/>
        <pt x="89" y="437" on="1"/>
        <pt x="89" y="494" on="0"/>
        <pt x="131" y="591" on="0"/>
        <pt x="206" y="660" on="0"/>
        <pt x="310" y="700" on="0"/>
        <pt x="371" y="700" on="1"/>
        <pt x="764" y="700" on="1"/>
        <pt x="615" y="0" on="1"/>
        <pt x="487" y="0" on="1"/>
        <pt x="538" y="238" on="1"/>
        <pt x="453" y="238" on="1"/>
        <pt x="402" y="0" on="1"/>
      </contour>
      <contour>
        <pt x="565" y="365" on="1"/>
        <pt x="608" y="570" on="1"/>
        <pt x="523" y="570" on="1"/>
        <pt x="479" y="365" on="1"/>
      </contour>
      <contour>
        <pt x="328" y="365" on="1"/>
        <pt x="351" y="365" on="1"/>
        <pt x="395" y="570" on="1"/>
        <pt x="349" y="570" on="1"/>
        <pt x="298" y="570" on="0"/>
        <pt x="228" y="505" on="0"/>
        <pt x="228" y="456" on="1"/>
        <pt x="228" y="414" on="0"/>
        <pt x="282" y="365" on="0"/>
      </contour>
    </TTGlyph>
    <TTGlyph name="parenleft" xMin="35" yMin="-221" xMax="470" yMax="711">
      <contour>
        <pt x="35" y="135" on="1"/>
        <pt x="35" y="228" on="0"/>
        <pt x="87" y="402" on="0"/>
        <pt x="182" y="552" on="0"/>
        <pt x="319" y="672" on="0"/>
        <pt x="403" y="711" on="1"/>
        <pt x="470" y="605" on="1"/>
        <pt x="403" y="572" on="0"/>
        <pt x="296" y="476" on="0"/>
        <pt x="223" y="359" on="0"/>
        <pt x="183" y="223" on="0"/>
        <pt x="183" y="151" on="1"/>
        <pt x="183" y="67" on="0"/>
        <pt x="250" y="-76" on="0"/>
        <pt x="314" y="-130" on="1"/>
        <pt x="207" y="-221" on="1"/>
        <pt x="123" y="-158" on="0"/>
        <pt x="35" y="25" on="0"/>
      </contour>
    </TTGlyph>
    <TTGlyph name="parenright" xMin="-57" yMin="-219" xMax="378" yMax="713">
      <contour>
        <pt x="378" y="357" on="1"/>
        <pt x="378" y="264" on="0"/>
        <pt x="326" y="90" on="0"/>
        <pt x="231" y="-60" on="0"/>
        <pt x="94" y="-180" on="0"/>
        <pt x="10" y="-219" on="1"/>
        <pt x="-57" y="-113" on="1"/>
        <pt x="10" y="-80" on="0"/>
        <pt x="117" y="16" on="0"/>
        <pt x="190" y="133" on="0"/>
        <pt x="230" y="269" on="0"/>
        <pt x="230" y="341" on="1"/>
        <pt x="230" y="425" on="0"/>
        <pt x="163" y="568" on="0"/>
        <pt x="99" y="622" on="1"/>
        <pt x="206" y="713" on="1"/>
        <pt x="290" y="650" on="0"/>
        <pt x="378" y="467" on="0"/>
      </contour>
    </TTGlyph>
    <TTGlyph name="percent" xMin="70" yMin="-5" xMax="783" yMax="706">
      <component glyphName="uni2070" x="0" y="0" flags="0x4"/>
      <component glyphName="fraction" x="135" y="0" flags="0x4"/>
      <component glyphName="uni2080" x="456" y="0" flags="0x4"/>
    </TTGlyph>
    <TTGlyph name="period" xMin="-5" yMin="-11" xMax="179" yMax="174">
      <contour>
        <pt x="99" y="174" on="1"/>
        <pt x="133" y="174" on="0"/>
        <pt x="179" y="127" on="0"/>
        <pt x="179" y="93" on="1"/>
        <pt x="179" y="52" on="0"/>
        <pt x="117" y="-11" on="0"/>
        <pt x="77" y="-11" on="1"/>
        <pt x="42" y="-11" on="0"/>
        <pt x="-5" y="36" on="0"/>
        <pt x="-5" y="70" on="1"/>
        <pt x="-5" y="112" on="0"/>
        <pt x="57" y="174" on="0"/>
      </contour>
    </TTGlyph>
    <TTGlyph name="periodcentered" xMin="42" yMin="194" xMax="226" yMax="379">
      <component glyphName="period" x="47" y="205" flags="0x4"/>
    </TTGlyph>
    <TTGlyph name="periodcentered.cap" xMin="42" yMin="259" xMax="226" yMax="444">
      <component glyphName="periodcentered" x="0" y="65" flags="0x4"/>
    </TTGlyph>
    <TTGlyph name="perthousand" xMin="70" yMin="-5" xMax="1142" yMax="706">
      <component glyphName="uni2070" x="0" y="0" flags="0x4"/>
      <component glyphName="fraction" x="135" y="0" flags="0x4"/>
      <component glyphName="uni2080" x="456" y="0" flags="0x4"/>
      <component glyphName="uni2080" x="815" y="0" flags="0x4"/>
    </TTGlyph>
    <TTGlyph name="plus" xMin="49" yMin="123" xMax="540" yMax="591">
      <contour>
        <pt x="306" y="123" on="1"/>
        <pt x="184" y="123" on="1"/>
        <pt x="221" y="297" on="1"/>
        <pt x="49" y="297" on="1"/>
        <pt x="75" y="421" on="1"/>
        <pt x="248" y="421" on="1"/>
        <pt x="284" y="591" on="1"/>
        <pt x="406" y="591" on="1"/>
        <pt x="370" y="421" on="1"/>
        <pt x="540" y="421" on="1"/>
        <pt x="514" y="297" on="1"/>
        <pt x="343" y="297" on="1"/>
      </contour>
    </TTGlyph>
    <TTGlyph name="plusminus" xMin="-14" yMin="-1" xMax="553" yMax="629">
      <contour>
        <pt x="324" y="209" on="1"/>
        <pt x="202" y="209" on="1"/>
        <pt x="234" y="359" on="1"/>
        <pt x="62" y="359" on="1"/>
        <pt x="88" y="482" on="1"/>
        <pt x="261" y="482" on="1"/>
        <pt x="292" y="629" on="1"/>
        <pt x="414" y="629" on="1"/>
        <pt x="383" y="482" on="1"/>
        <pt x="553" y="482" on="1"/>
        <pt x="527" y="359" on="1"/>
        <pt x="356" y="359" on="1"/>
      </contour>
      <contour>
        <pt x="477" y="123" on="1"/>
        <pt x="451" y="-1" on="1"/>
        <pt x="-14" y="-1" on="1"/>
        <pt x="12" y="123" on="1"/>
      </contour>
    </TTGlyph>
    <TTGlyph name="q" xMin="27" yMin="-211" xMax="642" yMax="536">
      <contour>
        <pt x="263" y="-7" on="1"/>
        <pt x="213" y="-7" on="0"/>
        <pt x="127" y="31" on="0"/>
        <pt x="64" y="97" on="0"/>
        <pt x="27" y="187" on="0"/>
        <pt x="27" y="239" on="1"/>
        <pt x="27" y="301" on="0"/>
        <pt x="74" y="409" on="0"/>
        <pt x="153" y="489" on="0"/>
        <pt x="262" y="536" on="0"/>
        <pt x="323" y="536" on="1"/>
        <pt x="368" y="536" on="0"/>
        <pt x="446" y="511" on="0"/>
        <pt x="476" y="486" on="1"/>
        <pt x="485" y="529" on="1"/>
        <pt x="642" y="529" on="1"/>
        <pt x="485" y="-211" on="1"/>
        <pt x="326" y="-211" on="1"/>
        <pt x="375" y="21" on="1"/>
        <pt x="349" y="8" on="0"/>
        <pt x="293" y="-7" on="0"/>
      </contour>
      <contour>
        <pt x="183" y="253" on="1"/>
        <pt x="183" y="201" on="0"/>
        <pt x="254" y="130" on="0"/>
        <pt x="307" y="130" on="1"/>
        <pt x="335" y="130" on="0"/>
        <pt x="384" y="147" on="0"/>
        <pt x="406" y="164" on="1"/>
        <pt x="446" y="351" on="1"/>
        <pt x="426" y="373" on="0"/>
        <pt x="364" y="398" on="0"/>
        <pt x="329" y="398" on="1"/>
        <pt x="268" y="398" on="0"/>
        <pt x="183" y="313" on="0"/>
      </contour>
    </TTGlyph>
    <TTGlyph name="question" xMin="63" yMin="-11" xMax="558" yMax="710">
      <contour>
        <pt x="393" y="329" on="1"/>
        <pt x="365" y="313" on="1"/>
        <pt x="332" y="295" on="0"/>
        <pt x="302" y="255" on="0"/>
        <pt x="295" y="219" on="1"/>
        <pt x="162" y="219" on="1"/>
        <pt x="173" y="289" on="0"/>
        <pt x="222" y="368" on="0"/>
        <pt x="274" y="399" on="1"/>
        <pt x="335" y="437" on="1"/>
        <pt x="366" y="455" on="0"/>
        <pt x="399" y="496" on="0"/>
        <pt x="399" y="515" on="1"/>
        <pt x="399" y="543" on="0"/>
        <pt x="353" y="575" on="0"/>
        <pt x="313" y="575" on="1"/>
        <pt x="273" y="575" on="0"/>
        <pt x="201" y="533" on="0"/>
        <pt x="180" y="499" on="1"/>
        <pt x="63" y="554" on="1"/>
        <pt x="105" y="626" on="0"/>
        <pt x="251" y="710" on="0"/>
        <pt x="334" y="710" on="1"/>
        <pt x="433" y="710" on="0"/>
        <pt x="558" y="614" on="0"/>
        <pt x="558" y="539" on="1"/>
        <pt x="558" y="478" on="0"/>
        <pt x="480" y="379" on="0"/>
      </contour>
      <contour>
        <pt x="213" y="174" on="1"/>
        <pt x="247" y="174" on="0"/>
        <pt x="293" y="127" on="0"/>
        <pt x="293" y="93" on="1"/>
        <pt x="293" y="52" on="0"/>
        <pt x="231" y="-11" on="0"/>
        <pt x="191" y="-11" on="1"/>
        <pt x="156" y="-11" on="0"/>
        <pt x="109" y="36" on="0"/>
        <pt x="109" y="70" on="1"/>
        <pt x="109" y="112" on="0"/>
        <pt x="170" y="174" on="0"/>
      </contour>
    </TTGlyph>
    <TTGlyph name="questiondown" xMin="3" yMin="-10" xMax="498" yMax="711">
      <contour>
        <pt x="168" y="371" on="1"/>
        <pt x="196" y="387" on="1"/>
        <pt x="229" y="405" on="0"/>
        <pt x="259" y="445" on="0"/>
        <pt x="266" y="481" on="1"/>
        <pt x="399" y="481" on="1"/>
        <pt x="388" y="411" on="0"/>
        <pt x="339" y="332" on="0"/>
        <pt x="287" y="301" on="1"/>
        <pt x="226" y="263" on="1"/>
        <pt x="195" y="245" on="0"/>
        <pt x="162" y="204" on="0"/>
        <pt x="162" y="185" on="1"/>
        <pt x="162" y="157" on="0"/>
        <pt x="208" y="125" on="0"/>
        <pt x="248" y="125" on="1"/>
        <pt x="288" y="125" on="0"/>
        <pt x="360" y="167" on="0"/>
        <pt x="381" y="201" on="1"/>
        <pt x="498" y="146" on="1"/>
        <pt x="456" y="74" on="0"/>
        <pt x="310" y="-10" on="0"/>
        <pt x="227" y="-10" on="1"/>
        <pt x="128" y="-10" on="0"/>
        <pt x="3" y="86" on="0"/>
        <pt x="3" y="161" on="1"/>
        <pt x="3" y="222" on="0"/>
        <pt x="81" y="321" on="0"/>
      </contour>
      <contour>
        <pt x="348" y="526" on="1"/>
        <pt x="314" y="526" on="0"/>
        <pt x="268" y="573" on="0"/>
        <pt x="268" y="607" on="1"/>
        <pt x="268" y="648" on="0"/>
        <pt x="330" y="711" on="0"/>
        <pt x="370" y="711" on="1"/>
        <pt x="405" y="711" on="0"/>
        <pt x="452" y="664" on="0"/>
        <pt x="452" y="630" on="1"/>
        <pt x="452" y="588" on="0"/>
        <pt x="391" y="526" on="0"/>
      </contour>
    </TTGlyph>
    <TTGlyph name="quotedbl" xMin="105" yMin="396" xMax="513" yMax="706">
      <component glyphName="quotesingle" x="0" y="0" flags="0x4"/>
      <component glyphName="quotesingle" x="207" y="0" flags="0x4"/>
    </TTGlyph>
    <TTGlyph name="quotedblbase" xMin="-99" yMin="-157" xMax="410" yMax="127">
      <component glyphName="comma" x="214" y="0" flags="0x4"/>
      <component glyphName="comma" x="0" y="0" flags="0x4"/>
    </TTGlyph>
    <TTGlyph name="quotedblleft" xMin="53" yMin="466" xMax="562" yMax="750">
      <contour>
        <pt x="216" y="466" on="1"/>
        <pt x="53" y="466" on="1"/>
        <pt x="229" y="750" on="1"/>
        <pt x="348" y="750" on="1"/>
      </contour>
      <contour>
        <pt x="430" y="466" on="1"/>
        <pt x="267" y="466" on="1"/>
        <pt x="443" y="750" on="1"/>
        <pt x="562" y="750" on="1"/>
      </contour>
    </TTGlyph>
    <TTGlyph name="quotedblright" xMin="66" yMin="466" xMax="575" yMax="750">
      <component glyphName="comma" x="379" y="623" flags="0x4"/>
      <component glyphName="comma" x="165" y="623" flags="0x4"/>
    </TTGlyph>
    <TTGlyph name="quoteleft" xMin="58" yMin="466" xMax="353" yMax="750">
      <contour>
        <pt x="221" y="466" on="1"/>
        <pt x="58" y="466" on="1"/>
        <pt x="234" y="750" on="1"/>
        <pt x="353" y="750" on="1"/>
      </contour>
    </TTGlyph>
    <TTGlyph name="quoteright" xMin="66" yMin="466" xMax="361" yMax="750">
      <component glyphName="comma" x="165" y="623" flags="0x4"/>
    </TTGlyph>
    <TTGlyph name="quotesinglbase" xMin="-99" yMin="-157" xMax="196" yMax="127">
      <component glyphName="comma" x="0" y="0" flags="0x4"/>
    </TTGlyph>
    <TTGlyph name="quotesingle" xMin="105" yMin="396" xMax="306" yMax="706">
      <contour>
        <pt x="105" y="396" on="1"/>
        <pt x="153" y="706" on="1"/>
        <pt x="306" y="706" on="1"/>
        <pt x="221" y="396" on="1"/>
      </contour>
    </TTGlyph>
    <TTGlyph name="r" xMin="-7" yMin="0" xMax="459" yMax="539">
      <contour>
        <pt x="-7" y="0" on="1"/>
        <pt x="105" y="529" on="1"/>
        <pt x="264" y="529" on="1"/>
        <pt x="254" y="482" on="1"/>
        <pt x="283" y="510" on="0"/>
        <pt x="352" y="539" on="0"/>
        <pt x="390" y="539" on="1"/>
        <pt x="412" y="539" on="0"/>
        <pt x="449" y="530" on="0"/>
        <pt x="459" y="522" on="1"/>
        <pt x="430" y="382" on="1"/>
        <pt x="420" y="390" on="0"/>
        <pt x="371" y="402" on="0"/>
        <pt x="349" y="402" on="1"/>
        <pt x="313" y="402" on="0"/>
        <pt x="248" y="370" on="0"/>
        <pt x="224" y="342" on="1"/>
        <pt x="152" y="0" on="1"/>
      </contour>
    </TTGlyph>
</ttFont>
